<?xml version="1.0" encoding="utf-8" standalone="no"?>
<!DOCTYPE svg PUBLIC "-//W3C//DTD SVG 1.1//EN"
  "http://www.w3.org/Graphics/SVG/1.1/DTD/svg11.dtd">
<!-- Created with matplotlib (https://matplotlib.org/) -->
<svg height="302.878125pt" version="1.1" viewBox="0 0 566.5875 302.878125" width="566.5875pt" xmlns="http://www.w3.org/2000/svg" xmlns:xlink="http://www.w3.org/1999/xlink">
 <defs>
  <style type="text/css">
*{stroke-linecap:butt;stroke-linejoin:round;}
  </style>
 </defs>
 <g id="figure_1">
  <g id="patch_1">
   <path d="M -0 302.878125 
L 566.5875 302.878125 
L 566.5875 0 
L -0 0 
z
" style="fill:#ffffff;"/>
  </g>
  <g id="axes_1">
   <g id="patch_2">
    <path d="M 280.3875 279 
L 559.3875 279 
L 559.3875 7.2 
L 280.3875 7.2 
z
" style="fill:#ffffff;"/>
   </g>
   <g id="patch_3">
    <path clip-path="url(#p96f212ba1b)" d="M 280.3875 272.205 
L 546.101786 272.205 
L 546.101786 258.615 
L 280.3875 258.615 
z
" style="fill:#1f77b4;"/>
   </g>
   <g id="patch_4">
    <path clip-path="url(#p96f212ba1b)" d="M 280.3875 245.025 
L 535.389795 245.025 
L 535.389795 231.435 
L 280.3875 231.435 
z
" style="fill:#1f77b4;"/>
   </g>
   <g id="patch_5">
    <path clip-path="url(#p96f212ba1b)" d="M 280.3875 217.845 
L 496.739547 217.845 
L 496.739547 204.255 
L 280.3875 204.255 
z
" style="fill:#1f77b4;"/>
   </g>
   <g id="patch_6">
    <path clip-path="url(#p96f212ba1b)" d="M 280.3875 190.665 
L 482.72275 190.665 
L 482.72275 177.075 
L 280.3875 177.075 
z
" style="fill:#1f77b4;"/>
   </g>
   <g id="patch_7">
    <path clip-path="url(#p96f212ba1b)" d="M 280.3875 163.485 
L 461.86198 163.485 
L 461.86198 149.895 
L 280.3875 149.895 
z
" style="fill:#1f77b4;"/>
   </g>
   <g id="patch_8">
    <path clip-path="url(#p96f212ba1b)" d="M 280.3875 136.305 
L 461.695256 136.305 
L 461.695256 122.715 
L 280.3875 122.715 
z
" style="fill:#1f77b4;"/>
   </g>
   <g id="patch_9">
    <path clip-path="url(#p96f212ba1b)" d="M 280.3875 109.125 
L 447.981821 109.125 
L 447.981821 95.535 
L 280.3875 95.535 
z
" style="fill:#1f77b4;"/>
   </g>
   <g id="patch_10">
    <path clip-path="url(#p96f212ba1b)" d="M 280.3875 81.945 
L 447.68837 81.945 
L 447.68837 68.355 
L 280.3875 68.355 
z
" style="fill:#1f77b4;"/>
   </g>
   <g id="patch_11">
    <path clip-path="url(#p96f212ba1b)" d="M 280.3875 54.765 
L 439.478938 54.765 
L 439.478938 41.175 
L 280.3875 41.175 
z
" style="fill:#1f77b4;"/>
   </g>
   <g id="patch_12">
    <path clip-path="url(#p96f212ba1b)" d="M 280.3875 27.585 
L 439.026911 27.585 
L 439.026911 13.995 
L 280.3875 13.995 
z
" style="fill:#1f77b4;"/>
   </g>
   <g id="matplotlib.axis_1">
    <g id="xtick_1">
     <g id="line2d_1">
      <defs>
       <path d="M 0 0 
L 0 3.5 
" id="m7ffb6a33fe" style="stroke:#000000;stroke-width:0.8;"/>
      </defs>
      <g>
       <use style="stroke:#000000;stroke-width:0.8;" x="280.3875" xlink:href="#m7ffb6a33fe" y="279"/>
      </g>
     </g>
     <g id="text_1">
      <!-- 0.000 -->
      <defs>
       <path d="M 31.78125 66.40625 
Q 24.171875 66.40625 20.328125 58.90625 
Q 16.5 51.421875 16.5 36.375 
Q 16.5 21.390625 20.328125 13.890625 
Q 24.171875 6.390625 31.78125 6.390625 
Q 39.453125 6.390625 43.28125 13.890625 
Q 47.125 21.390625 47.125 36.375 
Q 47.125 51.421875 43.28125 58.90625 
Q 39.453125 66.40625 31.78125 66.40625 
z
M 31.78125 74.21875 
Q 44.046875 74.21875 50.515625 64.515625 
Q 56.984375 54.828125 56.984375 36.375 
Q 56.984375 17.96875 50.515625 8.265625 
Q 44.046875 -1.421875 31.78125 -1.421875 
Q 19.53125 -1.421875 13.0625 8.265625 
Q 6.59375 17.96875 6.59375 36.375 
Q 6.59375 54.828125 13.0625 64.515625 
Q 19.53125 74.21875 31.78125 74.21875 
z
" id="DejaVuSans-48"/>
       <path d="M 10.6875 12.40625 
L 21 12.40625 
L 21 0 
L 10.6875 0 
z
" id="DejaVuSans-46"/>
      </defs>
      <g transform="translate(266.073438 293.598437)scale(0.1 -0.1)">
       <use xlink:href="#DejaVuSans-48"/>
       <use x="63.623047" xlink:href="#DejaVuSans-46"/>
       <use x="95.410156" xlink:href="#DejaVuSans-48"/>
       <use x="159.033203" xlink:href="#DejaVuSans-48"/>
       <use x="222.65625" xlink:href="#DejaVuSans-48"/>
      </g>
     </g>
    </g>
    <g id="xtick_2">
     <g id="line2d_2">
      <g>
       <use style="stroke:#000000;stroke-width:0.8;" x="323.847517" xlink:href="#m7ffb6a33fe" y="279"/>
      </g>
     </g>
     <g id="text_2">
      <!-- 0.005 -->
      <defs>
       <path d="M 10.796875 72.90625 
L 49.515625 72.90625 
L 49.515625 64.59375 
L 19.828125 64.59375 
L 19.828125 46.734375 
Q 21.96875 47.46875 24.109375 47.828125 
Q 26.265625 48.1875 28.421875 48.1875 
Q 40.625 48.1875 47.75 41.5 
Q 54.890625 34.8125 54.890625 23.390625 
Q 54.890625 11.625 47.5625 5.09375 
Q 40.234375 -1.421875 26.90625 -1.421875 
Q 22.3125 -1.421875 17.546875 -0.640625 
Q 12.796875 0.140625 7.71875 1.703125 
L 7.71875 11.625 
Q 12.109375 9.234375 16.796875 8.0625 
Q 21.484375 6.890625 26.703125 6.890625 
Q 35.15625 6.890625 40.078125 11.328125 
Q 45.015625 15.765625 45.015625 23.390625 
Q 45.015625 31 40.078125 35.4375 
Q 35.15625 39.890625 26.703125 39.890625 
Q 22.75 39.890625 18.8125 39.015625 
Q 14.890625 38.140625 10.796875 36.28125 
z
" id="DejaVuSans-53"/>
      </defs>
      <g transform="translate(309.533455 293.598437)scale(0.1 -0.1)">
       <use xlink:href="#DejaVuSans-48"/>
       <use x="63.623047" xlink:href="#DejaVuSans-46"/>
       <use x="95.410156" xlink:href="#DejaVuSans-48"/>
       <use x="159.033203" xlink:href="#DejaVuSans-48"/>
       <use x="222.65625" xlink:href="#DejaVuSans-53"/>
      </g>
     </g>
    </g>
    <g id="xtick_3">
     <g id="line2d_3">
      <g>
       <use style="stroke:#000000;stroke-width:0.8;" x="367.307534" xlink:href="#m7ffb6a33fe" y="279"/>
      </g>
     </g>
     <g id="text_3">
      <!-- 0.010 -->
      <defs>
       <path d="M 12.40625 8.296875 
L 28.515625 8.296875 
L 28.515625 63.921875 
L 10.984375 60.40625 
L 10.984375 69.390625 
L 28.421875 72.90625 
L 38.28125 72.90625 
L 38.28125 8.296875 
L 54.390625 8.296875 
L 54.390625 0 
L 12.40625 0 
z
" id="DejaVuSans-49"/>
      </defs>
      <g transform="translate(352.993472 293.598437)scale(0.1 -0.1)">
       <use xlink:href="#DejaVuSans-48"/>
       <use x="63.623047" xlink:href="#DejaVuSans-46"/>
       <use x="95.410156" xlink:href="#DejaVuSans-48"/>
       <use x="159.033203" xlink:href="#DejaVuSans-49"/>
       <use x="222.65625" xlink:href="#DejaVuSans-48"/>
      </g>
     </g>
    </g>
    <g id="xtick_4">
     <g id="line2d_4">
      <g>
       <use style="stroke:#000000;stroke-width:0.8;" x="410.767552" xlink:href="#m7ffb6a33fe" y="279"/>
      </g>
     </g>
     <g id="text_4">
      <!-- 0.015 -->
      <g transform="translate(396.453489 293.598437)scale(0.1 -0.1)">
       <use xlink:href="#DejaVuSans-48"/>
       <use x="63.623047" xlink:href="#DejaVuSans-46"/>
       <use x="95.410156" xlink:href="#DejaVuSans-48"/>
       <use x="159.033203" xlink:href="#DejaVuSans-49"/>
       <use x="222.65625" xlink:href="#DejaVuSans-53"/>
      </g>
     </g>
    </g>
    <g id="xtick_5">
     <g id="line2d_5">
      <g>
       <use style="stroke:#000000;stroke-width:0.8;" x="454.227569" xlink:href="#m7ffb6a33fe" y="279"/>
      </g>
     </g>
     <g id="text_5">
      <!-- 0.020 -->
      <defs>
       <path d="M 19.1875 8.296875 
L 53.609375 8.296875 
L 53.609375 0 
L 7.328125 0 
L 7.328125 8.296875 
Q 12.9375 14.109375 22.625 23.890625 
Q 32.328125 33.6875 34.8125 36.53125 
Q 39.546875 41.84375 41.421875 45.53125 
Q 43.3125 49.21875 43.3125 52.78125 
Q 43.3125 58.59375 39.234375 62.25 
Q 35.15625 65.921875 28.609375 65.921875 
Q 23.96875 65.921875 18.8125 64.3125 
Q 13.671875 62.703125 7.8125 59.421875 
L 7.8125 69.390625 
Q 13.765625 71.78125 18.9375 73 
Q 24.125 74.21875 28.421875 74.21875 
Q 39.75 74.21875 46.484375 68.546875 
Q 53.21875 62.890625 53.21875 53.421875 
Q 53.21875 48.921875 51.53125 44.890625 
Q 49.859375 40.875 45.40625 35.40625 
Q 44.1875 33.984375 37.640625 27.21875 
Q 31.109375 20.453125 19.1875 8.296875 
z
" id="DejaVuSans-50"/>
      </defs>
      <g transform="translate(439.913506 293.598437)scale(0.1 -0.1)">
       <use xlink:href="#DejaVuSans-48"/>
       <use x="63.623047" xlink:href="#DejaVuSans-46"/>
       <use x="95.410156" xlink:href="#DejaVuSans-48"/>
       <use x="159.033203" xlink:href="#DejaVuSans-50"/>
       <use x="222.65625" xlink:href="#DejaVuSans-48"/>
      </g>
     </g>
    </g>
    <g id="xtick_6">
     <g id="line2d_6">
      <g>
       <use style="stroke:#000000;stroke-width:0.8;" x="497.687586" xlink:href="#m7ffb6a33fe" y="279"/>
      </g>
     </g>
     <g id="text_6">
      <!-- 0.025 -->
      <g transform="translate(483.373524 293.598437)scale(0.1 -0.1)">
       <use xlink:href="#DejaVuSans-48"/>
       <use x="63.623047" xlink:href="#DejaVuSans-46"/>
       <use x="95.410156" xlink:href="#DejaVuSans-48"/>
       <use x="159.033203" xlink:href="#DejaVuSans-50"/>
       <use x="222.65625" xlink:href="#DejaVuSans-53"/>
      </g>
     </g>
    </g>
    <g id="xtick_7">
     <g id="line2d_7">
      <g>
       <use style="stroke:#000000;stroke-width:0.8;" x="541.147603" xlink:href="#m7ffb6a33fe" y="279"/>
      </g>
     </g>
     <g id="text_7">
      <!-- 0.030 -->
      <defs>
       <path d="M 40.578125 39.3125 
Q 47.65625 37.796875 51.625 33 
Q 55.609375 28.21875 55.609375 21.1875 
Q 55.609375 10.40625 48.1875 4.484375 
Q 40.765625 -1.421875 27.09375 -1.421875 
Q 22.515625 -1.421875 17.65625 -0.515625 
Q 12.796875 0.390625 7.625 2.203125 
L 7.625 11.71875 
Q 11.71875 9.328125 16.59375 8.109375 
Q 21.484375 6.890625 26.8125 6.890625 
Q 36.078125 6.890625 40.9375 10.546875 
Q 45.796875 14.203125 45.796875 21.1875 
Q 45.796875 27.640625 41.28125 31.265625 
Q 36.765625 34.90625 28.71875 34.90625 
L 20.21875 34.90625 
L 20.21875 43.015625 
L 29.109375 43.015625 
Q 36.375 43.015625 40.234375 45.921875 
Q 44.09375 48.828125 44.09375 54.296875 
Q 44.09375 59.90625 40.109375 62.90625 
Q 36.140625 65.921875 28.71875 65.921875 
Q 24.65625 65.921875 20.015625 65.03125 
Q 15.375 64.15625 9.8125 62.3125 
L 9.8125 71.09375 
Q 15.4375 72.65625 20.34375 73.4375 
Q 25.25 74.21875 29.59375 74.21875 
Q 40.828125 74.21875 47.359375 69.109375 
Q 53.90625 64.015625 53.90625 55.328125 
Q 53.90625 49.265625 50.4375 45.09375 
Q 46.96875 40.921875 40.578125 39.3125 
z
" id="DejaVuSans-51"/>
      </defs>
      <g transform="translate(526.833541 293.598437)scale(0.1 -0.1)">
       <use xlink:href="#DejaVuSans-48"/>
       <use x="63.623047" xlink:href="#DejaVuSans-46"/>
       <use x="95.410156" xlink:href="#DejaVuSans-48"/>
       <use x="159.033203" xlink:href="#DejaVuSans-51"/>
       <use x="222.65625" xlink:href="#DejaVuSans-48"/>
      </g>
     </g>
    </g>
   </g>
   <g id="matplotlib.axis_2">
    <g id="ytick_1">
     <g id="line2d_8">
      <defs>
       <path d="M 0 0 
L -3.5 0 
" id="m0dd75fe177" style="stroke:#000000;stroke-width:0.8;"/>
      </defs>
      <g>
       <use style="stroke:#000000;stroke-width:0.8;" x="280.3875" xlink:href="#m0dd75fe177" y="265.41"/>
      </g>
     </g>
     <g id="text_8">
      <!-- Quinolinic acid, bis(trimethylsilyl) ester RT14.717184 -->
      <defs>
       <path d="M 39.40625 66.21875 
Q 28.65625 66.21875 22.328125 58.203125 
Q 16.015625 50.203125 16.015625 36.375 
Q 16.015625 22.609375 22.328125 14.59375 
Q 28.65625 6.59375 39.40625 6.59375 
Q 50.140625 6.59375 56.421875 14.59375 
Q 62.703125 22.609375 62.703125 36.375 
Q 62.703125 50.203125 56.421875 58.203125 
Q 50.140625 66.21875 39.40625 66.21875 
z
M 53.21875 1.3125 
L 66.21875 -12.890625 
L 54.296875 -12.890625 
L 43.5 -1.21875 
Q 41.890625 -1.3125 41.03125 -1.359375 
Q 40.1875 -1.421875 39.40625 -1.421875 
Q 24.03125 -1.421875 14.8125 8.859375 
Q 5.609375 19.140625 5.609375 36.375 
Q 5.609375 53.65625 14.8125 63.9375 
Q 24.03125 74.21875 39.40625 74.21875 
Q 54.734375 74.21875 63.90625 63.9375 
Q 73.09375 53.65625 73.09375 36.375 
Q 73.09375 23.6875 67.984375 14.640625 
Q 62.890625 5.609375 53.21875 1.3125 
z
" id="DejaVuSans-81"/>
       <path d="M 8.5 21.578125 
L 8.5 54.6875 
L 17.484375 54.6875 
L 17.484375 21.921875 
Q 17.484375 14.15625 20.5 10.265625 
Q 23.53125 6.390625 29.59375 6.390625 
Q 36.859375 6.390625 41.078125 11.03125 
Q 45.3125 15.671875 45.3125 23.6875 
L 45.3125 54.6875 
L 54.296875 54.6875 
L 54.296875 0 
L 45.3125 0 
L 45.3125 8.40625 
Q 42.046875 3.421875 37.71875 1 
Q 33.40625 -1.421875 27.6875 -1.421875 
Q 18.265625 -1.421875 13.375 4.4375 
Q 8.5 10.296875 8.5 21.578125 
z
M 31.109375 56 
z
" id="DejaVuSans-117"/>
       <path d="M 9.421875 54.6875 
L 18.40625 54.6875 
L 18.40625 0 
L 9.421875 0 
z
M 9.421875 75.984375 
L 18.40625 75.984375 
L 18.40625 64.59375 
L 9.421875 64.59375 
z
" id="DejaVuSans-105"/>
       <path d="M 54.890625 33.015625 
L 54.890625 0 
L 45.90625 0 
L 45.90625 32.71875 
Q 45.90625 40.484375 42.875 44.328125 
Q 39.84375 48.1875 33.796875 48.1875 
Q 26.515625 48.1875 22.3125 43.546875 
Q 18.109375 38.921875 18.109375 30.90625 
L 18.109375 0 
L 9.078125 0 
L 9.078125 54.6875 
L 18.109375 54.6875 
L 18.109375 46.1875 
Q 21.34375 51.125 25.703125 53.5625 
Q 30.078125 56 35.796875 56 
Q 45.21875 56 50.046875 50.171875 
Q 54.890625 44.34375 54.890625 33.015625 
z
" id="DejaVuSans-110"/>
       <path d="M 30.609375 48.390625 
Q 23.390625 48.390625 19.1875 42.75 
Q 14.984375 37.109375 14.984375 27.296875 
Q 14.984375 17.484375 19.15625 11.84375 
Q 23.34375 6.203125 30.609375 6.203125 
Q 37.796875 6.203125 41.984375 11.859375 
Q 46.1875 17.53125 46.1875 27.296875 
Q 46.1875 37.015625 41.984375 42.703125 
Q 37.796875 48.390625 30.609375 48.390625 
z
M 30.609375 56 
Q 42.328125 56 49.015625 48.375 
Q 55.71875 40.765625 55.71875 27.296875 
Q 55.71875 13.875 49.015625 6.21875 
Q 42.328125 -1.421875 30.609375 -1.421875 
Q 18.84375 -1.421875 12.171875 6.21875 
Q 5.515625 13.875 5.515625 27.296875 
Q 5.515625 40.765625 12.171875 48.375 
Q 18.84375 56 30.609375 56 
z
" id="DejaVuSans-111"/>
       <path d="M 9.421875 75.984375 
L 18.40625 75.984375 
L 18.40625 0 
L 9.421875 0 
z
" id="DejaVuSans-108"/>
       <path d="M 48.78125 52.59375 
L 48.78125 44.1875 
Q 44.96875 46.296875 41.140625 47.34375 
Q 37.3125 48.390625 33.40625 48.390625 
Q 24.65625 48.390625 19.8125 42.84375 
Q 14.984375 37.3125 14.984375 27.296875 
Q 14.984375 17.28125 19.8125 11.734375 
Q 24.65625 6.203125 33.40625 6.203125 
Q 37.3125 6.203125 41.140625 7.25 
Q 44.96875 8.296875 48.78125 10.40625 
L 48.78125 2.09375 
Q 45.015625 0.34375 40.984375 -0.53125 
Q 36.96875 -1.421875 32.421875 -1.421875 
Q 20.0625 -1.421875 12.78125 6.34375 
Q 5.515625 14.109375 5.515625 27.296875 
Q 5.515625 40.671875 12.859375 48.328125 
Q 20.21875 56 33.015625 56 
Q 37.15625 56 41.109375 55.140625 
Q 45.0625 54.296875 48.78125 52.59375 
z
" id="DejaVuSans-99"/>
       <path id="DejaVuSans-32"/>
       <path d="M 34.28125 27.484375 
Q 23.390625 27.484375 19.1875 25 
Q 14.984375 22.515625 14.984375 16.5 
Q 14.984375 11.71875 18.140625 8.90625 
Q 21.296875 6.109375 26.703125 6.109375 
Q 34.1875 6.109375 38.703125 11.40625 
Q 43.21875 16.703125 43.21875 25.484375 
L 43.21875 27.484375 
z
M 52.203125 31.203125 
L 52.203125 0 
L 43.21875 0 
L 43.21875 8.296875 
Q 40.140625 3.328125 35.546875 0.953125 
Q 30.953125 -1.421875 24.3125 -1.421875 
Q 15.921875 -1.421875 10.953125 3.296875 
Q 6 8.015625 6 15.921875 
Q 6 25.140625 12.171875 29.828125 
Q 18.359375 34.515625 30.609375 34.515625 
L 43.21875 34.515625 
L 43.21875 35.40625 
Q 43.21875 41.609375 39.140625 45 
Q 35.0625 48.390625 27.6875 48.390625 
Q 23 48.390625 18.546875 47.265625 
Q 14.109375 46.140625 10.015625 43.890625 
L 10.015625 52.203125 
Q 14.9375 54.109375 19.578125 55.046875 
Q 24.21875 56 28.609375 56 
Q 40.484375 56 46.34375 49.84375 
Q 52.203125 43.703125 52.203125 31.203125 
z
" id="DejaVuSans-97"/>
       <path d="M 45.40625 46.390625 
L 45.40625 75.984375 
L 54.390625 75.984375 
L 54.390625 0 
L 45.40625 0 
L 45.40625 8.203125 
Q 42.578125 3.328125 38.25 0.953125 
Q 33.9375 -1.421875 27.875 -1.421875 
Q 17.96875 -1.421875 11.734375 6.484375 
Q 5.515625 14.40625 5.515625 27.296875 
Q 5.515625 40.1875 11.734375 48.09375 
Q 17.96875 56 27.875 56 
Q 33.9375 56 38.25 53.625 
Q 42.578125 51.265625 45.40625 46.390625 
z
M 14.796875 27.296875 
Q 14.796875 17.390625 18.875 11.75 
Q 22.953125 6.109375 30.078125 6.109375 
Q 37.203125 6.109375 41.296875 11.75 
Q 45.40625 17.390625 45.40625 27.296875 
Q 45.40625 37.203125 41.296875 42.84375 
Q 37.203125 48.484375 30.078125 48.484375 
Q 22.953125 48.484375 18.875 42.84375 
Q 14.796875 37.203125 14.796875 27.296875 
z
" id="DejaVuSans-100"/>
       <path d="M 11.71875 12.40625 
L 22.015625 12.40625 
L 22.015625 4 
L 14.015625 -11.625 
L 7.71875 -11.625 
L 11.71875 4 
z
" id="DejaVuSans-44"/>
       <path d="M 48.6875 27.296875 
Q 48.6875 37.203125 44.609375 42.84375 
Q 40.53125 48.484375 33.40625 48.484375 
Q 26.265625 48.484375 22.1875 42.84375 
Q 18.109375 37.203125 18.109375 27.296875 
Q 18.109375 17.390625 22.1875 11.75 
Q 26.265625 6.109375 33.40625 6.109375 
Q 40.53125 6.109375 44.609375 11.75 
Q 48.6875 17.390625 48.6875 27.296875 
z
M 18.109375 46.390625 
Q 20.953125 51.265625 25.265625 53.625 
Q 29.59375 56 35.59375 56 
Q 45.5625 56 51.78125 48.09375 
Q 58.015625 40.1875 58.015625 27.296875 
Q 58.015625 14.40625 51.78125 6.484375 
Q 45.5625 -1.421875 35.59375 -1.421875 
Q 29.59375 -1.421875 25.265625 0.953125 
Q 20.953125 3.328125 18.109375 8.203125 
L 18.109375 0 
L 9.078125 0 
L 9.078125 75.984375 
L 18.109375 75.984375 
z
" id="DejaVuSans-98"/>
       <path d="M 44.28125 53.078125 
L 44.28125 44.578125 
Q 40.484375 46.53125 36.375 47.5 
Q 32.28125 48.484375 27.875 48.484375 
Q 21.1875 48.484375 17.84375 46.4375 
Q 14.5 44.390625 14.5 40.28125 
Q 14.5 37.15625 16.890625 35.375 
Q 19.28125 33.59375 26.515625 31.984375 
L 29.59375 31.296875 
Q 39.15625 29.25 43.1875 25.515625 
Q 47.21875 21.78125 47.21875 15.09375 
Q 47.21875 7.46875 41.1875 3.015625 
Q 35.15625 -1.421875 24.609375 -1.421875 
Q 20.21875 -1.421875 15.453125 -0.5625 
Q 10.6875 0.296875 5.421875 2 
L 5.421875 11.28125 
Q 10.40625 8.6875 15.234375 7.390625 
Q 20.0625 6.109375 24.8125 6.109375 
Q 31.15625 6.109375 34.5625 8.28125 
Q 37.984375 10.453125 37.984375 14.40625 
Q 37.984375 18.0625 35.515625 20.015625 
Q 33.0625 21.96875 24.703125 23.78125 
L 21.578125 24.515625 
Q 13.234375 26.265625 9.515625 29.90625 
Q 5.8125 33.546875 5.8125 39.890625 
Q 5.8125 47.609375 11.28125 51.796875 
Q 16.75 56 26.8125 56 
Q 31.78125 56 36.171875 55.265625 
Q 40.578125 54.546875 44.28125 53.078125 
z
" id="DejaVuSans-115"/>
       <path d="M 31 75.875 
Q 24.46875 64.65625 21.28125 53.65625 
Q 18.109375 42.671875 18.109375 31.390625 
Q 18.109375 20.125 21.3125 9.0625 
Q 24.515625 -2 31 -13.1875 
L 23.1875 -13.1875 
Q 15.875 -1.703125 12.234375 9.375 
Q 8.59375 20.453125 8.59375 31.390625 
Q 8.59375 42.28125 12.203125 53.3125 
Q 15.828125 64.359375 23.1875 75.875 
z
" id="DejaVuSans-40"/>
       <path d="M 18.3125 70.21875 
L 18.3125 54.6875 
L 36.8125 54.6875 
L 36.8125 47.703125 
L 18.3125 47.703125 
L 18.3125 18.015625 
Q 18.3125 11.328125 20.140625 9.421875 
Q 21.96875 7.515625 27.59375 7.515625 
L 36.8125 7.515625 
L 36.8125 0 
L 27.59375 0 
Q 17.1875 0 13.234375 3.875 
Q 9.28125 7.765625 9.28125 18.015625 
L 9.28125 47.703125 
L 2.6875 47.703125 
L 2.6875 54.6875 
L 9.28125 54.6875 
L 9.28125 70.21875 
z
" id="DejaVuSans-116"/>
       <path d="M 41.109375 46.296875 
Q 39.59375 47.171875 37.8125 47.578125 
Q 36.03125 48 33.890625 48 
Q 26.265625 48 22.1875 43.046875 
Q 18.109375 38.09375 18.109375 28.8125 
L 18.109375 0 
L 9.078125 0 
L 9.078125 54.6875 
L 18.109375 54.6875 
L 18.109375 46.1875 
Q 20.953125 51.171875 25.484375 53.578125 
Q 30.03125 56 36.53125 56 
Q 37.453125 56 38.578125 55.875 
Q 39.703125 55.765625 41.0625 55.515625 
z
" id="DejaVuSans-114"/>
       <path d="M 52 44.1875 
Q 55.375 50.25 60.0625 53.125 
Q 64.75 56 71.09375 56 
Q 79.640625 56 84.28125 50.015625 
Q 88.921875 44.046875 88.921875 33.015625 
L 88.921875 0 
L 79.890625 0 
L 79.890625 32.71875 
Q 79.890625 40.578125 77.09375 44.375 
Q 74.3125 48.1875 68.609375 48.1875 
Q 61.625 48.1875 57.5625 43.546875 
Q 53.515625 38.921875 53.515625 30.90625 
L 53.515625 0 
L 44.484375 0 
L 44.484375 32.71875 
Q 44.484375 40.625 41.703125 44.40625 
Q 38.921875 48.1875 33.109375 48.1875 
Q 26.21875 48.1875 22.15625 43.53125 
Q 18.109375 38.875 18.109375 30.90625 
L 18.109375 0 
L 9.078125 0 
L 9.078125 54.6875 
L 18.109375 54.6875 
L 18.109375 46.1875 
Q 21.1875 51.21875 25.484375 53.609375 
Q 29.78125 56 35.6875 56 
Q 41.65625 56 45.828125 52.96875 
Q 50 49.953125 52 44.1875 
z
" id="DejaVuSans-109"/>
       <path d="M 56.203125 29.59375 
L 56.203125 25.203125 
L 14.890625 25.203125 
Q 15.484375 15.921875 20.484375 11.0625 
Q 25.484375 6.203125 34.421875 6.203125 
Q 39.59375 6.203125 44.453125 7.46875 
Q 49.3125 8.734375 54.109375 11.28125 
L 54.109375 2.78125 
Q 49.265625 0.734375 44.1875 -0.34375 
Q 39.109375 -1.421875 33.890625 -1.421875 
Q 20.796875 -1.421875 13.15625 6.1875 
Q 5.515625 13.8125 5.515625 26.8125 
Q 5.515625 40.234375 12.765625 48.109375 
Q 20.015625 56 32.328125 56 
Q 43.359375 56 49.78125 48.890625 
Q 56.203125 41.796875 56.203125 29.59375 
z
M 47.21875 32.234375 
Q 47.125 39.59375 43.09375 43.984375 
Q 39.0625 48.390625 32.421875 48.390625 
Q 24.90625 48.390625 20.390625 44.140625 
Q 15.875 39.890625 15.1875 32.171875 
z
" id="DejaVuSans-101"/>
       <path d="M 54.890625 33.015625 
L 54.890625 0 
L 45.90625 0 
L 45.90625 32.71875 
Q 45.90625 40.484375 42.875 44.328125 
Q 39.84375 48.1875 33.796875 48.1875 
Q 26.515625 48.1875 22.3125 43.546875 
Q 18.109375 38.921875 18.109375 30.90625 
L 18.109375 0 
L 9.078125 0 
L 9.078125 75.984375 
L 18.109375 75.984375 
L 18.109375 46.1875 
Q 21.34375 51.125 25.703125 53.5625 
Q 30.078125 56 35.796875 56 
Q 45.21875 56 50.046875 50.171875 
Q 54.890625 44.34375 54.890625 33.015625 
z
" id="DejaVuSans-104"/>
       <path d="M 32.171875 -5.078125 
Q 28.375 -14.84375 24.75 -17.8125 
Q 21.140625 -20.796875 15.09375 -20.796875 
L 7.90625 -20.796875 
L 7.90625 -13.28125 
L 13.1875 -13.28125 
Q 16.890625 -13.28125 18.9375 -11.515625 
Q 21 -9.765625 23.484375 -3.21875 
L 25.09375 0.875 
L 2.984375 54.6875 
L 12.5 54.6875 
L 29.59375 11.921875 
L 46.6875 54.6875 
L 56.203125 54.6875 
z
" id="DejaVuSans-121"/>
       <path d="M 8.015625 75.875 
L 15.828125 75.875 
Q 23.140625 64.359375 26.78125 53.3125 
Q 30.421875 42.28125 30.421875 31.390625 
Q 30.421875 20.453125 26.78125 9.375 
Q 23.140625 -1.703125 15.828125 -13.1875 
L 8.015625 -13.1875 
Q 14.5 -2 17.703125 9.0625 
Q 20.90625 20.125 20.90625 31.390625 
Q 20.90625 42.671875 17.703125 53.65625 
Q 14.5 64.65625 8.015625 75.875 
z
" id="DejaVuSans-41"/>
       <path d="M 44.390625 34.1875 
Q 47.5625 33.109375 50.5625 29.59375 
Q 53.5625 26.078125 56.59375 19.921875 
L 66.609375 0 
L 56 0 
L 46.6875 18.703125 
Q 43.0625 26.03125 39.671875 28.421875 
Q 36.28125 30.8125 30.421875 30.8125 
L 19.671875 30.8125 
L 19.671875 0 
L 9.8125 0 
L 9.8125 72.90625 
L 32.078125 72.90625 
Q 44.578125 72.90625 50.734375 67.671875 
Q 56.890625 62.453125 56.890625 51.90625 
Q 56.890625 45.015625 53.6875 40.46875 
Q 50.484375 35.9375 44.390625 34.1875 
z
M 19.671875 64.796875 
L 19.671875 38.921875 
L 32.078125 38.921875 
Q 39.203125 38.921875 42.84375 42.21875 
Q 46.484375 45.515625 46.484375 51.90625 
Q 46.484375 58.296875 42.84375 61.546875 
Q 39.203125 64.796875 32.078125 64.796875 
z
" id="DejaVuSans-82"/>
       <path d="M -0.296875 72.90625 
L 61.375 72.90625 
L 61.375 64.59375 
L 35.5 64.59375 
L 35.5 0 
L 25.59375 0 
L 25.59375 64.59375 
L -0.296875 64.59375 
z
" id="DejaVuSans-84"/>
       <path d="M 37.796875 64.3125 
L 12.890625 25.390625 
L 37.796875 25.390625 
z
M 35.203125 72.90625 
L 47.609375 72.90625 
L 47.609375 25.390625 
L 58.015625 25.390625 
L 58.015625 17.1875 
L 47.609375 17.1875 
L 47.609375 0 
L 37.796875 0 
L 37.796875 17.1875 
L 4.890625 17.1875 
L 4.890625 26.703125 
z
" id="DejaVuSans-52"/>
       <path d="M 8.203125 72.90625 
L 55.078125 72.90625 
L 55.078125 68.703125 
L 28.609375 0 
L 18.3125 0 
L 43.21875 64.59375 
L 8.203125 64.59375 
z
" id="DejaVuSans-55"/>
       <path d="M 31.78125 34.625 
Q 24.75 34.625 20.71875 30.859375 
Q 16.703125 27.09375 16.703125 20.515625 
Q 16.703125 13.921875 20.71875 10.15625 
Q 24.75 6.390625 31.78125 6.390625 
Q 38.8125 6.390625 42.859375 10.171875 
Q 46.921875 13.96875 46.921875 20.515625 
Q 46.921875 27.09375 42.890625 30.859375 
Q 38.875 34.625 31.78125 34.625 
z
M 21.921875 38.8125 
Q 15.578125 40.375 12.03125 44.71875 
Q 8.5 49.078125 8.5 55.328125 
Q 8.5 64.0625 14.71875 69.140625 
Q 20.953125 74.21875 31.78125 74.21875 
Q 42.671875 74.21875 48.875 69.140625 
Q 55.078125 64.0625 55.078125 55.328125 
Q 55.078125 49.078125 51.53125 44.71875 
Q 48 40.375 41.703125 38.8125 
Q 48.828125 37.15625 52.796875 32.3125 
Q 56.78125 27.484375 56.78125 20.515625 
Q 56.78125 9.90625 50.3125 4.234375 
Q 43.84375 -1.421875 31.78125 -1.421875 
Q 19.734375 -1.421875 13.25 4.234375 
Q 6.78125 9.90625 6.78125 20.515625 
Q 6.78125 27.484375 10.78125 32.3125 
Q 14.796875 37.15625 21.921875 38.8125 
z
M 18.3125 54.390625 
Q 18.3125 48.734375 21.84375 45.5625 
Q 25.390625 42.390625 31.78125 42.390625 
Q 38.140625 42.390625 41.71875 45.5625 
Q 45.3125 48.734375 45.3125 54.390625 
Q 45.3125 60.0625 41.71875 63.234375 
Q 38.140625 66.40625 31.78125 66.40625 
Q 25.390625 66.40625 21.84375 63.234375 
Q 18.3125 60.0625 18.3125 54.390625 
z
" id="DejaVuSans-56"/>
      </defs>
      <g transform="translate(7.2 269.209219)scale(0.1 -0.1)">
       <use xlink:href="#DejaVuSans-81"/>
       <use x="78.710938" xlink:href="#DejaVuSans-117"/>
       <use x="142.089844" xlink:href="#DejaVuSans-105"/>
       <use x="169.873047" xlink:href="#DejaVuSans-110"/>
       <use x="233.251953" xlink:href="#DejaVuSans-111"/>
       <use x="294.433594" xlink:href="#DejaVuSans-108"/>
       <use x="322.216797" xlink:href="#DejaVuSans-105"/>
       <use x="350" xlink:href="#DejaVuSans-110"/>
       <use x="413.378906" xlink:href="#DejaVuSans-105"/>
       <use x="441.162109" xlink:href="#DejaVuSans-99"/>
       <use x="496.142578" xlink:href="#DejaVuSans-32"/>
       <use x="527.929688" xlink:href="#DejaVuSans-97"/>
       <use x="589.208984" xlink:href="#DejaVuSans-99"/>
       <use x="644.189453" xlink:href="#DejaVuSans-105"/>
       <use x="671.972656" xlink:href="#DejaVuSans-100"/>
       <use x="735.449219" xlink:href="#DejaVuSans-44"/>
       <use x="767.236328" xlink:href="#DejaVuSans-32"/>
       <use x="799.023438" xlink:href="#DejaVuSans-98"/>
       <use x="862.5" xlink:href="#DejaVuSans-105"/>
       <use x="890.283203" xlink:href="#DejaVuSans-115"/>
       <use x="942.382812" xlink:href="#DejaVuSans-40"/>
       <use x="981.396484" xlink:href="#DejaVuSans-116"/>
       <use x="1020.605469" xlink:href="#DejaVuSans-114"/>
       <use x="1061.71875" xlink:href="#DejaVuSans-105"/>
       <use x="1089.501953" xlink:href="#DejaVuSans-109"/>
       <use x="1186.914062" xlink:href="#DejaVuSans-101"/>
       <use x="1248.4375" xlink:href="#DejaVuSans-116"/>
       <use x="1287.646484" xlink:href="#DejaVuSans-104"/>
       <use x="1351.025391" xlink:href="#DejaVuSans-121"/>
       <use x="1410.205078" xlink:href="#DejaVuSans-108"/>
       <use x="1437.988281" xlink:href="#DejaVuSans-115"/>
       <use x="1490.087891" xlink:href="#DejaVuSans-105"/>
       <use x="1517.871094" xlink:href="#DejaVuSans-108"/>
       <use x="1545.654297" xlink:href="#DejaVuSans-121"/>
       <use x="1604.833984" xlink:href="#DejaVuSans-108"/>
       <use x="1632.617188" xlink:href="#DejaVuSans-41"/>
       <use x="1671.630859" xlink:href="#DejaVuSans-32"/>
       <use x="1703.417969" xlink:href="#DejaVuSans-101"/>
       <use x="1764.941406" xlink:href="#DejaVuSans-115"/>
       <use x="1817.041016" xlink:href="#DejaVuSans-116"/>
       <use x="1856.25" xlink:href="#DejaVuSans-101"/>
       <use x="1917.773438" xlink:href="#DejaVuSans-114"/>
       <use x="1958.886719" xlink:href="#DejaVuSans-32"/>
       <use x="1990.673828" xlink:href="#DejaVuSans-82"/>
       <use x="2060.046875" xlink:href="#DejaVuSans-84"/>
       <use x="2121.130859" xlink:href="#DejaVuSans-49"/>
       <use x="2184.753906" xlink:href="#DejaVuSans-52"/>
       <use x="2248.376953" xlink:href="#DejaVuSans-46"/>
       <use x="2280.164062" xlink:href="#DejaVuSans-55"/>
       <use x="2343.787109" xlink:href="#DejaVuSans-49"/>
       <use x="2407.410156" xlink:href="#DejaVuSans-55"/>
       <use x="2471.033203" xlink:href="#DejaVuSans-49"/>
       <use x="2534.65625" xlink:href="#DejaVuSans-56"/>
       <use x="2598.279297" xlink:href="#DejaVuSans-52"/>
      </g>
     </g>
    </g>
    <g id="ytick_2">
     <g id="line2d_9">
      <g>
       <use style="stroke:#000000;stroke-width:0.8;" x="280.3875" xlink:href="#m0dd75fe177" y="238.23"/>
      </g>
     </g>
     <g id="text_9">
      <!-- L-Kynurenine RT18.688449 -->
      <defs>
       <path d="M 9.8125 72.90625 
L 19.671875 72.90625 
L 19.671875 8.296875 
L 55.171875 8.296875 
L 55.171875 0 
L 9.8125 0 
z
" id="DejaVuSans-76"/>
       <path d="M 4.890625 31.390625 
L 31.203125 31.390625 
L 31.203125 23.390625 
L 4.890625 23.390625 
z
" id="DejaVuSans-45"/>
       <path d="M 9.8125 72.90625 
L 19.671875 72.90625 
L 19.671875 42.09375 
L 52.390625 72.90625 
L 65.09375 72.90625 
L 28.90625 38.921875 
L 67.671875 0 
L 54.6875 0 
L 19.671875 35.109375 
L 19.671875 0 
L 9.8125 0 
z
" id="DejaVuSans-75"/>
       <path d="M 33.015625 40.375 
Q 26.375 40.375 22.484375 35.828125 
Q 18.609375 31.296875 18.609375 23.390625 
Q 18.609375 15.53125 22.484375 10.953125 
Q 26.375 6.390625 33.015625 6.390625 
Q 39.65625 6.390625 43.53125 10.953125 
Q 47.40625 15.53125 47.40625 23.390625 
Q 47.40625 31.296875 43.53125 35.828125 
Q 39.65625 40.375 33.015625 40.375 
z
M 52.59375 71.296875 
L 52.59375 62.3125 
Q 48.875 64.0625 45.09375 64.984375 
Q 41.3125 65.921875 37.59375 65.921875 
Q 27.828125 65.921875 22.671875 59.328125 
Q 17.53125 52.734375 16.796875 39.40625 
Q 19.671875 43.65625 24.015625 45.921875 
Q 28.375 48.1875 33.59375 48.1875 
Q 44.578125 48.1875 50.953125 41.515625 
Q 57.328125 34.859375 57.328125 23.390625 
Q 57.328125 12.15625 50.6875 5.359375 
Q 44.046875 -1.421875 33.015625 -1.421875 
Q 20.359375 -1.421875 13.671875 8.265625 
Q 6.984375 17.96875 6.984375 36.375 
Q 6.984375 53.65625 15.1875 63.9375 
Q 23.390625 74.21875 37.203125 74.21875 
Q 40.921875 74.21875 44.703125 73.484375 
Q 48.484375 72.75 52.59375 71.296875 
z
" id="DejaVuSans-54"/>
       <path d="M 10.984375 1.515625 
L 10.984375 10.5 
Q 14.703125 8.734375 18.5 7.8125 
Q 22.3125 6.890625 25.984375 6.890625 
Q 35.75 6.890625 40.890625 13.453125 
Q 46.046875 20.015625 46.78125 33.40625 
Q 43.953125 29.203125 39.59375 26.953125 
Q 35.25 24.703125 29.984375 24.703125 
Q 19.046875 24.703125 12.671875 31.3125 
Q 6.296875 37.9375 6.296875 49.421875 
Q 6.296875 60.640625 12.9375 67.421875 
Q 19.578125 74.21875 30.609375 74.21875 
Q 43.265625 74.21875 49.921875 64.515625 
Q 56.59375 54.828125 56.59375 36.375 
Q 56.59375 19.140625 48.40625 8.859375 
Q 40.234375 -1.421875 26.421875 -1.421875 
Q 22.703125 -1.421875 18.890625 -0.6875 
Q 15.09375 0.046875 10.984375 1.515625 
z
M 30.609375 32.421875 
Q 37.25 32.421875 41.125 36.953125 
Q 45.015625 41.5 45.015625 49.421875 
Q 45.015625 57.28125 41.125 61.84375 
Q 37.25 66.40625 30.609375 66.40625 
Q 23.96875 66.40625 20.09375 61.84375 
Q 16.21875 57.28125 16.21875 49.421875 
Q 16.21875 41.5 20.09375 36.953125 
Q 23.96875 32.421875 30.609375 32.421875 
z
" id="DejaVuSans-57"/>
      </defs>
      <g transform="translate(136.9 242.029219)scale(0.1 -0.1)">
       <use xlink:href="#DejaVuSans-76"/>
       <use x="55.697266" xlink:href="#DejaVuSans-45"/>
       <use x="91.78125" xlink:href="#DejaVuSans-75"/>
       <use x="157.248047" xlink:href="#DejaVuSans-121"/>
       <use x="216.427734" xlink:href="#DejaVuSans-110"/>
       <use x="279.806641" xlink:href="#DejaVuSans-117"/>
       <use x="343.185547" xlink:href="#DejaVuSans-114"/>
       <use x="384.267578" xlink:href="#DejaVuSans-101"/>
       <use x="445.791016" xlink:href="#DejaVuSans-110"/>
       <use x="509.169922" xlink:href="#DejaVuSans-105"/>
       <use x="536.953125" xlink:href="#DejaVuSans-110"/>
       <use x="600.332031" xlink:href="#DejaVuSans-101"/>
       <use x="661.855469" xlink:href="#DejaVuSans-32"/>
       <use x="693.642578" xlink:href="#DejaVuSans-82"/>
       <use x="763.015625" xlink:href="#DejaVuSans-84"/>
       <use x="824.099609" xlink:href="#DejaVuSans-49"/>
       <use x="887.722656" xlink:href="#DejaVuSans-56"/>
       <use x="951.345703" xlink:href="#DejaVuSans-46"/>
       <use x="983.132812" xlink:href="#DejaVuSans-54"/>
       <use x="1046.755859" xlink:href="#DejaVuSans-56"/>
       <use x="1110.378906" xlink:href="#DejaVuSans-56"/>
       <use x="1174.001953" xlink:href="#DejaVuSans-52"/>
       <use x="1237.625" xlink:href="#DejaVuSans-52"/>
       <use x="1301.248047" xlink:href="#DejaVuSans-57"/>
      </g>
     </g>
    </g>
    <g id="ytick_3">
     <g id="line2d_10">
      <g>
       <use style="stroke:#000000;stroke-width:0.8;" x="280.3875" xlink:href="#m0dd75fe177" y="211.05"/>
      </g>
     </g>
     <g id="text_10">
      <!-- 2-methylcitric Acid -->
      <defs>
       <path d="M 34.1875 63.1875 
L 20.796875 26.90625 
L 47.609375 26.90625 
z
M 28.609375 72.90625 
L 39.796875 72.90625 
L 67.578125 0 
L 57.328125 0 
L 50.6875 18.703125 
L 17.828125 18.703125 
L 11.1875 0 
L 0.78125 0 
z
" id="DejaVuSans-65"/>
      </defs>
      <g transform="translate(179.342187 214.849219)scale(0.1 -0.1)">
       <use xlink:href="#DejaVuSans-50"/>
       <use x="63.623047" xlink:href="#DejaVuSans-45"/>
       <use x="99.707031" xlink:href="#DejaVuSans-109"/>
       <use x="197.119141" xlink:href="#DejaVuSans-101"/>
       <use x="258.642578" xlink:href="#DejaVuSans-116"/>
       <use x="297.851562" xlink:href="#DejaVuSans-104"/>
       <use x="361.230469" xlink:href="#DejaVuSans-121"/>
       <use x="420.410156" xlink:href="#DejaVuSans-108"/>
       <use x="448.193359" xlink:href="#DejaVuSans-99"/>
       <use x="503.173828" xlink:href="#DejaVuSans-105"/>
       <use x="530.957031" xlink:href="#DejaVuSans-116"/>
       <use x="570.166016" xlink:href="#DejaVuSans-114"/>
       <use x="611.279297" xlink:href="#DejaVuSans-105"/>
       <use x="639.0625" xlink:href="#DejaVuSans-99"/>
       <use x="694.042969" xlink:href="#DejaVuSans-32"/>
       <use x="725.830078" xlink:href="#DejaVuSans-65"/>
       <use x="794.222656" xlink:href="#DejaVuSans-99"/>
       <use x="849.203125" xlink:href="#DejaVuSans-105"/>
       <use x="876.986328" xlink:href="#DejaVuSans-100"/>
      </g>
     </g>
    </g>
    <g id="ytick_4">
     <g id="line2d_11">
      <g>
       <use style="stroke:#000000;stroke-width:0.8;" x="280.3875" xlink:href="#m0dd75fe177" y="183.87"/>
      </g>
     </g>
     <g id="text_11">
      <!-- Glucosamine 1P -->
      <defs>
       <path d="M 59.515625 10.40625 
L 59.515625 29.984375 
L 43.40625 29.984375 
L 43.40625 38.09375 
L 69.28125 38.09375 
L 69.28125 6.78125 
Q 63.578125 2.734375 56.6875 0.65625 
Q 49.8125 -1.421875 42 -1.421875 
Q 24.90625 -1.421875 15.25 8.5625 
Q 5.609375 18.5625 5.609375 36.375 
Q 5.609375 54.25 15.25 64.234375 
Q 24.90625 74.21875 42 74.21875 
Q 49.125 74.21875 55.546875 72.453125 
Q 61.96875 70.703125 67.390625 67.28125 
L 67.390625 56.78125 
Q 61.921875 61.421875 55.765625 63.765625 
Q 49.609375 66.109375 42.828125 66.109375 
Q 29.4375 66.109375 22.71875 58.640625 
Q 16.015625 51.171875 16.015625 36.375 
Q 16.015625 21.625 22.71875 14.15625 
Q 29.4375 6.6875 42.828125 6.6875 
Q 48.046875 6.6875 52.140625 7.59375 
Q 56.25 8.5 59.515625 10.40625 
z
" id="DejaVuSans-71"/>
       <path d="M 19.671875 64.796875 
L 19.671875 37.40625 
L 32.078125 37.40625 
Q 38.96875 37.40625 42.71875 40.96875 
Q 46.484375 44.53125 46.484375 51.125 
Q 46.484375 57.671875 42.71875 61.234375 
Q 38.96875 64.796875 32.078125 64.796875 
z
M 9.8125 72.90625 
L 32.078125 72.90625 
Q 44.34375 72.90625 50.609375 67.359375 
Q 56.890625 61.8125 56.890625 51.125 
Q 56.890625 40.328125 50.609375 34.8125 
Q 44.34375 29.296875 32.078125 29.296875 
L 19.671875 29.296875 
L 19.671875 0 
L 9.8125 0 
z
" id="DejaVuSans-80"/>
      </defs>
      <g transform="translate(192.989062 187.669219)scale(0.1 -0.1)">
       <use xlink:href="#DejaVuSans-71"/>
       <use x="77.490234" xlink:href="#DejaVuSans-108"/>
       <use x="105.273438" xlink:href="#DejaVuSans-117"/>
       <use x="168.652344" xlink:href="#DejaVuSans-99"/>
       <use x="223.632812" xlink:href="#DejaVuSans-111"/>
       <use x="284.814453" xlink:href="#DejaVuSans-115"/>
       <use x="336.914062" xlink:href="#DejaVuSans-97"/>
       <use x="398.193359" xlink:href="#DejaVuSans-109"/>
       <use x="495.605469" xlink:href="#DejaVuSans-105"/>
       <use x="523.388672" xlink:href="#DejaVuSans-110"/>
       <use x="586.767578" xlink:href="#DejaVuSans-101"/>
       <use x="648.291016" xlink:href="#DejaVuSans-32"/>
       <use x="680.078125" xlink:href="#DejaVuSans-49"/>
       <use x="743.701172" xlink:href="#DejaVuSans-80"/>
      </g>
     </g>
    </g>
    <g id="ytick_5">
     <g id="line2d_12">
      <g>
       <use style="stroke:#000000;stroke-width:0.8;" x="280.3875" xlink:href="#m0dd75fe177" y="156.69"/>
      </g>
     </g>
     <g id="text_12">
      <!-- 3-hydroxyisovaleric acid 2TMS RT8.767878 -->
      <defs>
       <path d="M 54.890625 54.6875 
L 35.109375 28.078125 
L 55.90625 0 
L 45.3125 0 
L 29.390625 21.484375 
L 13.484375 0 
L 2.875 0 
L 24.125 28.609375 
L 4.6875 54.6875 
L 15.28125 54.6875 
L 29.78125 35.203125 
L 44.28125 54.6875 
z
" id="DejaVuSans-120"/>
       <path d="M 2.984375 54.6875 
L 12.5 54.6875 
L 29.59375 8.796875 
L 46.6875 54.6875 
L 56.203125 54.6875 
L 35.6875 0 
L 23.484375 0 
z
" id="DejaVuSans-118"/>
       <path d="M 9.8125 72.90625 
L 24.515625 72.90625 
L 43.109375 23.296875 
L 61.8125 72.90625 
L 76.515625 72.90625 
L 76.515625 0 
L 66.890625 0 
L 66.890625 64.015625 
L 48.09375 14.015625 
L 38.1875 14.015625 
L 19.390625 64.015625 
L 19.390625 0 
L 9.8125 0 
z
" id="DejaVuSans-77"/>
       <path d="M 53.515625 70.515625 
L 53.515625 60.890625 
Q 47.90625 63.578125 42.921875 64.890625 
Q 37.9375 66.21875 33.296875 66.21875 
Q 25.25 66.21875 20.875 63.09375 
Q 16.5 59.96875 16.5 54.203125 
Q 16.5 49.359375 19.40625 46.890625 
Q 22.3125 44.4375 30.421875 42.921875 
L 36.375 41.703125 
Q 47.40625 39.59375 52.65625 34.296875 
Q 57.90625 29 57.90625 20.125 
Q 57.90625 9.515625 50.796875 4.046875 
Q 43.703125 -1.421875 29.984375 -1.421875 
Q 24.8125 -1.421875 18.96875 -0.25 
Q 13.140625 0.921875 6.890625 3.21875 
L 6.890625 13.375 
Q 12.890625 10.015625 18.65625 8.296875 
Q 24.421875 6.59375 29.984375 6.59375 
Q 38.421875 6.59375 43.015625 9.90625 
Q 47.609375 13.234375 47.609375 19.390625 
Q 47.609375 24.75 44.3125 27.78125 
Q 41.015625 30.8125 33.5 32.328125 
L 27.484375 33.5 
Q 16.453125 35.6875 11.515625 40.375 
Q 6.59375 45.0625 6.59375 53.421875 
Q 6.59375 63.09375 13.40625 68.65625 
Q 20.21875 74.21875 32.171875 74.21875 
Q 37.3125 74.21875 42.625 73.28125 
Q 47.953125 72.359375 53.515625 70.515625 
z
" id="DejaVuSans-83"/>
      </defs>
      <g transform="translate(56.785937 160.489219)scale(0.1 -0.1)">
       <use xlink:href="#DejaVuSans-51"/>
       <use x="63.623047" xlink:href="#DejaVuSans-45"/>
       <use x="99.707031" xlink:href="#DejaVuSans-104"/>
       <use x="163.085938" xlink:href="#DejaVuSans-121"/>
       <use x="222.265625" xlink:href="#DejaVuSans-100"/>
       <use x="285.742188" xlink:href="#DejaVuSans-114"/>
       <use x="326.824219" xlink:href="#DejaVuSans-111"/>
       <use x="387.958984" xlink:href="#DejaVuSans-120"/>
       <use x="447.138672" xlink:href="#DejaVuSans-121"/>
       <use x="506.318359" xlink:href="#DejaVuSans-105"/>
       <use x="534.101562" xlink:href="#DejaVuSans-115"/>
       <use x="586.201172" xlink:href="#DejaVuSans-111"/>
       <use x="647.382812" xlink:href="#DejaVuSans-118"/>
       <use x="706.5625" xlink:href="#DejaVuSans-97"/>
       <use x="767.841797" xlink:href="#DejaVuSans-108"/>
       <use x="795.625" xlink:href="#DejaVuSans-101"/>
       <use x="857.148438" xlink:href="#DejaVuSans-114"/>
       <use x="898.261719" xlink:href="#DejaVuSans-105"/>
       <use x="926.044922" xlink:href="#DejaVuSans-99"/>
       <use x="981.025391" xlink:href="#DejaVuSans-32"/>
       <use x="1012.8125" xlink:href="#DejaVuSans-97"/>
       <use x="1074.091797" xlink:href="#DejaVuSans-99"/>
       <use x="1129.072266" xlink:href="#DejaVuSans-105"/>
       <use x="1156.855469" xlink:href="#DejaVuSans-100"/>
       <use x="1220.332031" xlink:href="#DejaVuSans-32"/>
       <use x="1252.119141" xlink:href="#DejaVuSans-50"/>
       <use x="1315.742188" xlink:href="#DejaVuSans-84"/>
       <use x="1376.826172" xlink:href="#DejaVuSans-77"/>
       <use x="1463.105469" xlink:href="#DejaVuSans-83"/>
       <use x="1526.582031" xlink:href="#DejaVuSans-32"/>
       <use x="1558.369141" xlink:href="#DejaVuSans-82"/>
       <use x="1627.742188" xlink:href="#DejaVuSans-84"/>
       <use x="1688.826172" xlink:href="#DejaVuSans-56"/>
       <use x="1752.449219" xlink:href="#DejaVuSans-46"/>
       <use x="1784.236328" xlink:href="#DejaVuSans-55"/>
       <use x="1847.859375" xlink:href="#DejaVuSans-54"/>
       <use x="1911.482422" xlink:href="#DejaVuSans-55"/>
       <use x="1975.105469" xlink:href="#DejaVuSans-56"/>
       <use x="2038.728516" xlink:href="#DejaVuSans-55"/>
       <use x="2102.351562" xlink:href="#DejaVuSans-56"/>
      </g>
     </g>
    </g>
    <g id="ytick_6">
     <g id="line2d_13">
      <g>
       <use style="stroke:#000000;stroke-width:0.8;" x="280.3875" xlink:href="#m0dd75fe177" y="129.51"/>
      </g>
     </g>
     <g id="text_13">
      <!-- Creatinine, 3TMS Derivative RT12.941566 -->
      <defs>
       <path d="M 64.40625 67.28125 
L 64.40625 56.890625 
Q 59.421875 61.53125 53.78125 63.8125 
Q 48.140625 66.109375 41.796875 66.109375 
Q 29.296875 66.109375 22.65625 58.46875 
Q 16.015625 50.828125 16.015625 36.375 
Q 16.015625 21.96875 22.65625 14.328125 
Q 29.296875 6.6875 41.796875 6.6875 
Q 48.140625 6.6875 53.78125 8.984375 
Q 59.421875 11.28125 64.40625 15.921875 
L 64.40625 5.609375 
Q 59.234375 2.09375 53.4375 0.328125 
Q 47.65625 -1.421875 41.21875 -1.421875 
Q 24.65625 -1.421875 15.125 8.703125 
Q 5.609375 18.84375 5.609375 36.375 
Q 5.609375 53.953125 15.125 64.078125 
Q 24.65625 74.21875 41.21875 74.21875 
Q 47.75 74.21875 53.53125 72.484375 
Q 59.328125 70.75 64.40625 67.28125 
z
" id="DejaVuSans-67"/>
       <path d="M 19.671875 64.796875 
L 19.671875 8.109375 
L 31.59375 8.109375 
Q 46.6875 8.109375 53.6875 14.9375 
Q 60.6875 21.78125 60.6875 36.53125 
Q 60.6875 51.171875 53.6875 57.984375 
Q 46.6875 64.796875 31.59375 64.796875 
z
M 9.8125 72.90625 
L 30.078125 72.90625 
Q 51.265625 72.90625 61.171875 64.09375 
Q 71.09375 55.28125 71.09375 36.53125 
Q 71.09375 17.671875 61.125 8.828125 
Q 51.171875 0 30.078125 0 
L 9.8125 0 
z
" id="DejaVuSans-68"/>
      </defs>
      <g transform="translate(62.86875 133.309219)scale(0.1 -0.1)">
       <use xlink:href="#DejaVuSans-67"/>
       <use x="69.824219" xlink:href="#DejaVuSans-114"/>
       <use x="110.90625" xlink:href="#DejaVuSans-101"/>
       <use x="172.429688" xlink:href="#DejaVuSans-97"/>
       <use x="233.708984" xlink:href="#DejaVuSans-116"/>
       <use x="272.917969" xlink:href="#DejaVuSans-105"/>
       <use x="300.701172" xlink:href="#DejaVuSans-110"/>
       <use x="364.080078" xlink:href="#DejaVuSans-105"/>
       <use x="391.863281" xlink:href="#DejaVuSans-110"/>
       <use x="455.242188" xlink:href="#DejaVuSans-101"/>
       <use x="516.765625" xlink:href="#DejaVuSans-44"/>
       <use x="548.552734" xlink:href="#DejaVuSans-32"/>
       <use x="580.339844" xlink:href="#DejaVuSans-51"/>
       <use x="643.962891" xlink:href="#DejaVuSans-84"/>
       <use x="705.046875" xlink:href="#DejaVuSans-77"/>
       <use x="791.326172" xlink:href="#DejaVuSans-83"/>
       <use x="854.802734" xlink:href="#DejaVuSans-32"/>
       <use x="886.589844" xlink:href="#DejaVuSans-68"/>
       <use x="963.591797" xlink:href="#DejaVuSans-101"/>
       <use x="1025.115234" xlink:href="#DejaVuSans-114"/>
       <use x="1066.228516" xlink:href="#DejaVuSans-105"/>
       <use x="1094.011719" xlink:href="#DejaVuSans-118"/>
       <use x="1153.191406" xlink:href="#DejaVuSans-97"/>
       <use x="1214.470703" xlink:href="#DejaVuSans-116"/>
       <use x="1253.679688" xlink:href="#DejaVuSans-105"/>
       <use x="1281.462891" xlink:href="#DejaVuSans-118"/>
       <use x="1340.642578" xlink:href="#DejaVuSans-101"/>
       <use x="1402.166016" xlink:href="#DejaVuSans-32"/>
       <use x="1433.953125" xlink:href="#DejaVuSans-82"/>
       <use x="1503.326172" xlink:href="#DejaVuSans-84"/>
       <use x="1564.410156" xlink:href="#DejaVuSans-49"/>
       <use x="1628.033203" xlink:href="#DejaVuSans-50"/>
       <use x="1691.65625" xlink:href="#DejaVuSans-46"/>
       <use x="1723.443359" xlink:href="#DejaVuSans-57"/>
       <use x="1787.066406" xlink:href="#DejaVuSans-52"/>
       <use x="1850.689453" xlink:href="#DejaVuSans-49"/>
       <use x="1914.3125" xlink:href="#DejaVuSans-53"/>
       <use x="1977.935547" xlink:href="#DejaVuSans-54"/>
       <use x="2041.558594" xlink:href="#DejaVuSans-54"/>
      </g>
     </g>
    </g>
    <g id="ytick_7">
     <g id="line2d_14">
      <g>
       <use style="stroke:#000000;stroke-width:0.8;" x="280.3875" xlink:href="#m0dd75fe177" y="102.33"/>
      </g>
     </g>
     <g id="text_14">
      <!-- Sugar RT14.499155 -->
      <defs>
       <path d="M 45.40625 27.984375 
Q 45.40625 37.75 41.375 43.109375 
Q 37.359375 48.484375 30.078125 48.484375 
Q 22.859375 48.484375 18.828125 43.109375 
Q 14.796875 37.75 14.796875 27.984375 
Q 14.796875 18.265625 18.828125 12.890625 
Q 22.859375 7.515625 30.078125 7.515625 
Q 37.359375 7.515625 41.375 12.890625 
Q 45.40625 18.265625 45.40625 27.984375 
z
M 54.390625 6.78125 
Q 54.390625 -7.171875 48.1875 -13.984375 
Q 42 -20.796875 29.203125 -20.796875 
Q 24.46875 -20.796875 20.265625 -20.09375 
Q 16.0625 -19.390625 12.109375 -17.921875 
L 12.109375 -9.1875 
Q 16.0625 -11.328125 19.921875 -12.34375 
Q 23.78125 -13.375 27.78125 -13.375 
Q 36.625 -13.375 41.015625 -8.765625 
Q 45.40625 -4.15625 45.40625 5.171875 
L 45.40625 9.625 
Q 42.625 4.78125 38.28125 2.390625 
Q 33.9375 0 27.875 0 
Q 17.828125 0 11.671875 7.65625 
Q 5.515625 15.328125 5.515625 27.984375 
Q 5.515625 40.671875 11.671875 48.328125 
Q 17.828125 56 27.875 56 
Q 33.9375 56 38.28125 53.609375 
Q 42.625 51.21875 45.40625 46.390625 
L 45.40625 54.6875 
L 54.390625 54.6875 
z
" id="DejaVuSans-103"/>
      </defs>
      <g transform="translate(173.8125 106.129219)scale(0.1 -0.1)">
       <use xlink:href="#DejaVuSans-83"/>
       <use x="63.476562" xlink:href="#DejaVuSans-117"/>
       <use x="126.855469" xlink:href="#DejaVuSans-103"/>
       <use x="190.332031" xlink:href="#DejaVuSans-97"/>
       <use x="251.611328" xlink:href="#DejaVuSans-114"/>
       <use x="292.724609" xlink:href="#DejaVuSans-32"/>
       <use x="324.511719" xlink:href="#DejaVuSans-82"/>
       <use x="393.884766" xlink:href="#DejaVuSans-84"/>
       <use x="454.96875" xlink:href="#DejaVuSans-49"/>
       <use x="518.591797" xlink:href="#DejaVuSans-52"/>
       <use x="582.214844" xlink:href="#DejaVuSans-46"/>
       <use x="614.001953" xlink:href="#DejaVuSans-52"/>
       <use x="677.625" xlink:href="#DejaVuSans-57"/>
       <use x="741.248047" xlink:href="#DejaVuSans-57"/>
       <use x="804.871094" xlink:href="#DejaVuSans-49"/>
       <use x="868.494141" xlink:href="#DejaVuSans-53"/>
       <use x="932.117188" xlink:href="#DejaVuSans-53"/>
      </g>
     </g>
    </g>
    <g id="ytick_8">
     <g id="line2d_15">
      <g>
       <use style="stroke:#000000;stroke-width:0.8;" x="280.3875" xlink:href="#m0dd75fe177" y="75.15"/>
      </g>
     </g>
     <g id="text_15">
      <!-- Glycerol, 3TMS derivative RT9.590666 -->
      <g transform="translate(81.157812 78.949219)scale(0.1 -0.1)">
       <use xlink:href="#DejaVuSans-71"/>
       <use x="77.490234" xlink:href="#DejaVuSans-108"/>
       <use x="105.273438" xlink:href="#DejaVuSans-121"/>
       <use x="164.453125" xlink:href="#DejaVuSans-99"/>
       <use x="219.433594" xlink:href="#DejaVuSans-101"/>
       <use x="280.957031" xlink:href="#DejaVuSans-114"/>
       <use x="322.039062" xlink:href="#DejaVuSans-111"/>
       <use x="383.220703" xlink:href="#DejaVuSans-108"/>
       <use x="411.003906" xlink:href="#DejaVuSans-44"/>
       <use x="442.791016" xlink:href="#DejaVuSans-32"/>
       <use x="474.578125" xlink:href="#DejaVuSans-51"/>
       <use x="538.201172" xlink:href="#DejaVuSans-84"/>
       <use x="599.285156" xlink:href="#DejaVuSans-77"/>
       <use x="685.564453" xlink:href="#DejaVuSans-83"/>
       <use x="749.041016" xlink:href="#DejaVuSans-32"/>
       <use x="780.828125" xlink:href="#DejaVuSans-100"/>
       <use x="844.304688" xlink:href="#DejaVuSans-101"/>
       <use x="905.828125" xlink:href="#DejaVuSans-114"/>
       <use x="946.941406" xlink:href="#DejaVuSans-105"/>
       <use x="974.724609" xlink:href="#DejaVuSans-118"/>
       <use x="1033.904297" xlink:href="#DejaVuSans-97"/>
       <use x="1095.183594" xlink:href="#DejaVuSans-116"/>
       <use x="1134.392578" xlink:href="#DejaVuSans-105"/>
       <use x="1162.175781" xlink:href="#DejaVuSans-118"/>
       <use x="1221.355469" xlink:href="#DejaVuSans-101"/>
       <use x="1282.878906" xlink:href="#DejaVuSans-32"/>
       <use x="1314.666016" xlink:href="#DejaVuSans-82"/>
       <use x="1384.039062" xlink:href="#DejaVuSans-84"/>
       <use x="1445.123047" xlink:href="#DejaVuSans-57"/>
       <use x="1508.746094" xlink:href="#DejaVuSans-46"/>
       <use x="1540.533203" xlink:href="#DejaVuSans-53"/>
       <use x="1604.15625" xlink:href="#DejaVuSans-57"/>
       <use x="1667.779297" xlink:href="#DejaVuSans-48"/>
       <use x="1731.402344" xlink:href="#DejaVuSans-54"/>
       <use x="1795.025391" xlink:href="#DejaVuSans-54"/>
       <use x="1858.648438" xlink:href="#DejaVuSans-54"/>
      </g>
     </g>
    </g>
    <g id="ytick_9">
     <g id="line2d_16">
      <g>
       <use style="stroke:#000000;stroke-width:0.8;" x="280.3875" xlink:href="#m0dd75fe177" y="47.97"/>
      </g>
     </g>
     <g id="text_16">
      <!-- Sugar RT16.252331 -->
      <g transform="translate(173.8125 51.769219)scale(0.1 -0.1)">
       <use xlink:href="#DejaVuSans-83"/>
       <use x="63.476562" xlink:href="#DejaVuSans-117"/>
       <use x="126.855469" xlink:href="#DejaVuSans-103"/>
       <use x="190.332031" xlink:href="#DejaVuSans-97"/>
       <use x="251.611328" xlink:href="#DejaVuSans-114"/>
       <use x="292.724609" xlink:href="#DejaVuSans-32"/>
       <use x="324.511719" xlink:href="#DejaVuSans-82"/>
       <use x="393.884766" xlink:href="#DejaVuSans-84"/>
       <use x="454.96875" xlink:href="#DejaVuSans-49"/>
       <use x="518.591797" xlink:href="#DejaVuSans-54"/>
       <use x="582.214844" xlink:href="#DejaVuSans-46"/>
       <use x="614.001953" xlink:href="#DejaVuSans-50"/>
       <use x="677.625" xlink:href="#DejaVuSans-53"/>
       <use x="741.248047" xlink:href="#DejaVuSans-50"/>
       <use x="804.871094" xlink:href="#DejaVuSans-51"/>
       <use x="868.494141" xlink:href="#DejaVuSans-51"/>
       <use x="932.117188" xlink:href="#DejaVuSans-49"/>
      </g>
     </g>
    </g>
    <g id="ytick_10">
     <g id="line2d_17">
      <g>
       <use style="stroke:#000000;stroke-width:0.8;" x="280.3875" xlink:href="#m0dd75fe177" y="20.79"/>
      </g>
     </g>
     <g id="text_17">
      <!-- Tryptophan, 3TMS derivative RT19.033344 -->
      <defs>
       <path d="M 18.109375 8.203125 
L 18.109375 -20.796875 
L 9.078125 -20.796875 
L 9.078125 54.6875 
L 18.109375 54.6875 
L 18.109375 46.390625 
Q 20.953125 51.265625 25.265625 53.625 
Q 29.59375 56 35.59375 56 
Q 45.5625 56 51.78125 48.09375 
Q 58.015625 40.1875 58.015625 27.296875 
Q 58.015625 14.40625 51.78125 6.484375 
Q 45.5625 -1.421875 35.59375 -1.421875 
Q 29.59375 -1.421875 25.265625 0.953125 
Q 20.953125 3.328125 18.109375 8.203125 
z
M 48.6875 27.296875 
Q 48.6875 37.203125 44.609375 42.84375 
Q 40.53125 48.484375 33.40625 48.484375 
Q 26.265625 48.484375 22.1875 42.84375 
Q 18.109375 37.203125 18.109375 27.296875 
Q 18.109375 17.390625 22.1875 11.75 
Q 26.265625 6.109375 33.40625 6.109375 
Q 40.53125 6.109375 44.609375 11.75 
Q 48.6875 17.390625 48.6875 27.296875 
z
" id="DejaVuSans-112"/>
      </defs>
      <g transform="translate(58.242187 24.589219)scale(0.1 -0.1)">
       <use xlink:href="#DejaVuSans-84"/>
       <use x="60.865234" xlink:href="#DejaVuSans-114"/>
       <use x="101.978516" xlink:href="#DejaVuSans-121"/>
       <use x="161.158203" xlink:href="#DejaVuSans-112"/>
       <use x="224.634766" xlink:href="#DejaVuSans-116"/>
       <use x="263.84375" xlink:href="#DejaVuSans-111"/>
       <use x="325.025391" xlink:href="#DejaVuSans-112"/>
       <use x="388.501953" xlink:href="#DejaVuSans-104"/>
       <use x="451.880859" xlink:href="#DejaVuSans-97"/>
       <use x="513.160156" xlink:href="#DejaVuSans-110"/>
       <use x="576.539062" xlink:href="#DejaVuSans-44"/>
       <use x="608.326172" xlink:href="#DejaVuSans-32"/>
       <use x="640.113281" xlink:href="#DejaVuSans-51"/>
       <use x="703.736328" xlink:href="#DejaVuSans-84"/>
       <use x="764.820312" xlink:href="#DejaVuSans-77"/>
       <use x="851.099609" xlink:href="#DejaVuSans-83"/>
       <use x="914.576172" xlink:href="#DejaVuSans-32"/>
       <use x="946.363281" xlink:href="#DejaVuSans-100"/>
       <use x="1009.839844" xlink:href="#DejaVuSans-101"/>
       <use x="1071.363281" xlink:href="#DejaVuSans-114"/>
       <use x="1112.476562" xlink:href="#DejaVuSans-105"/>
       <use x="1140.259766" xlink:href="#DejaVuSans-118"/>
       <use x="1199.439453" xlink:href="#DejaVuSans-97"/>
       <use x="1260.71875" xlink:href="#DejaVuSans-116"/>
       <use x="1299.927734" xlink:href="#DejaVuSans-105"/>
       <use x="1327.710938" xlink:href="#DejaVuSans-118"/>
       <use x="1386.890625" xlink:href="#DejaVuSans-101"/>
       <use x="1448.414062" xlink:href="#DejaVuSans-32"/>
       <use x="1480.201172" xlink:href="#DejaVuSans-82"/>
       <use x="1549.574219" xlink:href="#DejaVuSans-84"/>
       <use x="1610.658203" xlink:href="#DejaVuSans-49"/>
       <use x="1674.28125" xlink:href="#DejaVuSans-57"/>
       <use x="1737.904297" xlink:href="#DejaVuSans-46"/>
       <use x="1769.691406" xlink:href="#DejaVuSans-48"/>
       <use x="1833.314453" xlink:href="#DejaVuSans-51"/>
       <use x="1896.9375" xlink:href="#DejaVuSans-51"/>
       <use x="1960.560547" xlink:href="#DejaVuSans-51"/>
       <use x="2024.183594" xlink:href="#DejaVuSans-52"/>
       <use x="2087.806641" xlink:href="#DejaVuSans-52"/>
      </g>
     </g>
    </g>
   </g>
   <g id="patch_13">
    <path d="M 280.3875 279 
L 280.3875 7.2 
" style="fill:none;stroke:#000000;stroke-linecap:square;stroke-linejoin:miter;stroke-width:0.8;"/>
   </g>
   <g id="patch_14">
    <path d="M 559.3875 279 
L 559.3875 7.2 
" style="fill:none;stroke:#000000;stroke-linecap:square;stroke-linejoin:miter;stroke-width:0.8;"/>
   </g>
   <g id="patch_15">
    <path d="M 280.3875 279 
L 559.3875 279 
" style="fill:none;stroke:#000000;stroke-linecap:square;stroke-linejoin:miter;stroke-width:0.8;"/>
   </g>
   <g id="patch_16">
    <path d="M 280.3875 7.2 
L 559.3875 7.2 
" style="fill:none;stroke:#000000;stroke-linecap:square;stroke-linejoin:miter;stroke-width:0.8;"/>
   </g>
  </g>
 </g>
 <defs>
  <clipPath id="p96f212ba1b">
   <rect height="271.8" width="279" x="280.3875" y="7.2"/>
  </clipPath>
 </defs>
</svg>
