<?xml version="1.0" encoding="utf-8" standalone="no"?>
<!DOCTYPE svg PUBLIC "-//W3C//DTD SVG 1.1//EN"
  "http://www.w3.org/Graphics/SVG/1.1/DTD/svg11.dtd">
<!-- Created with matplotlib (https://matplotlib.org/) -->
<svg height="302.878125pt" version="1.1" viewBox="0 0 719.0875 302.878125" width="719.0875pt" xmlns="http://www.w3.org/2000/svg" xmlns:xlink="http://www.w3.org/1999/xlink">
 <defs>
  <style type="text/css">
*{stroke-linecap:butt;stroke-linejoin:round;}
  </style>
 </defs>
 <g id="figure_1">
  <g id="patch_1">
   <path d="M 0 302.878125 
L 719.0875 302.878125 
L 719.0875 0 
L 0 0 
z
" style="fill:#ffffff;"/>
  </g>
  <g id="axes_1">
   <g id="patch_2">
    <path d="M 432.8875 279 
L 711.8875 279 
L 711.8875 7.2 
L 432.8875 7.2 
z
" style="fill:#ffffff;"/>
   </g>
   <g id="patch_3">
    <path clip-path="url(#pa96431527d)" d="M 432.8875 272.205 
L 698.601786 272.205 
L 698.601786 258.615 
L 432.8875 258.615 
z
" style="fill:#1f77b4;"/>
   </g>
   <g id="patch_4">
    <path clip-path="url(#pa96431527d)" d="M 432.8875 245.025 
L 590.662158 245.025 
L 590.662158 231.435 
L 432.8875 231.435 
z
" style="fill:#1f77b4;"/>
   </g>
   <g id="patch_5">
    <path clip-path="url(#pa96431527d)" d="M 432.8875 217.845 
L 579.503584 217.845 
L 579.503584 204.255 
L 432.8875 204.255 
z
" style="fill:#1f77b4;"/>
   </g>
   <g id="patch_6">
    <path clip-path="url(#pa96431527d)" d="M 432.8875 190.665 
L 562.764031 190.665 
L 562.764031 177.075 
L 432.8875 177.075 
z
" style="fill:#1f77b4;"/>
   </g>
   <g id="patch_7">
    <path clip-path="url(#pa96431527d)" d="M 432.8875 163.485 
L 551.58607 163.485 
L 551.58607 149.895 
L 432.8875 149.895 
z
" style="fill:#1f77b4;"/>
   </g>
   <g id="patch_8">
    <path clip-path="url(#pa96431527d)" d="M 432.8875 136.305 
L 548.352055 136.305 
L 548.352055 122.715 
L 432.8875 122.715 
z
" style="fill:#1f77b4;"/>
   </g>
   <g id="patch_9">
    <path clip-path="url(#pa96431527d)" d="M 432.8875 109.125 
L 548.311996 109.125 
L 548.311996 95.535 
L 432.8875 95.535 
z
" style="fill:#1f77b4;"/>
   </g>
   <g id="patch_10">
    <path clip-path="url(#pa96431527d)" d="M 432.8875 81.945 
L 544.267536 81.945 
L 544.267536 68.355 
L 432.8875 68.355 
z
" style="fill:#1f77b4;"/>
   </g>
   <g id="patch_11">
    <path clip-path="url(#pa96431527d)" d="M 432.8875 54.765 
L 543.542692 54.765 
L 543.542692 41.175 
L 432.8875 41.175 
z
" style="fill:#1f77b4;"/>
   </g>
   <g id="patch_12">
    <path clip-path="url(#pa96431527d)" d="M 432.8875 27.585 
L 542.044883 27.585 
L 542.044883 13.995 
L 432.8875 13.995 
z
" style="fill:#1f77b4;"/>
   </g>
   <g id="matplotlib.axis_1">
    <g id="xtick_1">
     <g id="line2d_1">
      <defs>
       <path d="M 0 0 
L 0 3.5 
" id="m0cf3db0a0f" style="stroke:#000000;stroke-width:0.8;"/>
      </defs>
      <g>
       <use style="stroke:#000000;stroke-width:0.8;" x="432.8875" xlink:href="#m0cf3db0a0f" y="279"/>
      </g>
     </g>
     <g id="text_1">
      <!-- 0.000 -->
      <defs>
       <path d="M 31.78125 66.40625 
Q 24.171875 66.40625 20.328125 58.90625 
Q 16.5 51.421875 16.5 36.375 
Q 16.5 21.390625 20.328125 13.890625 
Q 24.171875 6.390625 31.78125 6.390625 
Q 39.453125 6.390625 43.28125 13.890625 
Q 47.125 21.390625 47.125 36.375 
Q 47.125 51.421875 43.28125 58.90625 
Q 39.453125 66.40625 31.78125 66.40625 
z
M 31.78125 74.21875 
Q 44.046875 74.21875 50.515625 64.515625 
Q 56.984375 54.828125 56.984375 36.375 
Q 56.984375 17.96875 50.515625 8.265625 
Q 44.046875 -1.421875 31.78125 -1.421875 
Q 19.53125 -1.421875 13.0625 8.265625 
Q 6.59375 17.96875 6.59375 36.375 
Q 6.59375 54.828125 13.0625 64.515625 
Q 19.53125 74.21875 31.78125 74.21875 
z
" id="DejaVuSans-48"/>
       <path d="M 10.6875 12.40625 
L 21 12.40625 
L 21 0 
L 10.6875 0 
z
" id="DejaVuSans-46"/>
      </defs>
      <g transform="translate(418.573437 293.598437)scale(0.1 -0.1)">
       <use xlink:href="#DejaVuSans-48"/>
       <use x="63.623047" xlink:href="#DejaVuSans-46"/>
       <use x="95.410156" xlink:href="#DejaVuSans-48"/>
       <use x="159.033203" xlink:href="#DejaVuSans-48"/>
       <use x="222.65625" xlink:href="#DejaVuSans-48"/>
      </g>
     </g>
    </g>
    <g id="xtick_2">
     <g id="line2d_2">
      <g>
       <use style="stroke:#000000;stroke-width:0.8;" x="492.717739" xlink:href="#m0cf3db0a0f" y="279"/>
      </g>
     </g>
     <g id="text_2">
      <!-- 0.005 -->
      <defs>
       <path d="M 10.796875 72.90625 
L 49.515625 72.90625 
L 49.515625 64.59375 
L 19.828125 64.59375 
L 19.828125 46.734375 
Q 21.96875 47.46875 24.109375 47.828125 
Q 26.265625 48.1875 28.421875 48.1875 
Q 40.625 48.1875 47.75 41.5 
Q 54.890625 34.8125 54.890625 23.390625 
Q 54.890625 11.625 47.5625 5.09375 
Q 40.234375 -1.421875 26.90625 -1.421875 
Q 22.3125 -1.421875 17.546875 -0.640625 
Q 12.796875 0.140625 7.71875 1.703125 
L 7.71875 11.625 
Q 12.109375 9.234375 16.796875 8.0625 
Q 21.484375 6.890625 26.703125 6.890625 
Q 35.15625 6.890625 40.078125 11.328125 
Q 45.015625 15.765625 45.015625 23.390625 
Q 45.015625 31 40.078125 35.4375 
Q 35.15625 39.890625 26.703125 39.890625 
Q 22.75 39.890625 18.8125 39.015625 
Q 14.890625 38.140625 10.796875 36.28125 
z
" id="DejaVuSans-53"/>
      </defs>
      <g transform="translate(478.403677 293.598437)scale(0.1 -0.1)">
       <use xlink:href="#DejaVuSans-48"/>
       <use x="63.623047" xlink:href="#DejaVuSans-46"/>
       <use x="95.410156" xlink:href="#DejaVuSans-48"/>
       <use x="159.033203" xlink:href="#DejaVuSans-48"/>
       <use x="222.65625" xlink:href="#DejaVuSans-53"/>
      </g>
     </g>
    </g>
    <g id="xtick_3">
     <g id="line2d_3">
      <g>
       <use style="stroke:#000000;stroke-width:0.8;" x="552.547978" xlink:href="#m0cf3db0a0f" y="279"/>
      </g>
     </g>
     <g id="text_3">
      <!-- 0.010 -->
      <defs>
       <path d="M 12.40625 8.296875 
L 28.515625 8.296875 
L 28.515625 63.921875 
L 10.984375 60.40625 
L 10.984375 69.390625 
L 28.421875 72.90625 
L 38.28125 72.90625 
L 38.28125 8.296875 
L 54.390625 8.296875 
L 54.390625 0 
L 12.40625 0 
z
" id="DejaVuSans-49"/>
      </defs>
      <g transform="translate(538.233916 293.598437)scale(0.1 -0.1)">
       <use xlink:href="#DejaVuSans-48"/>
       <use x="63.623047" xlink:href="#DejaVuSans-46"/>
       <use x="95.410156" xlink:href="#DejaVuSans-48"/>
       <use x="159.033203" xlink:href="#DejaVuSans-49"/>
       <use x="222.65625" xlink:href="#DejaVuSans-48"/>
      </g>
     </g>
    </g>
    <g id="xtick_4">
     <g id="line2d_4">
      <g>
       <use style="stroke:#000000;stroke-width:0.8;" x="612.378218" xlink:href="#m0cf3db0a0f" y="279"/>
      </g>
     </g>
     <g id="text_4">
      <!-- 0.015 -->
      <g transform="translate(598.064155 293.598437)scale(0.1 -0.1)">
       <use xlink:href="#DejaVuSans-48"/>
       <use x="63.623047" xlink:href="#DejaVuSans-46"/>
       <use x="95.410156" xlink:href="#DejaVuSans-48"/>
       <use x="159.033203" xlink:href="#DejaVuSans-49"/>
       <use x="222.65625" xlink:href="#DejaVuSans-53"/>
      </g>
     </g>
    </g>
    <g id="xtick_5">
     <g id="line2d_5">
      <g>
       <use style="stroke:#000000;stroke-width:0.8;" x="672.208457" xlink:href="#m0cf3db0a0f" y="279"/>
      </g>
     </g>
     <g id="text_5">
      <!-- 0.020 -->
      <defs>
       <path d="M 19.1875 8.296875 
L 53.609375 8.296875 
L 53.609375 0 
L 7.328125 0 
L 7.328125 8.296875 
Q 12.9375 14.109375 22.625 23.890625 
Q 32.328125 33.6875 34.8125 36.53125 
Q 39.546875 41.84375 41.421875 45.53125 
Q 43.3125 49.21875 43.3125 52.78125 
Q 43.3125 58.59375 39.234375 62.25 
Q 35.15625 65.921875 28.609375 65.921875 
Q 23.96875 65.921875 18.8125 64.3125 
Q 13.671875 62.703125 7.8125 59.421875 
L 7.8125 69.390625 
Q 13.765625 71.78125 18.9375 73 
Q 24.125 74.21875 28.421875 74.21875 
Q 39.75 74.21875 46.484375 68.546875 
Q 53.21875 62.890625 53.21875 53.421875 
Q 53.21875 48.921875 51.53125 44.890625 
Q 49.859375 40.875 45.40625 35.40625 
Q 44.1875 33.984375 37.640625 27.21875 
Q 31.109375 20.453125 19.1875 8.296875 
z
" id="DejaVuSans-50"/>
      </defs>
      <g transform="translate(657.894394 293.598437)scale(0.1 -0.1)">
       <use xlink:href="#DejaVuSans-48"/>
       <use x="63.623047" xlink:href="#DejaVuSans-46"/>
       <use x="95.410156" xlink:href="#DejaVuSans-48"/>
       <use x="159.033203" xlink:href="#DejaVuSans-50"/>
       <use x="222.65625" xlink:href="#DejaVuSans-48"/>
      </g>
     </g>
    </g>
   </g>
   <g id="matplotlib.axis_2">
    <g id="ytick_1">
     <g id="line2d_6">
      <defs>
       <path d="M 0 0 
L -3.5 0 
" id="m9d43d5dc13" style="stroke:#000000;stroke-width:0.8;"/>
      </defs>
      <g>
       <use style="stroke:#000000;stroke-width:0.8;" x="432.8875" xlink:href="#m9d43d5dc13" y="265.41"/>
      </g>
     </g>
     <g id="text_6">
      <!-- P24821-4;P24821;J3QSU6;E9PC84;P24821-2;F5H7V9;P24821-3;P24821-5;P24821-6 -->
      <defs>
       <path d="M 19.671875 64.796875 
L 19.671875 37.40625 
L 32.078125 37.40625 
Q 38.96875 37.40625 42.71875 40.96875 
Q 46.484375 44.53125 46.484375 51.125 
Q 46.484375 57.671875 42.71875 61.234375 
Q 38.96875 64.796875 32.078125 64.796875 
z
M 9.8125 72.90625 
L 32.078125 72.90625 
Q 44.34375 72.90625 50.609375 67.359375 
Q 56.890625 61.8125 56.890625 51.125 
Q 56.890625 40.328125 50.609375 34.8125 
Q 44.34375 29.296875 32.078125 29.296875 
L 19.671875 29.296875 
L 19.671875 0 
L 9.8125 0 
z
" id="DejaVuSans-80"/>
       <path d="M 37.796875 64.3125 
L 12.890625 25.390625 
L 37.796875 25.390625 
z
M 35.203125 72.90625 
L 47.609375 72.90625 
L 47.609375 25.390625 
L 58.015625 25.390625 
L 58.015625 17.1875 
L 47.609375 17.1875 
L 47.609375 0 
L 37.796875 0 
L 37.796875 17.1875 
L 4.890625 17.1875 
L 4.890625 26.703125 
z
" id="DejaVuSans-52"/>
       <path d="M 31.78125 34.625 
Q 24.75 34.625 20.71875 30.859375 
Q 16.703125 27.09375 16.703125 20.515625 
Q 16.703125 13.921875 20.71875 10.15625 
Q 24.75 6.390625 31.78125 6.390625 
Q 38.8125 6.390625 42.859375 10.171875 
Q 46.921875 13.96875 46.921875 20.515625 
Q 46.921875 27.09375 42.890625 30.859375 
Q 38.875 34.625 31.78125 34.625 
z
M 21.921875 38.8125 
Q 15.578125 40.375 12.03125 44.71875 
Q 8.5 49.078125 8.5 55.328125 
Q 8.5 64.0625 14.71875 69.140625 
Q 20.953125 74.21875 31.78125 74.21875 
Q 42.671875 74.21875 48.875 69.140625 
Q 55.078125 64.0625 55.078125 55.328125 
Q 55.078125 49.078125 51.53125 44.71875 
Q 48 40.375 41.703125 38.8125 
Q 48.828125 37.15625 52.796875 32.3125 
Q 56.78125 27.484375 56.78125 20.515625 
Q 56.78125 9.90625 50.3125 4.234375 
Q 43.84375 -1.421875 31.78125 -1.421875 
Q 19.734375 -1.421875 13.25 4.234375 
Q 6.78125 9.90625 6.78125 20.515625 
Q 6.78125 27.484375 10.78125 32.3125 
Q 14.796875 37.15625 21.921875 38.8125 
z
M 18.3125 54.390625 
Q 18.3125 48.734375 21.84375 45.5625 
Q 25.390625 42.390625 31.78125 42.390625 
Q 38.140625 42.390625 41.71875 45.5625 
Q 45.3125 48.734375 45.3125 54.390625 
Q 45.3125 60.0625 41.71875 63.234375 
Q 38.140625 66.40625 31.78125 66.40625 
Q 25.390625 66.40625 21.84375 63.234375 
Q 18.3125 60.0625 18.3125 54.390625 
z
" id="DejaVuSans-56"/>
       <path d="M 4.890625 31.390625 
L 31.203125 31.390625 
L 31.203125 23.390625 
L 4.890625 23.390625 
z
" id="DejaVuSans-45"/>
       <path d="M 11.71875 51.703125 
L 22.015625 51.703125 
L 22.015625 39.3125 
L 11.71875 39.3125 
z
M 11.71875 12.40625 
L 22.015625 12.40625 
L 22.015625 4 
L 14.015625 -11.625 
L 7.71875 -11.625 
L 11.71875 4 
z
" id="DejaVuSans-59"/>
       <path d="M 9.8125 72.90625 
L 19.671875 72.90625 
L 19.671875 5.078125 
Q 19.671875 -8.109375 14.671875 -14.0625 
Q 9.671875 -20.015625 -1.421875 -20.015625 
L -5.171875 -20.015625 
L -5.171875 -11.71875 
L -2.09375 -11.71875 
Q 4.4375 -11.71875 7.125 -8.046875 
Q 9.8125 -4.390625 9.8125 5.078125 
z
" id="DejaVuSans-74"/>
       <path d="M 40.578125 39.3125 
Q 47.65625 37.796875 51.625 33 
Q 55.609375 28.21875 55.609375 21.1875 
Q 55.609375 10.40625 48.1875 4.484375 
Q 40.765625 -1.421875 27.09375 -1.421875 
Q 22.515625 -1.421875 17.65625 -0.515625 
Q 12.796875 0.390625 7.625 2.203125 
L 7.625 11.71875 
Q 11.71875 9.328125 16.59375 8.109375 
Q 21.484375 6.890625 26.8125 6.890625 
Q 36.078125 6.890625 40.9375 10.546875 
Q 45.796875 14.203125 45.796875 21.1875 
Q 45.796875 27.640625 41.28125 31.265625 
Q 36.765625 34.90625 28.71875 34.90625 
L 20.21875 34.90625 
L 20.21875 43.015625 
L 29.109375 43.015625 
Q 36.375 43.015625 40.234375 45.921875 
Q 44.09375 48.828125 44.09375 54.296875 
Q 44.09375 59.90625 40.109375 62.90625 
Q 36.140625 65.921875 28.71875 65.921875 
Q 24.65625 65.921875 20.015625 65.03125 
Q 15.375 64.15625 9.8125 62.3125 
L 9.8125 71.09375 
Q 15.4375 72.65625 20.34375 73.4375 
Q 25.25 74.21875 29.59375 74.21875 
Q 40.828125 74.21875 47.359375 69.109375 
Q 53.90625 64.015625 53.90625 55.328125 
Q 53.90625 49.265625 50.4375 45.09375 
Q 46.96875 40.921875 40.578125 39.3125 
z
" id="DejaVuSans-51"/>
       <path d="M 39.40625 66.21875 
Q 28.65625 66.21875 22.328125 58.203125 
Q 16.015625 50.203125 16.015625 36.375 
Q 16.015625 22.609375 22.328125 14.59375 
Q 28.65625 6.59375 39.40625 6.59375 
Q 50.140625 6.59375 56.421875 14.59375 
Q 62.703125 22.609375 62.703125 36.375 
Q 62.703125 50.203125 56.421875 58.203125 
Q 50.140625 66.21875 39.40625 66.21875 
z
M 53.21875 1.3125 
L 66.21875 -12.890625 
L 54.296875 -12.890625 
L 43.5 -1.21875 
Q 41.890625 -1.3125 41.03125 -1.359375 
Q 40.1875 -1.421875 39.40625 -1.421875 
Q 24.03125 -1.421875 14.8125 8.859375 
Q 5.609375 19.140625 5.609375 36.375 
Q 5.609375 53.65625 14.8125 63.9375 
Q 24.03125 74.21875 39.40625 74.21875 
Q 54.734375 74.21875 63.90625 63.9375 
Q 73.09375 53.65625 73.09375 36.375 
Q 73.09375 23.6875 67.984375 14.640625 
Q 62.890625 5.609375 53.21875 1.3125 
z
" id="DejaVuSans-81"/>
       <path d="M 53.515625 70.515625 
L 53.515625 60.890625 
Q 47.90625 63.578125 42.921875 64.890625 
Q 37.9375 66.21875 33.296875 66.21875 
Q 25.25 66.21875 20.875 63.09375 
Q 16.5 59.96875 16.5 54.203125 
Q 16.5 49.359375 19.40625 46.890625 
Q 22.3125 44.4375 30.421875 42.921875 
L 36.375 41.703125 
Q 47.40625 39.59375 52.65625 34.296875 
Q 57.90625 29 57.90625 20.125 
Q 57.90625 9.515625 50.796875 4.046875 
Q 43.703125 -1.421875 29.984375 -1.421875 
Q 24.8125 -1.421875 18.96875 -0.25 
Q 13.140625 0.921875 6.890625 3.21875 
L 6.890625 13.375 
Q 12.890625 10.015625 18.65625 8.296875 
Q 24.421875 6.59375 29.984375 6.59375 
Q 38.421875 6.59375 43.015625 9.90625 
Q 47.609375 13.234375 47.609375 19.390625 
Q 47.609375 24.75 44.3125 27.78125 
Q 41.015625 30.8125 33.5 32.328125 
L 27.484375 33.5 
Q 16.453125 35.6875 11.515625 40.375 
Q 6.59375 45.0625 6.59375 53.421875 
Q 6.59375 63.09375 13.40625 68.65625 
Q 20.21875 74.21875 32.171875 74.21875 
Q 37.3125 74.21875 42.625 73.28125 
Q 47.953125 72.359375 53.515625 70.515625 
z
" id="DejaVuSans-83"/>
       <path d="M 8.6875 72.90625 
L 18.609375 72.90625 
L 18.609375 28.609375 
Q 18.609375 16.890625 22.84375 11.734375 
Q 27.09375 6.59375 36.625 6.59375 
Q 46.09375 6.59375 50.34375 11.734375 
Q 54.59375 16.890625 54.59375 28.609375 
L 54.59375 72.90625 
L 64.5 72.90625 
L 64.5 27.390625 
Q 64.5 13.140625 57.4375 5.859375 
Q 50.390625 -1.421875 36.625 -1.421875 
Q 22.796875 -1.421875 15.734375 5.859375 
Q 8.6875 13.140625 8.6875 27.390625 
z
" id="DejaVuSans-85"/>
       <path d="M 33.015625 40.375 
Q 26.375 40.375 22.484375 35.828125 
Q 18.609375 31.296875 18.609375 23.390625 
Q 18.609375 15.53125 22.484375 10.953125 
Q 26.375 6.390625 33.015625 6.390625 
Q 39.65625 6.390625 43.53125 10.953125 
Q 47.40625 15.53125 47.40625 23.390625 
Q 47.40625 31.296875 43.53125 35.828125 
Q 39.65625 40.375 33.015625 40.375 
z
M 52.59375 71.296875 
L 52.59375 62.3125 
Q 48.875 64.0625 45.09375 64.984375 
Q 41.3125 65.921875 37.59375 65.921875 
Q 27.828125 65.921875 22.671875 59.328125 
Q 17.53125 52.734375 16.796875 39.40625 
Q 19.671875 43.65625 24.015625 45.921875 
Q 28.375 48.1875 33.59375 48.1875 
Q 44.578125 48.1875 50.953125 41.515625 
Q 57.328125 34.859375 57.328125 23.390625 
Q 57.328125 12.15625 50.6875 5.359375 
Q 44.046875 -1.421875 33.015625 -1.421875 
Q 20.359375 -1.421875 13.671875 8.265625 
Q 6.984375 17.96875 6.984375 36.375 
Q 6.984375 53.65625 15.1875 63.9375 
Q 23.390625 74.21875 37.203125 74.21875 
Q 40.921875 74.21875 44.703125 73.484375 
Q 48.484375 72.75 52.59375 71.296875 
z
" id="DejaVuSans-54"/>
       <path d="M 9.8125 72.90625 
L 55.90625 72.90625 
L 55.90625 64.59375 
L 19.671875 64.59375 
L 19.671875 43.015625 
L 54.390625 43.015625 
L 54.390625 34.71875 
L 19.671875 34.71875 
L 19.671875 8.296875 
L 56.78125 8.296875 
L 56.78125 0 
L 9.8125 0 
z
" id="DejaVuSans-69"/>
       <path d="M 10.984375 1.515625 
L 10.984375 10.5 
Q 14.703125 8.734375 18.5 7.8125 
Q 22.3125 6.890625 25.984375 6.890625 
Q 35.75 6.890625 40.890625 13.453125 
Q 46.046875 20.015625 46.78125 33.40625 
Q 43.953125 29.203125 39.59375 26.953125 
Q 35.25 24.703125 29.984375 24.703125 
Q 19.046875 24.703125 12.671875 31.3125 
Q 6.296875 37.9375 6.296875 49.421875 
Q 6.296875 60.640625 12.9375 67.421875 
Q 19.578125 74.21875 30.609375 74.21875 
Q 43.265625 74.21875 49.921875 64.515625 
Q 56.59375 54.828125 56.59375 36.375 
Q 56.59375 19.140625 48.40625 8.859375 
Q 40.234375 -1.421875 26.421875 -1.421875 
Q 22.703125 -1.421875 18.890625 -0.6875 
Q 15.09375 0.046875 10.984375 1.515625 
z
M 30.609375 32.421875 
Q 37.25 32.421875 41.125 36.953125 
Q 45.015625 41.5 45.015625 49.421875 
Q 45.015625 57.28125 41.125 61.84375 
Q 37.25 66.40625 30.609375 66.40625 
Q 23.96875 66.40625 20.09375 61.84375 
Q 16.21875 57.28125 16.21875 49.421875 
Q 16.21875 41.5 20.09375 36.953125 
Q 23.96875 32.421875 30.609375 32.421875 
z
" id="DejaVuSans-57"/>
       <path d="M 64.40625 67.28125 
L 64.40625 56.890625 
Q 59.421875 61.53125 53.78125 63.8125 
Q 48.140625 66.109375 41.796875 66.109375 
Q 29.296875 66.109375 22.65625 58.46875 
Q 16.015625 50.828125 16.015625 36.375 
Q 16.015625 21.96875 22.65625 14.328125 
Q 29.296875 6.6875 41.796875 6.6875 
Q 48.140625 6.6875 53.78125 8.984375 
Q 59.421875 11.28125 64.40625 15.921875 
L 64.40625 5.609375 
Q 59.234375 2.09375 53.4375 0.328125 
Q 47.65625 -1.421875 41.21875 -1.421875 
Q 24.65625 -1.421875 15.125 8.703125 
Q 5.609375 18.84375 5.609375 36.375 
Q 5.609375 53.953125 15.125 64.078125 
Q 24.65625 74.21875 41.21875 74.21875 
Q 47.75 74.21875 53.53125 72.484375 
Q 59.328125 70.75 64.40625 67.28125 
z
" id="DejaVuSans-67"/>
       <path d="M 9.8125 72.90625 
L 51.703125 72.90625 
L 51.703125 64.59375 
L 19.671875 64.59375 
L 19.671875 43.109375 
L 48.578125 43.109375 
L 48.578125 34.8125 
L 19.671875 34.8125 
L 19.671875 0 
L 9.8125 0 
z
" id="DejaVuSans-70"/>
       <path d="M 9.8125 72.90625 
L 19.671875 72.90625 
L 19.671875 43.015625 
L 55.515625 43.015625 
L 55.515625 72.90625 
L 65.375 72.90625 
L 65.375 0 
L 55.515625 0 
L 55.515625 34.71875 
L 19.671875 34.71875 
L 19.671875 0 
L 9.8125 0 
z
" id="DejaVuSans-72"/>
       <path d="M 8.203125 72.90625 
L 55.078125 72.90625 
L 55.078125 68.703125 
L 28.609375 0 
L 18.3125 0 
L 43.21875 64.59375 
L 8.203125 64.59375 
z
" id="DejaVuSans-55"/>
       <path d="M 28.609375 0 
L 0.78125 72.90625 
L 11.078125 72.90625 
L 34.1875 11.53125 
L 57.328125 72.90625 
L 67.578125 72.90625 
L 39.796875 0 
z
" id="DejaVuSans-86"/>
      </defs>
      <g transform="translate(7.2 269.209219)scale(0.1 -0.1)">
       <use xlink:href="#DejaVuSans-80"/>
       <use x="60.302734" xlink:href="#DejaVuSans-50"/>
       <use x="123.925781" xlink:href="#DejaVuSans-52"/>
       <use x="187.548828" xlink:href="#DejaVuSans-56"/>
       <use x="251.171875" xlink:href="#DejaVuSans-50"/>
       <use x="314.794922" xlink:href="#DejaVuSans-49"/>
       <use x="378.417969" xlink:href="#DejaVuSans-45"/>
       <use x="414.501953" xlink:href="#DejaVuSans-52"/>
       <use x="478.125" xlink:href="#DejaVuSans-59"/>
       <use x="511.816406" xlink:href="#DejaVuSans-80"/>
       <use x="572.119141" xlink:href="#DejaVuSans-50"/>
       <use x="635.742188" xlink:href="#DejaVuSans-52"/>
       <use x="699.365234" xlink:href="#DejaVuSans-56"/>
       <use x="762.988281" xlink:href="#DejaVuSans-50"/>
       <use x="826.611328" xlink:href="#DejaVuSans-49"/>
       <use x="890.234375" xlink:href="#DejaVuSans-59"/>
       <use x="923.925781" xlink:href="#DejaVuSans-74"/>
       <use x="953.417969" xlink:href="#DejaVuSans-51"/>
       <use x="1017.041016" xlink:href="#DejaVuSans-81"/>
       <use x="1095.751953" xlink:href="#DejaVuSans-83"/>
       <use x="1159.228516" xlink:href="#DejaVuSans-85"/>
       <use x="1232.421875" xlink:href="#DejaVuSans-54"/>
       <use x="1296.044922" xlink:href="#DejaVuSans-59"/>
       <use x="1329.736328" xlink:href="#DejaVuSans-69"/>
       <use x="1392.919922" xlink:href="#DejaVuSans-57"/>
       <use x="1456.542969" xlink:href="#DejaVuSans-80"/>
       <use x="1516.845703" xlink:href="#DejaVuSans-67"/>
       <use x="1586.669922" xlink:href="#DejaVuSans-56"/>
       <use x="1650.292969" xlink:href="#DejaVuSans-52"/>
       <use x="1713.916016" xlink:href="#DejaVuSans-59"/>
       <use x="1747.607422" xlink:href="#DejaVuSans-80"/>
       <use x="1807.910156" xlink:href="#DejaVuSans-50"/>
       <use x="1871.533203" xlink:href="#DejaVuSans-52"/>
       <use x="1935.15625" xlink:href="#DejaVuSans-56"/>
       <use x="1998.779297" xlink:href="#DejaVuSans-50"/>
       <use x="2062.402344" xlink:href="#DejaVuSans-49"/>
       <use x="2126.025391" xlink:href="#DejaVuSans-45"/>
       <use x="2162.109375" xlink:href="#DejaVuSans-50"/>
       <use x="2225.732422" xlink:href="#DejaVuSans-59"/>
       <use x="2259.423828" xlink:href="#DejaVuSans-70"/>
       <use x="2316.943359" xlink:href="#DejaVuSans-53"/>
       <use x="2380.566406" xlink:href="#DejaVuSans-72"/>
       <use x="2455.761719" xlink:href="#DejaVuSans-55"/>
       <use x="2519.384766" xlink:href="#DejaVuSans-86"/>
       <use x="2587.792969" xlink:href="#DejaVuSans-57"/>
       <use x="2651.416016" xlink:href="#DejaVuSans-59"/>
       <use x="2685.107422" xlink:href="#DejaVuSans-80"/>
       <use x="2745.410156" xlink:href="#DejaVuSans-50"/>
       <use x="2809.033203" xlink:href="#DejaVuSans-52"/>
       <use x="2872.65625" xlink:href="#DejaVuSans-56"/>
       <use x="2936.279297" xlink:href="#DejaVuSans-50"/>
       <use x="2999.902344" xlink:href="#DejaVuSans-49"/>
       <use x="3063.525391" xlink:href="#DejaVuSans-45"/>
       <use x="3099.609375" xlink:href="#DejaVuSans-51"/>
       <use x="3163.232422" xlink:href="#DejaVuSans-59"/>
       <use x="3196.923828" xlink:href="#DejaVuSans-80"/>
       <use x="3257.226562" xlink:href="#DejaVuSans-50"/>
       <use x="3320.849609" xlink:href="#DejaVuSans-52"/>
       <use x="3384.472656" xlink:href="#DejaVuSans-56"/>
       <use x="3448.095703" xlink:href="#DejaVuSans-50"/>
       <use x="3511.71875" xlink:href="#DejaVuSans-49"/>
       <use x="3575.341797" xlink:href="#DejaVuSans-45"/>
       <use x="3611.425781" xlink:href="#DejaVuSans-53"/>
       <use x="3675.048828" xlink:href="#DejaVuSans-59"/>
       <use x="3708.740234" xlink:href="#DejaVuSans-80"/>
       <use x="3769.042969" xlink:href="#DejaVuSans-50"/>
       <use x="3832.666016" xlink:href="#DejaVuSans-52"/>
       <use x="3896.289062" xlink:href="#DejaVuSans-56"/>
       <use x="3959.912109" xlink:href="#DejaVuSans-50"/>
       <use x="4023.535156" xlink:href="#DejaVuSans-49"/>
       <use x="4087.158203" xlink:href="#DejaVuSans-45"/>
       <use x="4123.242188" xlink:href="#DejaVuSans-54"/>
      </g>
     </g>
    </g>
    <g id="ytick_2">
     <g id="line2d_7">
      <g>
       <use style="stroke:#000000;stroke-width:0.8;" x="432.8875" xlink:href="#m9d43d5dc13" y="238.23"/>
      </g>
     </g>
     <g id="text_7">
      <!-- P05109 -->
      <g transform="translate(388.045312 242.029219)scale(0.1 -0.1)">
       <use xlink:href="#DejaVuSans-80"/>
       <use x="60.302734" xlink:href="#DejaVuSans-48"/>
       <use x="123.925781" xlink:href="#DejaVuSans-53"/>
       <use x="187.548828" xlink:href="#DejaVuSans-49"/>
       <use x="251.171875" xlink:href="#DejaVuSans-48"/>
       <use x="314.794922" xlink:href="#DejaVuSans-57"/>
      </g>
     </g>
    </g>
    <g id="ytick_3">
     <g id="line2d_8">
      <g>
       <use style="stroke:#000000;stroke-width:0.8;" x="432.8875" xlink:href="#m9d43d5dc13" y="211.05"/>
      </g>
     </g>
     <g id="text_8">
      <!-- P13796 -->
      <g transform="translate(388.045312 214.849219)scale(0.1 -0.1)">
       <use xlink:href="#DejaVuSans-80"/>
       <use x="60.302734" xlink:href="#DejaVuSans-49"/>
       <use x="123.925781" xlink:href="#DejaVuSans-51"/>
       <use x="187.548828" xlink:href="#DejaVuSans-55"/>
       <use x="251.171875" xlink:href="#DejaVuSans-57"/>
       <use x="314.794922" xlink:href="#DejaVuSans-54"/>
      </g>
     </g>
    </g>
    <g id="ytick_4">
     <g id="line2d_9">
      <g>
       <use style="stroke:#000000;stroke-width:0.8;" x="432.8875" xlink:href="#m9d43d5dc13" y="183.87"/>
      </g>
     </g>
     <g id="text_9">
      <!-- P06702 -->
      <g transform="translate(388.045312 187.669219)scale(0.1 -0.1)">
       <use xlink:href="#DejaVuSans-80"/>
       <use x="60.302734" xlink:href="#DejaVuSans-48"/>
       <use x="123.925781" xlink:href="#DejaVuSans-54"/>
       <use x="187.548828" xlink:href="#DejaVuSans-55"/>
       <use x="251.171875" xlink:href="#DejaVuSans-48"/>
       <use x="314.794922" xlink:href="#DejaVuSans-50"/>
      </g>
     </g>
    </g>
    <g id="ytick_5">
     <g id="line2d_10">
      <g>
       <use style="stroke:#000000;stroke-width:0.8;" x="432.8875" xlink:href="#m9d43d5dc13" y="156.69"/>
      </g>
     </g>
     <g id="text_10">
      <!-- G3V3A0 -->
      <defs>
       <path d="M 59.515625 10.40625 
L 59.515625 29.984375 
L 43.40625 29.984375 
L 43.40625 38.09375 
L 69.28125 38.09375 
L 69.28125 6.78125 
Q 63.578125 2.734375 56.6875 0.65625 
Q 49.8125 -1.421875 42 -1.421875 
Q 24.90625 -1.421875 15.25 8.5625 
Q 5.609375 18.5625 5.609375 36.375 
Q 5.609375 54.25 15.25 64.234375 
Q 24.90625 74.21875 42 74.21875 
Q 49.125 74.21875 55.546875 72.453125 
Q 61.96875 70.703125 67.390625 67.28125 
L 67.390625 56.78125 
Q 61.921875 61.421875 55.765625 63.765625 
Q 49.609375 66.109375 42.828125 66.109375 
Q 29.4375 66.109375 22.71875 58.640625 
Q 16.015625 51.171875 16.015625 36.375 
Q 16.015625 21.625 22.71875 14.15625 
Q 29.4375 6.6875 42.828125 6.6875 
Q 48.046875 6.6875 52.140625 7.59375 
Q 56.25 8.5 59.515625 10.40625 
z
" id="DejaVuSans-71"/>
       <path d="M 34.1875 63.1875 
L 20.796875 26.90625 
L 47.609375 26.90625 
z
M 28.609375 72.90625 
L 39.796875 72.90625 
L 67.578125 0 
L 57.328125 0 
L 50.6875 18.703125 
L 17.828125 18.703125 
L 11.1875 0 
L 0.78125 0 
z
" id="DejaVuSans-65"/>
      </defs>
      <g transform="translate(385.370312 160.489219)scale(0.1 -0.1)">
       <use xlink:href="#DejaVuSans-71"/>
       <use x="77.490234" xlink:href="#DejaVuSans-51"/>
       <use x="141.113281" xlink:href="#DejaVuSans-86"/>
       <use x="209.521484" xlink:href="#DejaVuSans-51"/>
       <use x="273.144531" xlink:href="#DejaVuSans-65"/>
       <use x="341.552734" xlink:href="#DejaVuSans-48"/>
      </g>
     </g>
    </g>
    <g id="ytick_6">
     <g id="line2d_11">
      <g>
       <use style="stroke:#000000;stroke-width:0.8;" x="432.8875" xlink:href="#m9d43d5dc13" y="129.51"/>
      </g>
     </g>
     <g id="text_11">
      <!-- P01011;G3V595 -->
      <g transform="translate(344.6375 133.309219)scale(0.1 -0.1)">
       <use xlink:href="#DejaVuSans-80"/>
       <use x="60.302734" xlink:href="#DejaVuSans-48"/>
       <use x="123.925781" xlink:href="#DejaVuSans-49"/>
       <use x="187.548828" xlink:href="#DejaVuSans-48"/>
       <use x="251.171875" xlink:href="#DejaVuSans-49"/>
       <use x="314.794922" xlink:href="#DejaVuSans-49"/>
       <use x="378.417969" xlink:href="#DejaVuSans-59"/>
       <use x="412.109375" xlink:href="#DejaVuSans-71"/>
       <use x="489.599609" xlink:href="#DejaVuSans-51"/>
       <use x="553.222656" xlink:href="#DejaVuSans-86"/>
       <use x="621.630859" xlink:href="#DejaVuSans-53"/>
       <use x="685.253906" xlink:href="#DejaVuSans-57"/>
       <use x="748.876953" xlink:href="#DejaVuSans-53"/>
      </g>
     </g>
    </g>
    <g id="ytick_7">
     <g id="line2d_12">
      <g>
       <use style="stroke:#000000;stroke-width:0.8;" x="432.8875" xlink:href="#m9d43d5dc13" y="102.33"/>
      </g>
     </g>
     <g id="text_12">
      <!-- P59666;P59665 -->
      <g transform="translate(346.834375 106.129219)scale(0.1 -0.1)">
       <use xlink:href="#DejaVuSans-80"/>
       <use x="60.302734" xlink:href="#DejaVuSans-53"/>
       <use x="123.925781" xlink:href="#DejaVuSans-57"/>
       <use x="187.548828" xlink:href="#DejaVuSans-54"/>
       <use x="251.171875" xlink:href="#DejaVuSans-54"/>
       <use x="314.794922" xlink:href="#DejaVuSans-54"/>
       <use x="378.417969" xlink:href="#DejaVuSans-59"/>
       <use x="412.109375" xlink:href="#DejaVuSans-80"/>
       <use x="472.412109" xlink:href="#DejaVuSans-53"/>
       <use x="536.035156" xlink:href="#DejaVuSans-57"/>
       <use x="599.658203" xlink:href="#DejaVuSans-54"/>
       <use x="663.28125" xlink:href="#DejaVuSans-54"/>
       <use x="726.904297" xlink:href="#DejaVuSans-53"/>
      </g>
     </g>
    </g>
    <g id="ytick_8">
     <g id="line2d_13">
      <g>
       <use style="stroke:#000000;stroke-width:0.8;" x="432.8875" xlink:href="#m9d43d5dc13" y="75.15"/>
      </g>
     </g>
     <g id="text_13">
      <!-- P05362 -->
      <g transform="translate(388.045312 78.949219)scale(0.1 -0.1)">
       <use xlink:href="#DejaVuSans-80"/>
       <use x="60.302734" xlink:href="#DejaVuSans-48"/>
       <use x="123.925781" xlink:href="#DejaVuSans-53"/>
       <use x="187.548828" xlink:href="#DejaVuSans-51"/>
       <use x="251.171875" xlink:href="#DejaVuSans-54"/>
       <use x="314.794922" xlink:href="#DejaVuSans-50"/>
      </g>
     </g>
    </g>
    <g id="ytick_9">
     <g id="line2d_14">
      <g>
       <use style="stroke:#000000;stroke-width:0.8;" x="432.8875" xlink:href="#m9d43d5dc13" y="47.97"/>
      </g>
     </g>
     <g id="text_14">
      <!-- P06396;A0A0A0MS51;A0A0A0MT01;P06396-4;P06396-3;CON__Q3SX14 -->
      <defs>
       <path d="M 9.8125 72.90625 
L 24.515625 72.90625 
L 43.109375 23.296875 
L 61.8125 72.90625 
L 76.515625 72.90625 
L 76.515625 0 
L 66.890625 0 
L 66.890625 64.015625 
L 48.09375 14.015625 
L 38.1875 14.015625 
L 19.390625 64.015625 
L 19.390625 0 
L 9.8125 0 
z
" id="DejaVuSans-77"/>
       <path d="M -0.296875 72.90625 
L 61.375 72.90625 
L 61.375 64.59375 
L 35.5 64.59375 
L 35.5 0 
L 25.59375 0 
L 25.59375 64.59375 
L -0.296875 64.59375 
z
" id="DejaVuSans-84"/>
       <path d="M 39.40625 66.21875 
Q 28.65625 66.21875 22.328125 58.203125 
Q 16.015625 50.203125 16.015625 36.375 
Q 16.015625 22.609375 22.328125 14.59375 
Q 28.65625 6.59375 39.40625 6.59375 
Q 50.140625 6.59375 56.421875 14.59375 
Q 62.703125 22.609375 62.703125 36.375 
Q 62.703125 50.203125 56.421875 58.203125 
Q 50.140625 66.21875 39.40625 66.21875 
z
M 39.40625 74.21875 
Q 54.734375 74.21875 63.90625 63.9375 
Q 73.09375 53.65625 73.09375 36.375 
Q 73.09375 19.140625 63.90625 8.859375 
Q 54.734375 -1.421875 39.40625 -1.421875 
Q 24.03125 -1.421875 14.8125 8.828125 
Q 5.609375 19.09375 5.609375 36.375 
Q 5.609375 53.65625 14.8125 63.9375 
Q 24.03125 74.21875 39.40625 74.21875 
z
" id="DejaVuSans-79"/>
       <path d="M 9.8125 72.90625 
L 23.09375 72.90625 
L 55.421875 11.921875 
L 55.421875 72.90625 
L 64.984375 72.90625 
L 64.984375 0 
L 51.703125 0 
L 19.390625 60.984375 
L 19.390625 0 
L 9.8125 0 
z
" id="DejaVuSans-78"/>
       <path d="M 50.984375 -16.609375 
L 50.984375 -23.578125 
L -0.984375 -23.578125 
L -0.984375 -16.609375 
z
" id="DejaVuSans-95"/>
       <path d="M 6.296875 72.90625 
L 16.890625 72.90625 
L 35.015625 45.796875 
L 53.21875 72.90625 
L 63.8125 72.90625 
L 40.375 37.890625 
L 65.375 0 
L 54.78125 0 
L 34.28125 31 
L 13.625 0 
L 2.984375 0 
L 29 38.921875 
z
" id="DejaVuSans-88"/>
      </defs>
      <g transform="translate(68.701562 51.680937)scale(0.1 -0.1)">
       <use xlink:href="#DejaVuSans-80"/>
       <use x="60.302734" xlink:href="#DejaVuSans-48"/>
       <use x="123.925781" xlink:href="#DejaVuSans-54"/>
       <use x="187.548828" xlink:href="#DejaVuSans-51"/>
       <use x="251.171875" xlink:href="#DejaVuSans-57"/>
       <use x="314.794922" xlink:href="#DejaVuSans-54"/>
       <use x="378.417969" xlink:href="#DejaVuSans-59"/>
       <use x="412.109375" xlink:href="#DejaVuSans-65"/>
       <use x="480.517578" xlink:href="#DejaVuSans-48"/>
       <use x="544.140625" xlink:href="#DejaVuSans-65"/>
       <use x="612.548828" xlink:href="#DejaVuSans-48"/>
       <use x="676.171875" xlink:href="#DejaVuSans-65"/>
       <use x="744.580078" xlink:href="#DejaVuSans-48"/>
       <use x="808.203125" xlink:href="#DejaVuSans-77"/>
       <use x="894.482422" xlink:href="#DejaVuSans-83"/>
       <use x="957.958984" xlink:href="#DejaVuSans-53"/>
       <use x="1021.582031" xlink:href="#DejaVuSans-49"/>
       <use x="1085.205078" xlink:href="#DejaVuSans-59"/>
       <use x="1118.896484" xlink:href="#DejaVuSans-65"/>
       <use x="1187.304688" xlink:href="#DejaVuSans-48"/>
       <use x="1250.927734" xlink:href="#DejaVuSans-65"/>
       <use x="1319.335938" xlink:href="#DejaVuSans-48"/>
       <use x="1382.958984" xlink:href="#DejaVuSans-65"/>
       <use x="1451.367188" xlink:href="#DejaVuSans-48"/>
       <use x="1514.990234" xlink:href="#DejaVuSans-77"/>
       <use x="1601.269531" xlink:href="#DejaVuSans-84"/>
       <use x="1662.353516" xlink:href="#DejaVuSans-48"/>
       <use x="1725.976562" xlink:href="#DejaVuSans-49"/>
       <use x="1789.599609" xlink:href="#DejaVuSans-59"/>
       <use x="1823.291016" xlink:href="#DejaVuSans-80"/>
       <use x="1883.59375" xlink:href="#DejaVuSans-48"/>
       <use x="1947.216797" xlink:href="#DejaVuSans-54"/>
       <use x="2010.839844" xlink:href="#DejaVuSans-51"/>
       <use x="2074.462891" xlink:href="#DejaVuSans-57"/>
       <use x="2138.085938" xlink:href="#DejaVuSans-54"/>
       <use x="2201.708984" xlink:href="#DejaVuSans-45"/>
       <use x="2237.792969" xlink:href="#DejaVuSans-52"/>
       <use x="2301.416016" xlink:href="#DejaVuSans-59"/>
       <use x="2335.107422" xlink:href="#DejaVuSans-80"/>
       <use x="2395.410156" xlink:href="#DejaVuSans-48"/>
       <use x="2459.033203" xlink:href="#DejaVuSans-54"/>
       <use x="2522.65625" xlink:href="#DejaVuSans-51"/>
       <use x="2586.279297" xlink:href="#DejaVuSans-57"/>
       <use x="2649.902344" xlink:href="#DejaVuSans-54"/>
       <use x="2713.525391" xlink:href="#DejaVuSans-45"/>
       <use x="2749.609375" xlink:href="#DejaVuSans-51"/>
       <use x="2813.232422" xlink:href="#DejaVuSans-59"/>
       <use x="2846.923828" xlink:href="#DejaVuSans-67"/>
       <use x="2916.748047" xlink:href="#DejaVuSans-79"/>
       <use x="2995.458984" xlink:href="#DejaVuSans-78"/>
       <use x="3070.263672" xlink:href="#DejaVuSans-95"/>
       <use x="3120.263672" xlink:href="#DejaVuSans-95"/>
       <use x="3170.263672" xlink:href="#DejaVuSans-81"/>
       <use x="3248.974609" xlink:href="#DejaVuSans-51"/>
       <use x="3312.597656" xlink:href="#DejaVuSans-83"/>
       <use x="3376.074219" xlink:href="#DejaVuSans-88"/>
       <use x="3444.580078" xlink:href="#DejaVuSans-49"/>
       <use x="3508.203125" xlink:href="#DejaVuSans-52"/>
      </g>
     </g>
    </g>
    <g id="ytick_10">
     <g id="line2d_15">
      <g>
       <use style="stroke:#000000;stroke-width:0.8;" x="432.8875" xlink:href="#m9d43d5dc13" y="20.79"/>
      </g>
     </g>
     <g id="text_15">
      <!-- O00391;O00391-2 -->
      <g transform="translate(333.179687 24.589219)scale(0.1 -0.1)">
       <use xlink:href="#DejaVuSans-79"/>
       <use x="78.710938" xlink:href="#DejaVuSans-48"/>
       <use x="142.333984" xlink:href="#DejaVuSans-48"/>
       <use x="205.957031" xlink:href="#DejaVuSans-51"/>
       <use x="269.580078" xlink:href="#DejaVuSans-57"/>
       <use x="333.203125" xlink:href="#DejaVuSans-49"/>
       <use x="396.826172" xlink:href="#DejaVuSans-59"/>
       <use x="430.517578" xlink:href="#DejaVuSans-79"/>
       <use x="509.228516" xlink:href="#DejaVuSans-48"/>
       <use x="572.851562" xlink:href="#DejaVuSans-48"/>
       <use x="636.474609" xlink:href="#DejaVuSans-51"/>
       <use x="700.097656" xlink:href="#DejaVuSans-57"/>
       <use x="763.720703" xlink:href="#DejaVuSans-49"/>
       <use x="827.34375" xlink:href="#DejaVuSans-45"/>
       <use x="863.427734" xlink:href="#DejaVuSans-50"/>
      </g>
     </g>
    </g>
   </g>
   <g id="patch_13">
    <path d="M 432.8875 279 
L 432.8875 7.2 
" style="fill:none;stroke:#000000;stroke-linecap:square;stroke-linejoin:miter;stroke-width:0.8;"/>
   </g>
   <g id="patch_14">
    <path d="M 711.8875 279 
L 711.8875 7.2 
" style="fill:none;stroke:#000000;stroke-linecap:square;stroke-linejoin:miter;stroke-width:0.8;"/>
   </g>
   <g id="patch_15">
    <path d="M 432.8875 279 
L 711.8875 279 
" style="fill:none;stroke:#000000;stroke-linecap:square;stroke-linejoin:miter;stroke-width:0.8;"/>
   </g>
   <g id="patch_16">
    <path d="M 432.8875 7.2 
L 711.8875 7.2 
" style="fill:none;stroke:#000000;stroke-linecap:square;stroke-linejoin:miter;stroke-width:0.8;"/>
   </g>
  </g>
 </g>
 <defs>
  <clipPath id="pa96431527d">
   <rect height="271.8" width="279" x="432.8875" y="7.2"/>
  </clipPath>
 </defs>
</svg>
