<?xml version="1.0" encoding="utf-8" standalone="no"?>
<!DOCTYPE svg PUBLIC "-//W3C//DTD SVG 1.1//EN"
  "http://www.w3.org/Graphics/SVG/1.1/DTD/svg11.dtd">
<!-- Created with matplotlib (https://matplotlib.org/) -->
<svg height="360pt" version="1.1" viewBox="0 0 360 360" width="360pt" xmlns="http://www.w3.org/2000/svg" xmlns:xlink="http://www.w3.org/1999/xlink">
 <defs>
  <style type="text/css">
*{stroke-linecap:butt;stroke-linejoin:round;}
  </style>
 </defs>
 <g id="figure_1">
  <g id="patch_1">
   <path d="M 0 360 
L 360 360 
L 360 0 
L 0 0 
z
" style="fill:#ffffff;"/>
  </g>
  <g id="axes_1">
   <g id="patch_2">
    <path d="M 45 315 
L 324 315 
L 324 43.2 
L 45 43.2 
z
" style="fill:#ffffff;"/>
   </g>
   <g id="PolyCollection_1">
    <defs>
     <path d="M 57.681818 -264.255969 
L 57.681818 -219.075633 
L 65.367769 -219.075633 
L 73.053719 -219.075633 
L 80.739669 -219.075633 
L 88.42562 -219.075633 
L 96.11157 -219.075633 
L 103.797521 -222.181781 
L 111.483471 -219.075633 
L 119.169421 -222.22775 
L 126.855372 -219.075633 
L 134.541322 -208.831254 
L 142.227273 -208.831254 
L 149.913223 -204.365756 
L 157.599174 -204.332922 
L 165.285124 -204.365756 
L 172.971074 -204.332922 
L 180.657025 -194.121377 
L 188.342975 -183.876999 
L 196.028926 -174.946002 
L 203.714876 -183.876999 
L 211.400826 -192.807996 
L 219.086777 -215.135487 
L 226.772727 -216.186193 
L 234.458678 -215.135487 
L 242.144628 -183.876999 
L 249.830579 -183.876999 
L 257.516529 -197.273494 
L 265.202479 -171.248832 
L 272.88843 -170.480504 
L 280.57438 -162.337536 
L 288.260331 -167.065711 
L 295.946281 -148.153012 
L 303.632231 -149.466394 
L 311.318182 -131.867077 
L 311.318182 -210.669989 
L 311.318182 -210.669989 
L 303.632231 -243.241859 
L 295.946281 -234.573539 
L 288.260331 -247.444681 
L 280.57438 -269.509497 
L 272.88843 -268.721468 
L 265.202479 -269.509497 
L 257.516529 -243.504536 
L 249.830579 -256.113002 
L 242.144628 -256.113002 
L 234.458678 -256.113002 
L 226.772727 -234.048186 
L 219.086777 -235.361568 
L 211.400826 -238.513685 
L 203.714876 -247.444681 
L 196.028926 -256.901031 
L 188.342975 -247.970034 
L 180.657025 -241.928478 
L 172.971074 -256.638354 
L 165.285124 -264.255969 
L 157.599174 -264.255969 
L 149.913223 -264.255969 
L 142.227273 -277.652464 
L 134.541322 -274.500348 
L 126.855372 -277.652464 
L 119.169421 -277.652464 
L 111.483471 -277.652464 
L 103.797521 -277.652464 
L 96.11157 -277.652464 
L 88.42562 -282.117963 
L 80.739669 -277.652464 
L 73.053719 -264.288804 
L 65.367769 -264.367607 
L 57.681818 -264.255969 
z
" id="m94bd109a0a" style="stroke:#1f77b4;stroke-opacity:0.2;"/>
    </defs>
    <g clip-path="url(#p5330de1604)">
     <use style="fill:#1f77b4;fill-opacity:0.2;stroke:#1f77b4;stroke-opacity:0.2;" x="0" xlink:href="#m94bd109a0a" y="360"/>
    </g>
   </g>
   <g id="PolyCollection_2">
    <defs>
     <path d="M 57.681818 -244.905476 
L 57.681818 -73.876889 
L 65.367769 -71.388969 
L 73.053719 -72.218276 
L 80.739669 -71.388969 
L 88.42562 -71.388969 
L 96.11157 -71.388969 
L 103.797521 -73.940682 
L 111.483471 -71.388969 
L 119.169421 -71.388969 
L 126.855372 -71.388969 
L 134.541322 -66.625771 
L 142.227273 -66.285542 
L 149.913223 -64.244171 
L 157.599174 -64.244171 
L 165.285124 -64.244171 
L 172.971074 -64.091069 
L 180.657025 -86.699249 
L 188.342975 -57.354545 
L 196.028926 -64.456814 
L 203.714876 -95.119903 
L 211.400826 -114.909858 
L 219.086777 -147.259912 
L 226.772727 -171.292413 
L 234.458678 -173.287389 
L 242.144628 -149.001457 
L 249.830579 -147.259912 
L 257.516529 -179.411501 
L 265.202479 -165.518839 
L 272.88843 -166.908105 
L 280.57438 -172.370898 
L 288.260331 -176.824991 
L 295.946281 -171.447062 
L 303.632231 -174.501385 
L 311.318182 -176.859787 
L 311.318182 -237.760679 
L 311.318182 -237.760679 
L 303.632231 -279.949006 
L 295.946281 -255.16388 
L 288.260331 -243.822931 
L 280.57438 -270.706134 
L 272.88843 -270.706134 
L 265.202479 -272.6908 
L 257.516529 -240.845932 
L 249.830579 -228.162564 
L 242.144628 -229.587464 
L 234.458678 -229.587464 
L 226.772727 -203.652777 
L 219.086777 -204.078063 
L 211.400826 -190.490189 
L 203.714876 -192.170067 
L 196.028926 -239.387396 
L 188.342975 -235.97448 
L 180.657025 -239.80205 
L 172.971074 -232.997481 
L 165.285124 -252.050274 
L 157.599174 -242.523877 
L 149.913223 -247.287076 
L 142.227273 -228.234283 
L 134.541322 -229.680253 
L 126.855372 -244.905476 
L 119.169421 -244.905476 
L 111.483471 -250.923267 
L 103.797521 -245.054326 
L 96.11157 -250.859474 
L 88.42562 -244.905476 
L 80.739669 -244.905476 
L 73.053719 -244.905476 
L 65.367769 -244.905476 
L 57.681818 -244.905476 
z
" id="m1f838281b6" style="stroke:#ff7f0e;stroke-opacity:0.2;"/>
    </defs>
    <g clip-path="url(#p5330de1604)">
     <use style="fill:#ff7f0e;fill-opacity:0.2;stroke:#ff7f0e;stroke-opacity:0.2;" x="0" xlink:href="#m1f838281b6" y="360"/>
    </g>
   </g>
   <g id="PolyCollection_3">
    <defs>
     <path d="M 57.681818 -304.445455 
L 57.681818 -168.694304 
L 65.367769 -168.694304 
L 73.053719 -168.694304 
L 80.739669 -218.707886 
L 88.42562 -218.707886 
L 96.11157 -218.707886 
L 103.797521 -218.707886 
L 111.483471 -218.707886 
L 119.169421 -218.707886 
L 126.855372 -218.707886 
L 134.541322 -168.694304 
L 142.227273 -168.694304 
L 149.913223 -161.549507 
L 157.599174 -161.549507 
L 165.285124 -161.489967 
L 172.971074 -161.549507 
L 180.657025 -161.489967 
L 188.342975 -143.687514 
L 196.028926 -143.687514 
L 203.714876 -161.549507 
L 211.400826 -184.004585 
L 219.086777 -187.747097 
L 226.772727 -194.551666 
L 234.458678 -194.551666 
L 242.144628 -164.951792 
L 249.830579 -164.951792 
L 257.516529 -186.499593 
L 265.202479 -144.499422 
L 272.88843 -144.499422 
L 280.57438 -144.499422 
L 288.260331 -159.956813 
L 295.946281 -148.359112 
L 303.632231 -152.556056 
L 311.318182 -137.733516 
L 311.318182 -239.059733 
L 311.318182 -239.059733 
L 303.632231 -250.13976 
L 295.946281 -250.859474 
L 288.260331 -272.6908 
L 280.57438 -295.514458 
L 272.88843 -295.514458 
L 265.202479 -295.514458 
L 257.516529 -273.824894 
L 249.830579 -284.031748 
L 242.144628 -284.031748 
L 234.458678 -292.537459 
L 226.772727 -292.537459 
L 219.086777 -292.537459 
L 211.400826 -273.824894 
L 203.714876 -256.813472 
L 196.028926 -258.004272 
L 188.342975 -258.004272 
L 180.657025 -222.280285 
L 172.971074 -266.339869 
L 165.285124 -261.69575 
L 157.599174 -266.339869 
L 149.913223 -268.721468 
L 142.227273 -304.445455 
L 134.541322 -304.445455 
L 126.855372 -304.445455 
L 119.169421 -304.445455 
L 111.483471 -304.445455 
L 103.797521 -304.445455 
L 96.11157 -304.445455 
L 88.42562 -304.445455 
L 80.739669 -304.445455 
L 73.053719 -304.445455 
L 65.367769 -304.445455 
L 57.681818 -304.445455 
z
" id="mc486d76105" style="stroke:#2ca02c;stroke-opacity:0.2;"/>
    </defs>
    <g clip-path="url(#p5330de1604)">
     <use style="fill:#2ca02c;fill-opacity:0.2;stroke:#2ca02c;stroke-opacity:0.2;" x="0" xlink:href="#mc486d76105" y="360"/>
    </g>
   </g>
   <g id="PolyCollection_4">
    <defs>
     <path d="M 57.681818 -285.392662 
L 57.681818 -165.574255 
L 65.367769 -169.618518 
L 73.053719 -169.618518 
L 80.739669 -165.320372 
L 88.42562 -162.833464 
L 96.11157 -159.907647 
L 103.797521 -165.320372 
L 111.483471 -159.907647 
L 119.169421 -171.453929 
L 126.855372 -165.320372 
L 134.541322 -150.797937 
L 142.227273 -157.813622 
L 149.913223 -187.696624 
L 157.599174 -177.756594 
L 165.285124 -178.773878 
L 172.971074 -180.165019 
L 180.657025 -170.78269 
L 188.342975 -163.239051 
L 196.028926 -178.311557 
L 203.714876 -173.802923 
L 211.400826 -228.332893 
L 219.086777 -242.671092 
L 226.772727 -244.501179 
L 234.458678 -237.617628 
L 242.144628 -218.805484 
L 249.830579 -218.238436 
L 257.516529 -222.362657 
L 265.202479 -236.262783 
L 272.88843 -236.267173 
L 280.57438 -236.267173 
L 288.260331 -233.494652 
L 295.946281 -229.284312 
L 303.632231 -231.167592 
L 311.318182 -220.591205 
L 311.318182 -282.874198 
L 311.318182 -282.874198 
L 303.632231 -282.311581 
L 295.946281 -284.286638 
L 288.260331 -285.034797 
L 280.57438 -290.944869 
L 272.88843 -290.944869 
L 265.202479 -290.944869 
L 257.516529 -288.837904 
L 249.830579 -289.789212 
L 242.144628 -289.789212 
L 234.458678 -288.586467 
L 226.772727 -286.317658 
L 219.086777 -280.842806 
L 211.400826 -251.170359 
L 203.714876 -256.060499 
L 196.028926 -282.299824 
L 188.342975 -280.260882 
L 180.657025 -275.666616 
L 172.971074 -282.50072 
L 165.285124 -270.736667 
L 157.599174 -273.27155 
L 149.913223 -276.041738 
L 142.227273 -272.992292 
L 134.541322 -275.002608 
L 126.855372 -283.842486 
L 119.169421 -283.842486 
L 111.483471 -282.794553 
L 103.797521 -284.952592 
L 96.11157 -283.842486 
L 88.42562 -284.952592 
L 80.739669 -281.964602 
L 73.053719 -283.780627 
L 65.367769 -282.168592 
L 57.681818 -285.392662 
z
" id="med22a1f7c3" style="stroke:#d62728;stroke-opacity:0.2;"/>
    </defs>
    <g clip-path="url(#p5330de1604)">
     <use style="fill:#d62728;fill-opacity:0.2;stroke:#d62728;stroke-opacity:0.2;" x="0" xlink:href="#med22a1f7c3" y="360"/>
    </g>
   </g>
   <g id="PolyCollection_5">
    <defs>
     <path d="M 57.681818 -288.114489 
L 57.681818 -177.625301 
L 65.367769 -182.388499 
L 73.053719 -177.625301 
L 80.739669 -167.503505 
L 88.42562 -165.121906 
L 96.11157 -163.038007 
L 103.797521 -165.121906 
L 111.483471 -163.038007 
L 119.169421 -163.038007 
L 126.855372 -165.069808 
L 134.541322 -161.130021 
L 142.227273 -161.3156 
L 149.913223 -190.778224 
L 157.599174 -185.674797 
L 165.285124 -185.674797 
L 172.971074 -191.860769 
L 180.657025 -180.885824 
L 188.342975 -185.096638 
L 196.028926 -195.742466 
L 203.714876 -176.768514 
L 211.400826 -231.983884 
L 219.086777 -226.299233 
L 226.772727 -235.735257 
L 234.458678 -233.379674 
L 242.144628 -209.665252 
L 249.830579 -209.665252 
L 257.516529 -222.138523 
L 265.202479 -230.383304 
L 272.88843 -230.392607 
L 280.57438 -230.392607 
L 288.260331 -217.297356 
L 295.946281 -198.562238 
L 303.632231 -203.851244 
L 311.318182 -186.065448 
L 311.318182 -259.336833 
L 311.318182 -259.336833 
L 303.632231 -266.772887 
L 295.946281 -274.043981 
L 288.260331 -276.773541 
L 280.57438 -280.071276 
L 272.88843 -280.071276 
L 265.202479 -283.345975 
L 257.516529 -285.449366 
L 249.830579 -286.776289 
L 242.144628 -286.025274 
L 234.458678 -285.307604 
L 226.772727 -284.882319 
L 219.086777 -275.850317 
L 211.400826 -245.189 
L 203.714876 -257.589618 
L 196.028926 -282.155175 
L 188.342975 -284.36666 
L 180.657025 -282.897653 
L 172.971074 -286.081624 
L 165.285124 -279.949006 
L 157.599174 -283.062097 
L 149.913223 -283.011062 
L 142.227273 -283.846169 
L 134.541322 -283.846169 
L 126.855372 -288.071961 
L 119.169421 -286.881161 
L 111.483471 -288.071961 
L 103.797521 -286.881161 
L 96.11157 -288.071961 
L 88.42562 -288.124058 
L 80.739669 -286.881161 
L 73.053719 -288.143196 
L 65.367769 -289.26276 
L 57.681818 -288.114489 
z
" id="ma995f38222" style="stroke:#9467bd;stroke-opacity:0.2;"/>
    </defs>
    <g clip-path="url(#p5330de1604)">
     <use style="fill:#9467bd;fill-opacity:0.2;stroke:#9467bd;stroke-opacity:0.2;" x="0" xlink:href="#ma995f38222" y="360"/>
    </g>
   </g>
   <g id="PolyCollection_6">
    <defs>
     <path d="M 57.681818 -204.418291 
L 57.681818 -112.329792 
L 65.367769 -115.505257 
L 73.053719 -115.505257 
L 80.739669 -115.505257 
L 88.42562 -115.505257 
L 96.11157 -118.680723 
L 103.797521 -115.505257 
L 111.483471 -115.505257 
L 119.169421 -115.505257 
L 126.855372 -115.505257 
L 134.541322 -101.215663 
L 142.227273 -104.391128 
L 149.913223 -97.35974 
L 157.599174 -92.163524 
L 165.285124 -97.35974 
L 172.971074 -97.35974 
L 180.657025 -127.629762 
L 188.342975 -88.477716 
L 196.028926 -82.415464 
L 203.714876 -125.732731 
L 211.400826 -159.292817 
L 219.086777 -185.365498 
L 226.772727 -195.572352 
L 234.458678 -186.045955 
L 242.144628 -154.43564 
L 249.830579 -154.43564 
L 257.516529 -185.581028 
L 265.202479 -156.746282 
L 272.88843 -156.746282 
L 280.57438 -156.746282 
L 288.260331 -166.312705 
L 295.946281 -166.559713 
L 303.632231 -175.839102 
L 311.318182 -151.997639 
L 311.318182 -237.51593 
L 311.318182 -237.51593 
L 303.632231 -247.582187 
L 295.946281 -248.429852 
L 288.260331 -250.122313 
L 280.57438 -273.189731 
L 272.88843 -279.228523 
L 265.202479 -273.03489 
L 257.516529 -247.076934 
L 249.830579 -248.540549 
L 242.144628 -248.540549 
L 234.458678 -251.942833 
L 226.772727 -219.911771 
L 219.086777 -213.303488 
L 211.400826 -199.563493 
L 203.714876 -213.944688 
L 196.028926 -217.84185 
L 188.342975 -202.686219 
L 180.657025 -189.695679 
L 172.971074 -217.408832 
L 165.285124 -227.801265 
L 157.599174 -227.801265 
L 149.913223 -227.801265 
L 142.227273 -247.287076 
L 134.541322 -250.462541 
L 126.855372 -256.813472 
L 119.169421 -256.813472 
L 111.483471 -252.050274 
L 103.797521 -252.050274 
L 96.11157 -252.050274 
L 88.42562 -252.050274 
L 80.739669 -252.050274 
L 73.053719 -204.418291 
L 65.367769 -204.418291 
L 57.681818 -204.418291 
z
" id="ma9108d2826" style="stroke:#8c564b;stroke-opacity:0.2;"/>
    </defs>
    <g clip-path="url(#p5330de1604)">
     <use style="fill:#8c564b;fill-opacity:0.2;stroke:#8c564b;stroke-opacity:0.2;" x="0" xlink:href="#ma9108d2826" y="360"/>
    </g>
   </g>
   <g id="matplotlib.axis_1">
    <g id="xtick_1">
     <g id="line2d_1">
      <defs>
       <path d="M 0 0 
L 0 3.5 
" id="me80acf6b54" style="stroke:#000000;stroke-width:0.8;"/>
      </defs>
      <g>
       <use style="stroke:#000000;stroke-width:0.8;" x="49.995868" xlink:href="#me80acf6b54" y="315"/>
      </g>
     </g>
     <g id="text_1">
      <!-- 0 -->
      <defs>
       <path d="M 31.78125 66.40625 
Q 24.171875 66.40625 20.328125 58.90625 
Q 16.5 51.421875 16.5 36.375 
Q 16.5 21.390625 20.328125 13.890625 
Q 24.171875 6.390625 31.78125 6.390625 
Q 39.453125 6.390625 43.28125 13.890625 
Q 47.125 21.390625 47.125 36.375 
Q 47.125 51.421875 43.28125 58.90625 
Q 39.453125 66.40625 31.78125 66.40625 
z
M 31.78125 74.21875 
Q 44.046875 74.21875 50.515625 64.515625 
Q 56.984375 54.828125 56.984375 36.375 
Q 56.984375 17.96875 50.515625 8.265625 
Q 44.046875 -1.421875 31.78125 -1.421875 
Q 19.53125 -1.421875 13.0625 8.265625 
Q 6.59375 17.96875 6.59375 36.375 
Q 6.59375 54.828125 13.0625 64.515625 
Q 19.53125 74.21875 31.78125 74.21875 
z
" id="DejaVuSans-48"/>
      </defs>
      <g transform="translate(46.814618 329.598437)scale(0.1 -0.1)">
       <use xlink:href="#DejaVuSans-48"/>
      </g>
     </g>
    </g>
    <g id="xtick_2">
     <g id="line2d_2">
      <g>
       <use style="stroke:#000000;stroke-width:0.8;" x="88.42562" xlink:href="#me80acf6b54" y="315"/>
      </g>
     </g>
     <g id="text_2">
      <!-- 5 -->
      <defs>
       <path d="M 10.796875 72.90625 
L 49.515625 72.90625 
L 49.515625 64.59375 
L 19.828125 64.59375 
L 19.828125 46.734375 
Q 21.96875 47.46875 24.109375 47.828125 
Q 26.265625 48.1875 28.421875 48.1875 
Q 40.625 48.1875 47.75 41.5 
Q 54.890625 34.8125 54.890625 23.390625 
Q 54.890625 11.625 47.5625 5.09375 
Q 40.234375 -1.421875 26.90625 -1.421875 
Q 22.3125 -1.421875 17.546875 -0.640625 
Q 12.796875 0.140625 7.71875 1.703125 
L 7.71875 11.625 
Q 12.109375 9.234375 16.796875 8.0625 
Q 21.484375 6.890625 26.703125 6.890625 
Q 35.15625 6.890625 40.078125 11.328125 
Q 45.015625 15.765625 45.015625 23.390625 
Q 45.015625 31 40.078125 35.4375 
Q 35.15625 39.890625 26.703125 39.890625 
Q 22.75 39.890625 18.8125 39.015625 
Q 14.890625 38.140625 10.796875 36.28125 
z
" id="DejaVuSans-53"/>
      </defs>
      <g transform="translate(85.24437 329.598437)scale(0.1 -0.1)">
       <use xlink:href="#DejaVuSans-53"/>
      </g>
     </g>
    </g>
    <g id="xtick_3">
     <g id="line2d_3">
      <g>
       <use style="stroke:#000000;stroke-width:0.8;" x="126.855372" xlink:href="#me80acf6b54" y="315"/>
      </g>
     </g>
     <g id="text_3">
      <!-- 10 -->
      <defs>
       <path d="M 12.40625 8.296875 
L 28.515625 8.296875 
L 28.515625 63.921875 
L 10.984375 60.40625 
L 10.984375 69.390625 
L 28.421875 72.90625 
L 38.28125 72.90625 
L 38.28125 8.296875 
L 54.390625 8.296875 
L 54.390625 0 
L 12.40625 0 
z
" id="DejaVuSans-49"/>
      </defs>
      <g transform="translate(120.492872 329.598437)scale(0.1 -0.1)">
       <use xlink:href="#DejaVuSans-49"/>
       <use x="63.623047" xlink:href="#DejaVuSans-48"/>
      </g>
     </g>
    </g>
    <g id="xtick_4">
     <g id="line2d_4">
      <g>
       <use style="stroke:#000000;stroke-width:0.8;" x="165.285124" xlink:href="#me80acf6b54" y="315"/>
      </g>
     </g>
     <g id="text_4">
      <!-- 15 -->
      <g transform="translate(158.922624 329.598437)scale(0.1 -0.1)">
       <use xlink:href="#DejaVuSans-49"/>
       <use x="63.623047" xlink:href="#DejaVuSans-53"/>
      </g>
     </g>
    </g>
    <g id="xtick_5">
     <g id="line2d_5">
      <g>
       <use style="stroke:#000000;stroke-width:0.8;" x="203.714876" xlink:href="#me80acf6b54" y="315"/>
      </g>
     </g>
     <g id="text_5">
      <!-- 20 -->
      <defs>
       <path d="M 19.1875 8.296875 
L 53.609375 8.296875 
L 53.609375 0 
L 7.328125 0 
L 7.328125 8.296875 
Q 12.9375 14.109375 22.625 23.890625 
Q 32.328125 33.6875 34.8125 36.53125 
Q 39.546875 41.84375 41.421875 45.53125 
Q 43.3125 49.21875 43.3125 52.78125 
Q 43.3125 58.59375 39.234375 62.25 
Q 35.15625 65.921875 28.609375 65.921875 
Q 23.96875 65.921875 18.8125 64.3125 
Q 13.671875 62.703125 7.8125 59.421875 
L 7.8125 69.390625 
Q 13.765625 71.78125 18.9375 73 
Q 24.125 74.21875 28.421875 74.21875 
Q 39.75 74.21875 46.484375 68.546875 
Q 53.21875 62.890625 53.21875 53.421875 
Q 53.21875 48.921875 51.53125 44.890625 
Q 49.859375 40.875 45.40625 35.40625 
Q 44.1875 33.984375 37.640625 27.21875 
Q 31.109375 20.453125 19.1875 8.296875 
z
" id="DejaVuSans-50"/>
      </defs>
      <g transform="translate(197.352376 329.598437)scale(0.1 -0.1)">
       <use xlink:href="#DejaVuSans-50"/>
       <use x="63.623047" xlink:href="#DejaVuSans-48"/>
      </g>
     </g>
    </g>
    <g id="xtick_6">
     <g id="line2d_6">
      <g>
       <use style="stroke:#000000;stroke-width:0.8;" x="242.144628" xlink:href="#me80acf6b54" y="315"/>
      </g>
     </g>
     <g id="text_6">
      <!-- 25 -->
      <g transform="translate(235.782128 329.598437)scale(0.1 -0.1)">
       <use xlink:href="#DejaVuSans-50"/>
       <use x="63.623047" xlink:href="#DejaVuSans-53"/>
      </g>
     </g>
    </g>
    <g id="xtick_7">
     <g id="line2d_7">
      <g>
       <use style="stroke:#000000;stroke-width:0.8;" x="280.57438" xlink:href="#me80acf6b54" y="315"/>
      </g>
     </g>
     <g id="text_7">
      <!-- 30 -->
      <defs>
       <path d="M 40.578125 39.3125 
Q 47.65625 37.796875 51.625 33 
Q 55.609375 28.21875 55.609375 21.1875 
Q 55.609375 10.40625 48.1875 4.484375 
Q 40.765625 -1.421875 27.09375 -1.421875 
Q 22.515625 -1.421875 17.65625 -0.515625 
Q 12.796875 0.390625 7.625 2.203125 
L 7.625 11.71875 
Q 11.71875 9.328125 16.59375 8.109375 
Q 21.484375 6.890625 26.8125 6.890625 
Q 36.078125 6.890625 40.9375 10.546875 
Q 45.796875 14.203125 45.796875 21.1875 
Q 45.796875 27.640625 41.28125 31.265625 
Q 36.765625 34.90625 28.71875 34.90625 
L 20.21875 34.90625 
L 20.21875 43.015625 
L 29.109375 43.015625 
Q 36.375 43.015625 40.234375 45.921875 
Q 44.09375 48.828125 44.09375 54.296875 
Q 44.09375 59.90625 40.109375 62.90625 
Q 36.140625 65.921875 28.71875 65.921875 
Q 24.65625 65.921875 20.015625 65.03125 
Q 15.375 64.15625 9.8125 62.3125 
L 9.8125 71.09375 
Q 15.4375 72.65625 20.34375 73.4375 
Q 25.25 74.21875 29.59375 74.21875 
Q 40.828125 74.21875 47.359375 69.109375 
Q 53.90625 64.015625 53.90625 55.328125 
Q 53.90625 49.265625 50.4375 45.09375 
Q 46.96875 40.921875 40.578125 39.3125 
z
" id="DejaVuSans-51"/>
      </defs>
      <g transform="translate(274.21188 329.598437)scale(0.1 -0.1)">
       <use xlink:href="#DejaVuSans-51"/>
       <use x="63.623047" xlink:href="#DejaVuSans-48"/>
      </g>
     </g>
    </g>
    <g id="xtick_8">
     <g id="line2d_8">
      <g>
       <use style="stroke:#000000;stroke-width:0.8;" x="319.004132" xlink:href="#me80acf6b54" y="315"/>
      </g>
     </g>
     <g id="text_8">
      <!-- 35 -->
      <g transform="translate(312.641632 329.598437)scale(0.1 -0.1)">
       <use xlink:href="#DejaVuSans-51"/>
       <use x="63.623047" xlink:href="#DejaVuSans-53"/>
      </g>
     </g>
    </g>
    <g id="text_9">
     <!-- day -->
     <defs>
      <path d="M 45.40625 46.390625 
L 45.40625 75.984375 
L 54.390625 75.984375 
L 54.390625 0 
L 45.40625 0 
L 45.40625 8.203125 
Q 42.578125 3.328125 38.25 0.953125 
Q 33.9375 -1.421875 27.875 -1.421875 
Q 17.96875 -1.421875 11.734375 6.484375 
Q 5.515625 14.40625 5.515625 27.296875 
Q 5.515625 40.1875 11.734375 48.09375 
Q 17.96875 56 27.875 56 
Q 33.9375 56 38.25 53.625 
Q 42.578125 51.265625 45.40625 46.390625 
z
M 14.796875 27.296875 
Q 14.796875 17.390625 18.875 11.75 
Q 22.953125 6.109375 30.078125 6.109375 
Q 37.203125 6.109375 41.296875 11.75 
Q 45.40625 17.390625 45.40625 27.296875 
Q 45.40625 37.203125 41.296875 42.84375 
Q 37.203125 48.484375 30.078125 48.484375 
Q 22.953125 48.484375 18.875 42.84375 
Q 14.796875 37.203125 14.796875 27.296875 
z
" id="DejaVuSans-100"/>
      <path d="M 34.28125 27.484375 
Q 23.390625 27.484375 19.1875 25 
Q 14.984375 22.515625 14.984375 16.5 
Q 14.984375 11.71875 18.140625 8.90625 
Q 21.296875 6.109375 26.703125 6.109375 
Q 34.1875 6.109375 38.703125 11.40625 
Q 43.21875 16.703125 43.21875 25.484375 
L 43.21875 27.484375 
z
M 52.203125 31.203125 
L 52.203125 0 
L 43.21875 0 
L 43.21875 8.296875 
Q 40.140625 3.328125 35.546875 0.953125 
Q 30.953125 -1.421875 24.3125 -1.421875 
Q 15.921875 -1.421875 10.953125 3.296875 
Q 6 8.015625 6 15.921875 
Q 6 25.140625 12.171875 29.828125 
Q 18.359375 34.515625 30.609375 34.515625 
L 43.21875 34.515625 
L 43.21875 35.40625 
Q 43.21875 41.609375 39.140625 45 
Q 35.0625 48.390625 27.6875 48.390625 
Q 23 48.390625 18.546875 47.265625 
Q 14.109375 46.140625 10.015625 43.890625 
L 10.015625 52.203125 
Q 14.9375 54.109375 19.578125 55.046875 
Q 24.21875 56 28.609375 56 
Q 40.484375 56 46.34375 49.84375 
Q 52.203125 43.703125 52.203125 31.203125 
z
" id="DejaVuSans-97"/>
      <path d="M 32.171875 -5.078125 
Q 28.375 -14.84375 24.75 -17.8125 
Q 21.140625 -20.796875 15.09375 -20.796875 
L 7.90625 -20.796875 
L 7.90625 -13.28125 
L 13.1875 -13.28125 
Q 16.890625 -13.28125 18.9375 -11.515625 
Q 21 -9.765625 23.484375 -3.21875 
L 25.09375 0.875 
L 2.984375 54.6875 
L 12.5 54.6875 
L 29.59375 11.921875 
L 46.6875 54.6875 
L 56.203125 54.6875 
z
" id="DejaVuSans-121"/>
     </defs>
     <g transform="translate(175.302344 343.276563)scale(0.1 -0.1)">
      <use xlink:href="#DejaVuSans-100"/>
      <use x="63.476562" xlink:href="#DejaVuSans-97"/>
      <use x="124.755859" xlink:href="#DejaVuSans-121"/>
     </g>
    </g>
   </g>
   <g id="matplotlib.axis_2">
    <g id="ytick_1">
     <g id="line2d_9">
      <defs>
       <path d="M 0 0 
L -3.5 0 
" id="md087fddaa0" style="stroke:#000000;stroke-width:0.8;"/>
      </defs>
      <g>
       <use style="stroke:#000000;stroke-width:0.8;" x="45" xlink:href="#md087fddaa0" y="305.622453"/>
      </g>
     </g>
     <g id="text_10">
      <!-- 0.3 -->
      <defs>
       <path d="M 10.6875 12.40625 
L 21 12.40625 
L 21 0 
L 10.6875 0 
z
" id="DejaVuSans-46"/>
      </defs>
      <g transform="translate(22.096875 309.421672)scale(0.1 -0.1)">
       <use xlink:href="#DejaVuSans-48"/>
       <use x="63.623047" xlink:href="#DejaVuSans-46"/>
       <use x="95.410156" xlink:href="#DejaVuSans-51"/>
      </g>
     </g>
    </g>
    <g id="ytick_2">
     <g id="line2d_10">
      <g>
       <use style="stroke:#000000;stroke-width:0.8;" x="45" xlink:href="#md087fddaa0" y="269.898467"/>
      </g>
     </g>
     <g id="text_11">
      <!-- 0.4 -->
      <defs>
       <path d="M 37.796875 64.3125 
L 12.890625 25.390625 
L 37.796875 25.390625 
z
M 35.203125 72.90625 
L 47.609375 72.90625 
L 47.609375 25.390625 
L 58.015625 25.390625 
L 58.015625 17.1875 
L 47.609375 17.1875 
L 47.609375 0 
L 37.796875 0 
L 37.796875 17.1875 
L 4.890625 17.1875 
L 4.890625 26.703125 
z
" id="DejaVuSans-52"/>
      </defs>
      <g transform="translate(22.096875 273.697685)scale(0.1 -0.1)">
       <use xlink:href="#DejaVuSans-48"/>
       <use x="63.623047" xlink:href="#DejaVuSans-46"/>
       <use x="95.410156" xlink:href="#DejaVuSans-52"/>
      </g>
     </g>
    </g>
    <g id="ytick_3">
     <g id="line2d_11">
      <g>
       <use style="stroke:#000000;stroke-width:0.8;" x="45" xlink:href="#md087fddaa0" y="234.17448"/>
      </g>
     </g>
     <g id="text_12">
      <!-- 0.5 -->
      <g transform="translate(22.096875 237.973698)scale(0.1 -0.1)">
       <use xlink:href="#DejaVuSans-48"/>
       <use x="63.623047" xlink:href="#DejaVuSans-46"/>
       <use x="95.410156" xlink:href="#DejaVuSans-53"/>
      </g>
     </g>
    </g>
    <g id="ytick_4">
     <g id="line2d_12">
      <g>
       <use style="stroke:#000000;stroke-width:0.8;" x="45" xlink:href="#md087fddaa0" y="198.450493"/>
      </g>
     </g>
     <g id="text_13">
      <!-- 0.6 -->
      <defs>
       <path d="M 33.015625 40.375 
Q 26.375 40.375 22.484375 35.828125 
Q 18.609375 31.296875 18.609375 23.390625 
Q 18.609375 15.53125 22.484375 10.953125 
Q 26.375 6.390625 33.015625 6.390625 
Q 39.65625 6.390625 43.53125 10.953125 
Q 47.40625 15.53125 47.40625 23.390625 
Q 47.40625 31.296875 43.53125 35.828125 
Q 39.65625 40.375 33.015625 40.375 
z
M 52.59375 71.296875 
L 52.59375 62.3125 
Q 48.875 64.0625 45.09375 64.984375 
Q 41.3125 65.921875 37.59375 65.921875 
Q 27.828125 65.921875 22.671875 59.328125 
Q 17.53125 52.734375 16.796875 39.40625 
Q 19.671875 43.65625 24.015625 45.921875 
Q 28.375 48.1875 33.59375 48.1875 
Q 44.578125 48.1875 50.953125 41.515625 
Q 57.328125 34.859375 57.328125 23.390625 
Q 57.328125 12.15625 50.6875 5.359375 
Q 44.046875 -1.421875 33.015625 -1.421875 
Q 20.359375 -1.421875 13.671875 8.265625 
Q 6.984375 17.96875 6.984375 36.375 
Q 6.984375 53.65625 15.1875 63.9375 
Q 23.390625 74.21875 37.203125 74.21875 
Q 40.921875 74.21875 44.703125 73.484375 
Q 48.484375 72.75 52.59375 71.296875 
z
" id="DejaVuSans-54"/>
      </defs>
      <g transform="translate(22.096875 202.249712)scale(0.1 -0.1)">
       <use xlink:href="#DejaVuSans-48"/>
       <use x="63.623047" xlink:href="#DejaVuSans-46"/>
       <use x="95.410156" xlink:href="#DejaVuSans-54"/>
      </g>
     </g>
    </g>
    <g id="ytick_5">
     <g id="line2d_13">
      <g>
       <use style="stroke:#000000;stroke-width:0.8;" x="45" xlink:href="#md087fddaa0" y="162.726506"/>
      </g>
     </g>
     <g id="text_14">
      <!-- 0.7 -->
      <defs>
       <path d="M 8.203125 72.90625 
L 55.078125 72.90625 
L 55.078125 68.703125 
L 28.609375 0 
L 18.3125 0 
L 43.21875 64.59375 
L 8.203125 64.59375 
z
" id="DejaVuSans-55"/>
      </defs>
      <g transform="translate(22.096875 166.525725)scale(0.1 -0.1)">
       <use xlink:href="#DejaVuSans-48"/>
       <use x="63.623047" xlink:href="#DejaVuSans-46"/>
       <use x="95.410156" xlink:href="#DejaVuSans-55"/>
      </g>
     </g>
    </g>
    <g id="ytick_6">
     <g id="line2d_14">
      <g>
       <use style="stroke:#000000;stroke-width:0.8;" x="45" xlink:href="#md087fddaa0" y="127.002519"/>
      </g>
     </g>
     <g id="text_15">
      <!-- 0.8 -->
      <defs>
       <path d="M 31.78125 34.625 
Q 24.75 34.625 20.71875 30.859375 
Q 16.703125 27.09375 16.703125 20.515625 
Q 16.703125 13.921875 20.71875 10.15625 
Q 24.75 6.390625 31.78125 6.390625 
Q 38.8125 6.390625 42.859375 10.171875 
Q 46.921875 13.96875 46.921875 20.515625 
Q 46.921875 27.09375 42.890625 30.859375 
Q 38.875 34.625 31.78125 34.625 
z
M 21.921875 38.8125 
Q 15.578125 40.375 12.03125 44.71875 
Q 8.5 49.078125 8.5 55.328125 
Q 8.5 64.0625 14.71875 69.140625 
Q 20.953125 74.21875 31.78125 74.21875 
Q 42.671875 74.21875 48.875 69.140625 
Q 55.078125 64.0625 55.078125 55.328125 
Q 55.078125 49.078125 51.53125 44.71875 
Q 48 40.375 41.703125 38.8125 
Q 48.828125 37.15625 52.796875 32.3125 
Q 56.78125 27.484375 56.78125 20.515625 
Q 56.78125 9.90625 50.3125 4.234375 
Q 43.84375 -1.421875 31.78125 -1.421875 
Q 19.734375 -1.421875 13.25 4.234375 
Q 6.78125 9.90625 6.78125 20.515625 
Q 6.78125 27.484375 10.78125 32.3125 
Q 14.796875 37.15625 21.921875 38.8125 
z
M 18.3125 54.390625 
Q 18.3125 48.734375 21.84375 45.5625 
Q 25.390625 42.390625 31.78125 42.390625 
Q 38.140625 42.390625 41.71875 45.5625 
Q 45.3125 48.734375 45.3125 54.390625 
Q 45.3125 60.0625 41.71875 63.234375 
Q 38.140625 66.40625 31.78125 66.40625 
Q 25.390625 66.40625 21.84375 63.234375 
Q 18.3125 60.0625 18.3125 54.390625 
z
" id="DejaVuSans-56"/>
      </defs>
      <g transform="translate(22.096875 130.801738)scale(0.1 -0.1)">
       <use xlink:href="#DejaVuSans-48"/>
       <use x="63.623047" xlink:href="#DejaVuSans-46"/>
       <use x="95.410156" xlink:href="#DejaVuSans-56"/>
      </g>
     </g>
    </g>
    <g id="ytick_7">
     <g id="line2d_15">
      <g>
       <use style="stroke:#000000;stroke-width:0.8;" x="45" xlink:href="#md087fddaa0" y="91.278532"/>
      </g>
     </g>
     <g id="text_16">
      <!-- 0.9 -->
      <defs>
       <path d="M 10.984375 1.515625 
L 10.984375 10.5 
Q 14.703125 8.734375 18.5 7.8125 
Q 22.3125 6.890625 25.984375 6.890625 
Q 35.75 6.890625 40.890625 13.453125 
Q 46.046875 20.015625 46.78125 33.40625 
Q 43.953125 29.203125 39.59375 26.953125 
Q 35.25 24.703125 29.984375 24.703125 
Q 19.046875 24.703125 12.671875 31.3125 
Q 6.296875 37.9375 6.296875 49.421875 
Q 6.296875 60.640625 12.9375 67.421875 
Q 19.578125 74.21875 30.609375 74.21875 
Q 43.265625 74.21875 49.921875 64.515625 
Q 56.59375 54.828125 56.59375 36.375 
Q 56.59375 19.140625 48.40625 8.859375 
Q 40.234375 -1.421875 26.421875 -1.421875 
Q 22.703125 -1.421875 18.890625 -0.6875 
Q 15.09375 0.046875 10.984375 1.515625 
z
M 30.609375 32.421875 
Q 37.25 32.421875 41.125 36.953125 
Q 45.015625 41.5 45.015625 49.421875 
Q 45.015625 57.28125 41.125 61.84375 
Q 37.25 66.40625 30.609375 66.40625 
Q 23.96875 66.40625 20.09375 61.84375 
Q 16.21875 57.28125 16.21875 49.421875 
Q 16.21875 41.5 20.09375 36.953125 
Q 23.96875 32.421875 30.609375 32.421875 
z
" id="DejaVuSans-57"/>
      </defs>
      <g transform="translate(22.096875 95.077751)scale(0.1 -0.1)">
       <use xlink:href="#DejaVuSans-48"/>
       <use x="63.623047" xlink:href="#DejaVuSans-46"/>
       <use x="95.410156" xlink:href="#DejaVuSans-57"/>
      </g>
     </g>
    </g>
    <g id="ytick_8">
     <g id="line2d_16">
      <g>
       <use style="stroke:#000000;stroke-width:0.8;" x="45" xlink:href="#md087fddaa0" y="55.554545"/>
      </g>
     </g>
     <g id="text_17">
      <!-- 1.0 -->
      <g transform="translate(22.096875 59.353764)scale(0.1 -0.1)">
       <use xlink:href="#DejaVuSans-49"/>
       <use x="63.623047" xlink:href="#DejaVuSans-46"/>
       <use x="95.410156" xlink:href="#DejaVuSans-48"/>
      </g>
     </g>
    </g>
    <g id="text_18">
     <!-- all_metrics -->
     <defs>
      <path d="M 9.421875 75.984375 
L 18.40625 75.984375 
L 18.40625 0 
L 9.421875 0 
z
" id="DejaVuSans-108"/>
      <path d="M 50.984375 -16.609375 
L 50.984375 -23.578125 
L -0.984375 -23.578125 
L -0.984375 -16.609375 
z
" id="DejaVuSans-95"/>
      <path d="M 52 44.1875 
Q 55.375 50.25 60.0625 53.125 
Q 64.75 56 71.09375 56 
Q 79.640625 56 84.28125 50.015625 
Q 88.921875 44.046875 88.921875 33.015625 
L 88.921875 0 
L 79.890625 0 
L 79.890625 32.71875 
Q 79.890625 40.578125 77.09375 44.375 
Q 74.3125 48.1875 68.609375 48.1875 
Q 61.625 48.1875 57.5625 43.546875 
Q 53.515625 38.921875 53.515625 30.90625 
L 53.515625 0 
L 44.484375 0 
L 44.484375 32.71875 
Q 44.484375 40.625 41.703125 44.40625 
Q 38.921875 48.1875 33.109375 48.1875 
Q 26.21875 48.1875 22.15625 43.53125 
Q 18.109375 38.875 18.109375 30.90625 
L 18.109375 0 
L 9.078125 0 
L 9.078125 54.6875 
L 18.109375 54.6875 
L 18.109375 46.1875 
Q 21.1875 51.21875 25.484375 53.609375 
Q 29.78125 56 35.6875 56 
Q 41.65625 56 45.828125 52.96875 
Q 50 49.953125 52 44.1875 
z
" id="DejaVuSans-109"/>
      <path d="M 56.203125 29.59375 
L 56.203125 25.203125 
L 14.890625 25.203125 
Q 15.484375 15.921875 20.484375 11.0625 
Q 25.484375 6.203125 34.421875 6.203125 
Q 39.59375 6.203125 44.453125 7.46875 
Q 49.3125 8.734375 54.109375 11.28125 
L 54.109375 2.78125 
Q 49.265625 0.734375 44.1875 -0.34375 
Q 39.109375 -1.421875 33.890625 -1.421875 
Q 20.796875 -1.421875 13.15625 6.1875 
Q 5.515625 13.8125 5.515625 26.8125 
Q 5.515625 40.234375 12.765625 48.109375 
Q 20.015625 56 32.328125 56 
Q 43.359375 56 49.78125 48.890625 
Q 56.203125 41.796875 56.203125 29.59375 
z
M 47.21875 32.234375 
Q 47.125 39.59375 43.09375 43.984375 
Q 39.0625 48.390625 32.421875 48.390625 
Q 24.90625 48.390625 20.390625 44.140625 
Q 15.875 39.890625 15.1875 32.171875 
z
" id="DejaVuSans-101"/>
      <path d="M 18.3125 70.21875 
L 18.3125 54.6875 
L 36.8125 54.6875 
L 36.8125 47.703125 
L 18.3125 47.703125 
L 18.3125 18.015625 
Q 18.3125 11.328125 20.140625 9.421875 
Q 21.96875 7.515625 27.59375 7.515625 
L 36.8125 7.515625 
L 36.8125 0 
L 27.59375 0 
Q 17.1875 0 13.234375 3.875 
Q 9.28125 7.765625 9.28125 18.015625 
L 9.28125 47.703125 
L 2.6875 47.703125 
L 2.6875 54.6875 
L 9.28125 54.6875 
L 9.28125 70.21875 
z
" id="DejaVuSans-116"/>
      <path d="M 41.109375 46.296875 
Q 39.59375 47.171875 37.8125 47.578125 
Q 36.03125 48 33.890625 48 
Q 26.265625 48 22.1875 43.046875 
Q 18.109375 38.09375 18.109375 28.8125 
L 18.109375 0 
L 9.078125 0 
L 9.078125 54.6875 
L 18.109375 54.6875 
L 18.109375 46.1875 
Q 20.953125 51.171875 25.484375 53.578125 
Q 30.03125 56 36.53125 56 
Q 37.453125 56 38.578125 55.875 
Q 39.703125 55.765625 41.0625 55.515625 
z
" id="DejaVuSans-114"/>
      <path d="M 9.421875 54.6875 
L 18.40625 54.6875 
L 18.40625 0 
L 9.421875 0 
z
M 9.421875 75.984375 
L 18.40625 75.984375 
L 18.40625 64.59375 
L 9.421875 64.59375 
z
" id="DejaVuSans-105"/>
      <path d="M 48.78125 52.59375 
L 48.78125 44.1875 
Q 44.96875 46.296875 41.140625 47.34375 
Q 37.3125 48.390625 33.40625 48.390625 
Q 24.65625 48.390625 19.8125 42.84375 
Q 14.984375 37.3125 14.984375 27.296875 
Q 14.984375 17.28125 19.8125 11.734375 
Q 24.65625 6.203125 33.40625 6.203125 
Q 37.3125 6.203125 41.140625 7.25 
Q 44.96875 8.296875 48.78125 10.40625 
L 48.78125 2.09375 
Q 45.015625 0.34375 40.984375 -0.53125 
Q 36.96875 -1.421875 32.421875 -1.421875 
Q 20.0625 -1.421875 12.78125 6.34375 
Q 5.515625 14.109375 5.515625 27.296875 
Q 5.515625 40.671875 12.859375 48.328125 
Q 20.21875 56 33.015625 56 
Q 37.15625 56 41.109375 55.140625 
Q 45.0625 54.296875 48.78125 52.59375 
z
" id="DejaVuSans-99"/>
      <path d="M 44.28125 53.078125 
L 44.28125 44.578125 
Q 40.484375 46.53125 36.375 47.5 
Q 32.28125 48.484375 27.875 48.484375 
Q 21.1875 48.484375 17.84375 46.4375 
Q 14.5 44.390625 14.5 40.28125 
Q 14.5 37.15625 16.890625 35.375 
Q 19.28125 33.59375 26.515625 31.984375 
L 29.59375 31.296875 
Q 39.15625 29.25 43.1875 25.515625 
Q 47.21875 21.78125 47.21875 15.09375 
Q 47.21875 7.46875 41.1875 3.015625 
Q 35.15625 -1.421875 24.609375 -1.421875 
Q 20.21875 -1.421875 15.453125 -0.5625 
Q 10.6875 0.296875 5.421875 2 
L 5.421875 11.28125 
Q 10.40625 8.6875 15.234375 7.390625 
Q 20.0625 6.109375 24.8125 6.109375 
Q 31.15625 6.109375 34.5625 8.28125 
Q 37.984375 10.453125 37.984375 14.40625 
Q 37.984375 18.0625 35.515625 20.015625 
Q 33.0625 21.96875 24.703125 23.78125 
L 21.578125 24.515625 
Q 13.234375 26.265625 9.515625 29.90625 
Q 5.8125 33.546875 5.8125 39.890625 
Q 5.8125 47.609375 11.28125 51.796875 
Q 16.75 56 26.8125 56 
Q 31.78125 56 36.171875 55.265625 
Q 40.578125 54.546875 44.28125 53.078125 
z
" id="DejaVuSans-115"/>
     </defs>
     <g transform="translate(15.739062 206.147656)rotate(-90)scale(0.1 -0.1)">
      <use xlink:href="#DejaVuSans-97"/>
      <use x="61.279297" xlink:href="#DejaVuSans-108"/>
      <use x="89.0625" xlink:href="#DejaVuSans-108"/>
      <use x="116.845703" xlink:href="#DejaVuSans-95"/>
      <use x="166.845703" xlink:href="#DejaVuSans-109"/>
      <use x="264.257812" xlink:href="#DejaVuSans-101"/>
      <use x="325.78125" xlink:href="#DejaVuSans-116"/>
      <use x="364.990234" xlink:href="#DejaVuSans-114"/>
      <use x="406.103516" xlink:href="#DejaVuSans-105"/>
      <use x="433.886719" xlink:href="#DejaVuSans-99"/>
      <use x="488.867188" xlink:href="#DejaVuSans-115"/>
     </g>
    </g>
   </g>
   <g id="line2d_17">
    <path clip-path="url(#p5330de1604)" d="M 57.681818 116.758141 
L 65.367769 116.758141 
L 73.053719 116.758141 
L 80.739669 112.292642 
L 88.42562 112.292642 
L 96.11157 112.292642 
L 103.797521 112.292642 
L 111.483471 112.292642 
L 119.169421 112.292642 
L 126.855372 112.292642 
L 134.541322 121.223639 
L 142.227273 121.223639 
L 149.913223 125.689137 
L 157.599174 125.689137 
L 165.285124 125.689137 
L 172.971074 130.154636 
L 180.657025 143.551131 
L 188.342975 144.076483 
L 196.028926 144.33916 
L 203.714876 144.33916 
L 211.400826 148.279305 
L 219.086777 135.145487 
L 226.772727 134.88281 
L 234.458678 126.739843 
L 242.144628 144.601836 
L 249.830579 144.601836 
L 257.516529 139.610985 
L 265.202479 139.610985 
L 272.88843 139.610985 
L 280.57438 139.610985 
L 288.260331 152.744804 
L 295.946281 179.012441 
L 303.632231 170.344121 
L 311.318182 187.943438 
" style="fill:none;stroke:#1f77b4;stroke-linecap:square;stroke-width:1.5;"/>
   </g>
   <g id="line2d_18">
    <path clip-path="url(#p5330de1604)" d="M 57.681818 201.852777 
L 65.367769 201.852777 
L 73.053719 201.852777 
L 80.739669 201.852777 
L 88.42562 201.852777 
L 96.11157 201.852777 
L 103.797521 201.852777 
L 111.483471 201.852777 
L 119.169421 201.852777 
L 126.855372 201.852777 
L 134.541322 212.569973 
L 142.227273 212.569973 
L 149.913223 201.852777 
L 157.599174 201.852777 
L 165.285124 201.852777 
L 172.971074 211.379174 
L 180.657025 208.657346 
L 188.342975 214.186059 
L 196.028926 205.680347 
L 203.714876 210.358488 
L 211.400826 204.262729 
L 219.086777 181.949413 
L 226.772727 173.397307 
L 234.458678 159.75724 
L 242.144628 175.06752 
L 249.830579 175.06752 
L 257.516529 151.901055 
L 265.202479 137.521249 
L 272.88843 137.521249 
L 280.57438 137.521249 
L 288.260331 147.844089 
L 295.946281 146.694529 
L 303.632231 129.198539 
L 311.318182 150.478282 
" style="fill:none;stroke:#ff7f0e;stroke-linecap:square;stroke-width:1.5;"/>
   </g>
   <g id="line2d_19">
    <path clip-path="url(#p5330de1604)" d="M 57.681818 119.857722 
L 65.367769 119.857722 
L 73.053719 119.857722 
L 80.739669 84.133735 
L 88.42562 84.133735 
L 96.11157 84.133735 
L 103.797521 84.133735 
L 111.483471 84.133735 
L 119.169421 84.133735 
L 126.855372 84.133735 
L 134.541322 119.857722 
L 142.227273 119.857722 
L 149.913223 143.673713 
L 157.599174 143.673713 
L 165.285124 143.673713 
L 172.971074 143.673713 
L 180.657025 165.108105 
L 188.342975 159.154107 
L 196.028926 159.154107 
L 203.714876 153.20011 
L 211.400826 130.234689 
L 219.086777 119.857722 
L 226.772727 116.455437 
L 234.458678 116.455437 
L 242.144628 135.50823 
L 249.830579 135.50823 
L 257.516529 132.672993 
L 265.202479 135.121607 
L 272.88843 135.121607 
L 280.57438 135.121607 
L 288.260331 144.666046 
L 295.946281 165.199705 
L 303.632231 158.652092 
L 311.318182 166.840177 
" style="fill:none;stroke:#2ca02c;stroke-linecap:square;stroke-width:1.5;"/>
   </g>
   <g id="line2d_20">
    <path clip-path="url(#p5330de1604)" d="M 57.681818 126.280638 
L 65.367769 126.280638 
L 73.053719 126.280638 
L 80.739669 128.498567 
L 88.42562 128.498567 
L 96.11157 128.498567 
L 103.797521 128.498567 
L 111.483471 128.498567 
L 119.169421 128.498567 
L 126.855372 128.498567 
L 134.541322 137.553442 
L 142.227273 137.553442 
L 149.913223 129.404931 
L 157.599174 129.404931 
L 165.285124 129.404931 
L 172.971074 120.412774 
L 180.657025 135.328373 
L 188.342975 129.636712 
L 196.028926 121.632174 
L 203.714876 141.834031 
L 211.400826 119.514864 
L 219.086777 98.243051 
L 226.772727 95.49673 
L 234.458678 96.897952 
L 242.144628 105.702652 
L 249.830579 105.702652 
L 257.516529 101.168677 
L 265.202479 94.398863 
L 272.88843 94.398863 
L 280.57438 94.398863 
L 288.260331 100.18084 
L 295.946281 102.805009 
L 303.632231 101.433708 
L 311.318182 106.40364 
" style="fill:none;stroke:#d62728;stroke-linecap:square;stroke-width:1.5;"/>
   </g>
   <g id="line2d_21">
    <path clip-path="url(#p5330de1604)" d="M 57.681818 116.115209 
L 65.367769 116.115209 
L 73.053719 116.115209 
L 80.739669 120.750821 
L 88.42562 120.750821 
L 96.11157 120.750821 
L 103.797521 120.750821 
L 111.483471 120.750821 
L 119.169421 120.750821 
L 126.855372 120.750821 
L 134.541322 127.209363 
L 142.227273 127.209363 
L 149.913223 118.790642 
L 157.599174 118.790642 
L 165.285124 118.790642 
L 172.971074 114.290347 
L 180.657025 120.764998 
L 188.342975 117.906724 
L 196.028926 118.105191 
L 203.714876 140.707892 
L 211.400826 120.823474 
L 219.086777 108.406908 
L 226.772727 101.724609 
L 234.458678 102.094317 
L 242.144628 111.779229 
L 249.830579 111.779229 
L 257.516529 107.099155 
L 265.202479 104.935515 
L 272.88843 104.935515 
L 280.57438 104.935515 
L 288.260331 115.105156 
L 295.946281 129.051622 
L 303.632231 128.97172 
L 311.318182 140.852652 
" style="fill:none;stroke:#9467bd;stroke-linecap:square;stroke-width:1.5;"/>
   </g>
   <g id="line2d_22">
    <path clip-path="url(#p5330de1604)" d="M 57.681818 200.038226 
L 65.367769 200.038226 
L 73.053719 200.038226 
L 80.739669 176.222234 
L 88.42562 176.222234 
L 96.11157 176.222234 
L 103.797521 176.222234 
L 111.483471 176.222234 
L 119.169421 176.222234 
L 126.855372 176.222234 
L 134.541322 185.748631 
L 142.227273 185.748631 
L 149.913223 194.347132 
L 157.599174 194.347132 
L 165.285124 194.347132 
L 172.971074 199.543348 
L 180.657025 203.50237 
L 188.342975 207.652126 
L 196.028926 202.058976 
L 203.714876 191.058257 
L 211.400826 181.004863 
L 219.086777 161.352507 
L 226.772727 152.563272 
L 234.458678 141.005606 
L 242.144628 158.511906 
L 249.830579 158.511906 
L 257.516529 144.465783 
L 265.202479 140.400989 
L 272.88843 140.400989 
L 280.57438 140.400989 
L 288.260331 147.869864 
L 295.946281 160.50827 
L 303.632231 150.404319 
L 311.318182 161.156677 
" style="fill:none;stroke:#8c564b;stroke-linecap:square;stroke-width:1.5;"/>
   </g>
   <g id="line2d_23"/>
   <g id="line2d_24"/>
   <g id="line2d_25"/>
   <g id="line2d_26"/>
   <g id="line2d_27"/>
   <g id="line2d_28"/>
   <g id="line2d_29"/>
   <g id="patch_3">
    <path d="M 45 315 
L 45 43.2 
" style="fill:none;stroke:#000000;stroke-linecap:square;stroke-linejoin:miter;stroke-width:0.8;"/>
   </g>
   <g id="patch_4">
    <path d="M 324 315 
L 324 43.2 
" style="fill:none;stroke:#000000;stroke-linecap:square;stroke-linejoin:miter;stroke-width:0.8;"/>
   </g>
   <g id="patch_5">
    <path d="M 45 315 
L 324 315 
" style="fill:none;stroke:#000000;stroke-linecap:square;stroke-linejoin:miter;stroke-width:0.8;"/>
   </g>
   <g id="patch_6">
    <path d="M 45 43.2 
L 324 43.2 
" style="fill:none;stroke:#000000;stroke-linecap:square;stroke-linejoin:miter;stroke-width:0.8;"/>
   </g>
   <g id="text_19">
    <!-- Lipidomics, 5-fold CV -->
    <defs>
     <path d="M 9.8125 72.90625 
L 19.671875 72.90625 
L 19.671875 8.296875 
L 55.171875 8.296875 
L 55.171875 0 
L 9.8125 0 
z
" id="DejaVuSans-76"/>
     <path d="M 18.109375 8.203125 
L 18.109375 -20.796875 
L 9.078125 -20.796875 
L 9.078125 54.6875 
L 18.109375 54.6875 
L 18.109375 46.390625 
Q 20.953125 51.265625 25.265625 53.625 
Q 29.59375 56 35.59375 56 
Q 45.5625 56 51.78125 48.09375 
Q 58.015625 40.1875 58.015625 27.296875 
Q 58.015625 14.40625 51.78125 6.484375 
Q 45.5625 -1.421875 35.59375 -1.421875 
Q 29.59375 -1.421875 25.265625 0.953125 
Q 20.953125 3.328125 18.109375 8.203125 
z
M 48.6875 27.296875 
Q 48.6875 37.203125 44.609375 42.84375 
Q 40.53125 48.484375 33.40625 48.484375 
Q 26.265625 48.484375 22.1875 42.84375 
Q 18.109375 37.203125 18.109375 27.296875 
Q 18.109375 17.390625 22.1875 11.75 
Q 26.265625 6.109375 33.40625 6.109375 
Q 40.53125 6.109375 44.609375 11.75 
Q 48.6875 17.390625 48.6875 27.296875 
z
" id="DejaVuSans-112"/>
     <path d="M 30.609375 48.390625 
Q 23.390625 48.390625 19.1875 42.75 
Q 14.984375 37.109375 14.984375 27.296875 
Q 14.984375 17.484375 19.15625 11.84375 
Q 23.34375 6.203125 30.609375 6.203125 
Q 37.796875 6.203125 41.984375 11.859375 
Q 46.1875 17.53125 46.1875 27.296875 
Q 46.1875 37.015625 41.984375 42.703125 
Q 37.796875 48.390625 30.609375 48.390625 
z
M 30.609375 56 
Q 42.328125 56 49.015625 48.375 
Q 55.71875 40.765625 55.71875 27.296875 
Q 55.71875 13.875 49.015625 6.21875 
Q 42.328125 -1.421875 30.609375 -1.421875 
Q 18.84375 -1.421875 12.171875 6.21875 
Q 5.515625 13.875 5.515625 27.296875 
Q 5.515625 40.765625 12.171875 48.375 
Q 18.84375 56 30.609375 56 
z
" id="DejaVuSans-111"/>
     <path d="M 11.71875 12.40625 
L 22.015625 12.40625 
L 22.015625 4 
L 14.015625 -11.625 
L 7.71875 -11.625 
L 11.71875 4 
z
" id="DejaVuSans-44"/>
     <path id="DejaVuSans-32"/>
     <path d="M 4.890625 31.390625 
L 31.203125 31.390625 
L 31.203125 23.390625 
L 4.890625 23.390625 
z
" id="DejaVuSans-45"/>
     <path d="M 37.109375 75.984375 
L 37.109375 68.5 
L 28.515625 68.5 
Q 23.6875 68.5 21.796875 66.546875 
Q 19.921875 64.59375 19.921875 59.515625 
L 19.921875 54.6875 
L 34.71875 54.6875 
L 34.71875 47.703125 
L 19.921875 47.703125 
L 19.921875 0 
L 10.890625 0 
L 10.890625 47.703125 
L 2.296875 47.703125 
L 2.296875 54.6875 
L 10.890625 54.6875 
L 10.890625 58.5 
Q 10.890625 67.625 15.140625 71.796875 
Q 19.390625 75.984375 28.609375 75.984375 
z
" id="DejaVuSans-102"/>
     <path d="M 64.40625 67.28125 
L 64.40625 56.890625 
Q 59.421875 61.53125 53.78125 63.8125 
Q 48.140625 66.109375 41.796875 66.109375 
Q 29.296875 66.109375 22.65625 58.46875 
Q 16.015625 50.828125 16.015625 36.375 
Q 16.015625 21.96875 22.65625 14.328125 
Q 29.296875 6.6875 41.796875 6.6875 
Q 48.140625 6.6875 53.78125 8.984375 
Q 59.421875 11.28125 64.40625 15.921875 
L 64.40625 5.609375 
Q 59.234375 2.09375 53.4375 0.328125 
Q 47.65625 -1.421875 41.21875 -1.421875 
Q 24.65625 -1.421875 15.125 8.703125 
Q 5.609375 18.84375 5.609375 36.375 
Q 5.609375 53.953125 15.125 64.078125 
Q 24.65625 74.21875 41.21875 74.21875 
Q 47.75 74.21875 53.53125 72.484375 
Q 59.328125 70.75 64.40625 67.28125 
z
" id="DejaVuSans-67"/>
     <path d="M 28.609375 0 
L 0.78125 72.90625 
L 11.078125 72.90625 
L 34.1875 11.53125 
L 57.328125 72.90625 
L 67.578125 72.90625 
L 39.796875 0 
z
" id="DejaVuSans-86"/>
    </defs>
    <g transform="translate(121.341563 37.2)scale(0.12 -0.12)">
     <use xlink:href="#DejaVuSans-76"/>
     <use x="55.712891" xlink:href="#DejaVuSans-105"/>
     <use x="83.496094" xlink:href="#DejaVuSans-112"/>
     <use x="146.972656" xlink:href="#DejaVuSans-105"/>
     <use x="174.755859" xlink:href="#DejaVuSans-100"/>
     <use x="238.232422" xlink:href="#DejaVuSans-111"/>
     <use x="299.414062" xlink:href="#DejaVuSans-109"/>
     <use x="396.826172" xlink:href="#DejaVuSans-105"/>
     <use x="424.609375" xlink:href="#DejaVuSans-99"/>
     <use x="479.589844" xlink:href="#DejaVuSans-115"/>
     <use x="531.689453" xlink:href="#DejaVuSans-44"/>
     <use x="563.476562" xlink:href="#DejaVuSans-32"/>
     <use x="595.263672" xlink:href="#DejaVuSans-53"/>
     <use x="658.886719" xlink:href="#DejaVuSans-45"/>
     <use x="694.970703" xlink:href="#DejaVuSans-102"/>
     <use x="730.175781" xlink:href="#DejaVuSans-111"/>
     <use x="791.357422" xlink:href="#DejaVuSans-108"/>
     <use x="819.140625" xlink:href="#DejaVuSans-100"/>
     <use x="882.617188" xlink:href="#DejaVuSans-32"/>
     <use x="914.404297" xlink:href="#DejaVuSans-67"/>
     <use x="984.228516" xlink:href="#DejaVuSans-86"/>
    </g>
   </g>
   <g id="legend_1">
    <g id="patch_7">
     <path d="M 52 310 
L 175.270312 310 
Q 177.270312 310 177.270312 308 
L 177.270312 205.41875 
Q 177.270312 203.41875 175.270312 203.41875 
L 52 203.41875 
Q 50 203.41875 50 205.41875 
L 50 308 
Q 50 310 52 310 
z
" style="fill:#ffffff;opacity:0.8;stroke:#cccccc;stroke-linejoin:miter;"/>
    </g>
    <g id="line2d_30">
     <path d="M 54 211.517187 
L 74 211.517187 
" style="fill:none;"/>
    </g>
    <g id="line2d_31"/>
    <g id="text_20">
     <!-- metric_type -->
     <g transform="translate(82 215.017187)scale(0.1 -0.1)">
      <use xlink:href="#DejaVuSans-109"/>
      <use x="97.412109" xlink:href="#DejaVuSans-101"/>
      <use x="158.935547" xlink:href="#DejaVuSans-116"/>
      <use x="198.144531" xlink:href="#DejaVuSans-114"/>
      <use x="239.257812" xlink:href="#DejaVuSans-105"/>
      <use x="267.041016" xlink:href="#DejaVuSans-99"/>
      <use x="322.021484" xlink:href="#DejaVuSans-95"/>
      <use x="372.021484" xlink:href="#DejaVuSans-116"/>
      <use x="411.230469" xlink:href="#DejaVuSans-121"/>
      <use x="470.410156" xlink:href="#DejaVuSans-112"/>
      <use x="533.886719" xlink:href="#DejaVuSans-101"/>
     </g>
    </g>
    <g id="line2d_32">
     <path d="M 54 226.473437 
L 74 226.473437 
" style="fill:none;stroke:#1f77b4;stroke-linecap:square;stroke-width:1.5;"/>
    </g>
    <g id="line2d_33"/>
    <g id="text_21">
     <!-- accuracy -->
     <defs>
      <path d="M 8.5 21.578125 
L 8.5 54.6875 
L 17.484375 54.6875 
L 17.484375 21.921875 
Q 17.484375 14.15625 20.5 10.265625 
Q 23.53125 6.390625 29.59375 6.390625 
Q 36.859375 6.390625 41.078125 11.03125 
Q 45.3125 15.671875 45.3125 23.6875 
L 45.3125 54.6875 
L 54.296875 54.6875 
L 54.296875 0 
L 45.3125 0 
L 45.3125 8.40625 
Q 42.046875 3.421875 37.71875 1 
Q 33.40625 -1.421875 27.6875 -1.421875 
Q 18.265625 -1.421875 13.375 4.4375 
Q 8.5 10.296875 8.5 21.578125 
z
M 31.109375 56 
z
" id="DejaVuSans-117"/>
     </defs>
     <g transform="translate(82 229.973437)scale(0.1 -0.1)">
      <use xlink:href="#DejaVuSans-97"/>
      <use x="61.279297" xlink:href="#DejaVuSans-99"/>
      <use x="116.259766" xlink:href="#DejaVuSans-99"/>
      <use x="171.240234" xlink:href="#DejaVuSans-117"/>
      <use x="234.619141" xlink:href="#DejaVuSans-114"/>
      <use x="275.732422" xlink:href="#DejaVuSans-97"/>
      <use x="337.011719" xlink:href="#DejaVuSans-99"/>
      <use x="391.992188" xlink:href="#DejaVuSans-121"/>
     </g>
    </g>
    <g id="line2d_34">
     <path d="M 54 241.151562 
L 74 241.151562 
" style="fill:none;stroke:#ff7f0e;stroke-linecap:square;stroke-width:1.5;"/>
    </g>
    <g id="line2d_35"/>
    <g id="text_22">
     <!-- recall -->
     <g transform="translate(82 244.651562)scale(0.1 -0.1)">
      <use xlink:href="#DejaVuSans-114"/>
      <use x="41.082031" xlink:href="#DejaVuSans-101"/>
      <use x="102.605469" xlink:href="#DejaVuSans-99"/>
      <use x="157.585938" xlink:href="#DejaVuSans-97"/>
      <use x="218.865234" xlink:href="#DejaVuSans-108"/>
      <use x="246.648438" xlink:href="#DejaVuSans-108"/>
     </g>
    </g>
    <g id="line2d_36">
     <path d="M 54 255.829687 
L 74 255.829687 
" style="fill:none;stroke:#2ca02c;stroke-linecap:square;stroke-width:1.5;"/>
    </g>
    <g id="line2d_37"/>
    <g id="text_23">
     <!-- precision -->
     <defs>
      <path d="M 54.890625 33.015625 
L 54.890625 0 
L 45.90625 0 
L 45.90625 32.71875 
Q 45.90625 40.484375 42.875 44.328125 
Q 39.84375 48.1875 33.796875 48.1875 
Q 26.515625 48.1875 22.3125 43.546875 
Q 18.109375 38.921875 18.109375 30.90625 
L 18.109375 0 
L 9.078125 0 
L 9.078125 54.6875 
L 18.109375 54.6875 
L 18.109375 46.1875 
Q 21.34375 51.125 25.703125 53.5625 
Q 30.078125 56 35.796875 56 
Q 45.21875 56 50.046875 50.171875 
Q 54.890625 44.34375 54.890625 33.015625 
z
" id="DejaVuSans-110"/>
     </defs>
     <g transform="translate(82 259.329687)scale(0.1 -0.1)">
      <use xlink:href="#DejaVuSans-112"/>
      <use x="63.476562" xlink:href="#DejaVuSans-114"/>
      <use x="104.558594" xlink:href="#DejaVuSans-101"/>
      <use x="166.082031" xlink:href="#DejaVuSans-99"/>
      <use x="221.0625" xlink:href="#DejaVuSans-105"/>
      <use x="248.845703" xlink:href="#DejaVuSans-115"/>
      <use x="300.945312" xlink:href="#DejaVuSans-105"/>
      <use x="328.728516" xlink:href="#DejaVuSans-111"/>
      <use x="389.910156" xlink:href="#DejaVuSans-110"/>
     </g>
    </g>
    <g id="line2d_38">
     <path d="M 54 270.507812 
L 74 270.507812 
" style="fill:none;stroke:#d62728;stroke-linecap:square;stroke-width:1.5;"/>
    </g>
    <g id="line2d_39"/>
    <g id="text_24">
     <!-- average_precision -->
     <defs>
      <path d="M 2.984375 54.6875 
L 12.5 54.6875 
L 29.59375 8.796875 
L 46.6875 54.6875 
L 56.203125 54.6875 
L 35.6875 0 
L 23.484375 0 
z
" id="DejaVuSans-118"/>
      <path d="M 45.40625 27.984375 
Q 45.40625 37.75 41.375 43.109375 
Q 37.359375 48.484375 30.078125 48.484375 
Q 22.859375 48.484375 18.828125 43.109375 
Q 14.796875 37.75 14.796875 27.984375 
Q 14.796875 18.265625 18.828125 12.890625 
Q 22.859375 7.515625 30.078125 7.515625 
Q 37.359375 7.515625 41.375 12.890625 
Q 45.40625 18.265625 45.40625 27.984375 
z
M 54.390625 6.78125 
Q 54.390625 -7.171875 48.1875 -13.984375 
Q 42 -20.796875 29.203125 -20.796875 
Q 24.46875 -20.796875 20.265625 -20.09375 
Q 16.0625 -19.390625 12.109375 -17.921875 
L 12.109375 -9.1875 
Q 16.0625 -11.328125 19.921875 -12.34375 
Q 23.78125 -13.375 27.78125 -13.375 
Q 36.625 -13.375 41.015625 -8.765625 
Q 45.40625 -4.15625 45.40625 5.171875 
L 45.40625 9.625 
Q 42.625 4.78125 38.28125 2.390625 
Q 33.9375 0 27.875 0 
Q 17.828125 0 11.671875 7.65625 
Q 5.515625 15.328125 5.515625 27.984375 
Q 5.515625 40.671875 11.671875 48.328125 
Q 17.828125 56 27.875 56 
Q 33.9375 56 38.28125 53.609375 
Q 42.625 51.21875 45.40625 46.390625 
L 45.40625 54.6875 
L 54.390625 54.6875 
z
" id="DejaVuSans-103"/>
     </defs>
     <g transform="translate(82 274.007812)scale(0.1 -0.1)">
      <use xlink:href="#DejaVuSans-97"/>
      <use x="61.279297" xlink:href="#DejaVuSans-118"/>
      <use x="120.458984" xlink:href="#DejaVuSans-101"/>
      <use x="181.982422" xlink:href="#DejaVuSans-114"/>
      <use x="223.095703" xlink:href="#DejaVuSans-97"/>
      <use x="284.375" xlink:href="#DejaVuSans-103"/>
      <use x="347.851562" xlink:href="#DejaVuSans-101"/>
      <use x="409.375" xlink:href="#DejaVuSans-95"/>
      <use x="459.375" xlink:href="#DejaVuSans-112"/>
      <use x="522.851562" xlink:href="#DejaVuSans-114"/>
      <use x="563.933594" xlink:href="#DejaVuSans-101"/>
      <use x="625.457031" xlink:href="#DejaVuSans-99"/>
      <use x="680.4375" xlink:href="#DejaVuSans-105"/>
      <use x="708.220703" xlink:href="#DejaVuSans-115"/>
      <use x="760.320312" xlink:href="#DejaVuSans-105"/>
      <use x="788.103516" xlink:href="#DejaVuSans-111"/>
      <use x="849.285156" xlink:href="#DejaVuSans-110"/>
     </g>
    </g>
    <g id="line2d_40">
     <path d="M 54 285.464062 
L 74 285.464062 
" style="fill:none;stroke:#9467bd;stroke-linecap:square;stroke-width:1.5;"/>
    </g>
    <g id="line2d_41"/>
    <g id="text_25">
     <!-- roc_auc -->
     <g transform="translate(82 288.964062)scale(0.1 -0.1)">
      <use xlink:href="#DejaVuSans-114"/>
      <use x="41.082031" xlink:href="#DejaVuSans-111"/>
      <use x="102.263672" xlink:href="#DejaVuSans-99"/>
      <use x="157.244141" xlink:href="#DejaVuSans-95"/>
      <use x="207.244141" xlink:href="#DejaVuSans-97"/>
      <use x="268.523438" xlink:href="#DejaVuSans-117"/>
      <use x="331.902344" xlink:href="#DejaVuSans-99"/>
     </g>
    </g>
    <g id="line2d_42">
     <path d="M 54 300.420312 
L 74 300.420312 
" style="fill:none;stroke:#8c564b;stroke-linecap:square;stroke-width:1.5;"/>
    </g>
    <g id="line2d_43"/>
    <g id="text_26">
     <!-- f1 -->
     <g transform="translate(82 303.920312)scale(0.1 -0.1)">
      <use xlink:href="#DejaVuSans-102"/>
      <use x="35.205078" xlink:href="#DejaVuSans-49"/>
     </g>
    </g>
   </g>
  </g>
 </g>
 <defs>
  <clipPath id="p5330de1604">
   <rect height="271.8" width="279" x="45" y="43.2"/>
  </clipPath>
 </defs>
</svg>
