<?xml version="1.0" encoding="utf-8" standalone="no"?>
<!DOCTYPE svg PUBLIC "-//W3C//DTD SVG 1.1//EN"
  "http://www.w3.org/Graphics/SVG/1.1/DTD/svg11.dtd">
<!-- Created with matplotlib (https://matplotlib.org/) -->
<svg height="360pt" version="1.1" viewBox="0 0 360 360" width="360pt" xmlns="http://www.w3.org/2000/svg" xmlns:xlink="http://www.w3.org/1999/xlink">
 <defs>
  <style type="text/css">
*{stroke-linecap:butt;stroke-linejoin:round;}
  </style>
 </defs>
 <g id="figure_1">
  <g id="patch_1">
   <path d="M 0 360 
L 360 360 
L 360 0 
L 0 0 
z
" style="fill:#ffffff;"/>
  </g>
  <g id="axes_1">
   <g id="patch_2">
    <path d="M 45 315 
L 324 315 
L 324 43.2 
L 45 43.2 
z
" style="fill:#ffffff;"/>
   </g>
   <g id="PolyCollection_1">
    <defs>
     <path d="M 57.681818 -259.004666 
L 57.681818 -230.647618 
L 65.367769 -230.647618 
L 73.053719 -230.647618 
L 80.739669 -230.647618 
L 88.42562 -230.568848 
L 96.11157 -230.647618 
L 103.797521 -230.647618 
L 111.483471 -230.568848 
L 119.169421 -230.647618 
L 126.855372 -230.647618 
L 134.541322 -227.496835 
L 142.227273 -227.496835 
L 149.913223 -227.496835 
L 157.599174 -227.496835 
L 165.285124 -230.647618 
L 172.971074 -230.647618 
L 180.657025 -214.893702 
L 188.342975 -233.798401 
L 196.028926 -236.949184 
L 203.714876 -236.949184 
L 211.400826 -224.346051 
L 219.086777 -224.346051 
L 226.772727 -240.099967 
L 234.458678 -243.25075 
L 242.144628 -236.949184 
L 249.830579 -240.021197 
L 257.516529 -227.496835 
L 265.202479 -230.647618 
L 272.88843 -230.647618 
L 280.57438 -243.25075 
L 288.260331 -233.798401 
L 295.946281 -227.496835 
L 303.632231 -236.949184 
L 311.318182 -236.949184 
L 311.318182 -284.210931 
L 311.318182 -284.210931 
L 303.632231 -268.457015 
L 295.946281 -271.607798 
L 288.260331 -268.457015 
L 280.57438 -274.758582 
L 272.88843 -281.060148 
L 265.202479 -281.060148 
L 257.516529 -281.060148 
L 249.830579 -277.909365 
L 242.144628 -277.909365 
L 234.458678 -281.060148 
L 226.772727 -268.457015 
L 219.086777 -271.607798 
L 211.400826 -252.7031 
L 203.714876 -255.853883 
L 196.028926 -265.306232 
L 188.342975 -262.155449 
L 180.657025 -259.004666 
L 172.971074 -262.155449 
L 165.285124 -268.457015 
L 157.599174 -268.457015 
L 149.913223 -268.457015 
L 142.227273 -268.457015 
L 134.541322 -268.457015 
L 126.855372 -259.004666 
L 119.169421 -259.004666 
L 111.483471 -259.004666 
L 103.797521 -259.004666 
L 96.11157 -259.004666 
L 88.42562 -259.004666 
L 80.739669 -259.004666 
L 73.053719 -259.004666 
L 65.367769 -259.004666 
L 57.681818 -259.004666 
z
" id="m6b75f6e598" style="stroke:#1f77b4;stroke-opacity:0.2;"/>
    </defs>
    <g clip-path="url(#p8d1495ab84)">
     <use style="fill:#1f77b4;fill-opacity:0.2;stroke:#1f77b4;stroke-opacity:0.2;" x="0" xlink:href="#m6b75f6e598" y="360"/>
    </g>
   </g>
   <g id="PolyCollection_2">
    <defs>
     <path d="M 57.681818 -173.303365 
L 57.681818 -57.354545 
L 65.367769 -57.354545 
L 73.053719 -57.354545 
L 80.739669 -57.354545 
L 88.42562 -57.354545 
L 96.11157 -57.354545 
L 103.797521 -57.354545 
L 111.483471 -57.354545 
L 119.169421 -57.354545 
L 126.855372 -57.354545 
L 134.541322 -104.40624 
L 142.227273 -104.40624 
L 149.913223 -90.962899 
L 157.599174 -104.40624 
L 165.285124 -104.40624 
L 172.971074 -99.154935 
L 180.657025 -120.970357 
L 188.342975 -149.777517 
L 196.028926 -154.692739 
L 203.714876 -141.375429 
L 211.400826 -188.427124 
L 219.086777 -155.658979 
L 226.772727 -218.674642 
L 234.458678 -233.798401 
L 242.144628 -224.436074 
L 249.830579 -224.436074 
L 257.516529 -213.633389 
L 265.202479 -227.916939 
L 272.88843 -232.117983 
L 280.57438 -251.248892 
L 288.260331 -251.248892 
L 295.946281 -263.011816 
L 303.632231 -256.290145 
L 311.318182 -272.176576 
L 311.318182 -298.614511 
L 311.318182 -298.614511 
L 303.632231 -301.661422 
L 295.946281 -296.620169 
L 288.260331 -304.375943 
L 280.57438 -304.375943 
L 272.88843 -295.133646 
L 265.202479 -295.133646 
L 257.516529 -275.503312 
L 249.830579 -274.128425 
L 242.144628 -274.128425 
L 234.458678 -284.210931 
L 226.772727 -252.282995 
L 219.086777 -237.399296 
L 211.400826 -226.83667 
L 203.714876 -218.674642 
L 196.028926 -206.071509 
L 188.342975 -200.670167 
L 180.657025 -186.506646 
L 172.971074 -190.107541 
L 165.285124 -195.148794 
L 157.599174 -195.148794 
L 149.913223 -195.148794 
L 142.227273 -195.148794 
L 134.541322 -195.148794 
L 126.855372 -173.303365 
L 119.169421 -173.303365 
L 111.483471 -173.303365 
L 103.797521 -173.303365 
L 96.11157 -173.303365 
L 88.42562 -173.303365 
L 80.739669 -173.303365 
L 73.053719 -173.303365 
L 65.367769 -173.303365 
L 57.681818 -173.303365 
z
" id="mf4bd8ccd1c" style="stroke:#ff7f0e;stroke-opacity:0.2;"/>
    </defs>
    <g clip-path="url(#p8d1495ab84)">
     <use style="fill:#ff7f0e;fill-opacity:0.2;stroke:#ff7f0e;stroke-opacity:0.2;" x="0" xlink:href="#mf4bd8ccd1c" y="360"/>
    </g>
   </g>
   <g id="PolyCollection_3">
    <defs>
     <path d="M 57.681818 -195.989003 
L 57.681818 -57.354545 
L 65.367769 -57.354545 
L 73.053719 -57.354545 
L 80.739669 -57.354545 
L 88.42562 -57.354545 
L 96.11157 -57.354545 
L 103.797521 -57.354545 
L 111.483471 -57.354545 
L 119.169421 -57.354545 
L 126.855372 -57.354545 
L 134.541322 -120.05513 
L 142.227273 -120.370208 
L 149.913223 -120.370208 
L 157.599174 -120.370208 
L 165.285124 -120.370208 
L 172.971074 -120.370208 
L 180.657025 -163.220859 
L 188.342975 -197.789451 
L 196.028926 -187.466885 
L 203.714876 -179.100806 
L 211.400826 -194.188556 
L 219.086777 -174.983782 
L 226.772727 -224.796163 
L 234.458678 -227.754899 
L 242.144628 -225.352665 
L 249.830579 -234.312347 
L 257.516529 -222.515596 
L 265.202479 -206.791688 
L 272.88843 -206.791688 
L 280.57438 -216.93821 
L 288.260331 -218.394572 
L 295.946281 -209.165005 
L 303.632231 -212.847739 
L 311.318182 -214.299827 
L 311.318182 -294.713541 
L 311.318182 -294.713541 
L 303.632231 -278.864147 
L 295.946281 -284.225253 
L 288.260331 -271.607798 
L 280.57438 -286.731557 
L 272.88843 -295.013616 
L 265.202479 -295.013616 
L 257.516529 -288.131905 
L 249.830579 -290.168775 
L 242.144628 -289.252184 
L 234.458678 -289.294194 
L 226.772727 -273.728325 
L 219.086777 -280.009887 
L 211.400826 -244.601086 
L 203.714876 -272.532028 
L 196.028926 -295.013616 
L 188.342975 -271.007649 
L 180.657025 -264.045919 
L 172.971074 -259.004666 
L 165.285124 -259.319744 
L 157.599174 -271.607798 
L 149.913223 -259.319744 
L 142.227273 -259.004666 
L 134.541322 -259.319744 
L 126.855372 -195.989003 
L 119.169421 -195.989003 
L 111.483471 -195.989003 
L 103.797521 -195.989003 
L 96.11157 -195.989003 
L 88.42562 -195.989003 
L 80.739669 -195.989003 
L 73.053719 -195.989003 
L 65.367769 -195.989003 
L 57.681818 -195.989003 
z
" id="md579fbcb8e" style="stroke:#2ca02c;stroke-opacity:0.2;"/>
    </defs>
    <g clip-path="url(#p8d1495ab84)">
     <use style="fill:#2ca02c;fill-opacity:0.2;stroke:#2ca02c;stroke-opacity:0.2;" x="0" xlink:href="#md579fbcb8e" y="360"/>
    </g>
   </g>
   <g id="PolyCollection_4">
    <defs>
     <path d="M 57.681818 -219.584868 
L 57.681818 -170.424572 
L 65.367769 -170.424572 
L 73.053719 -170.424572 
L 80.739669 -170.424572 
L 88.42562 -170.424572 
L 96.11157 -171.404816 
L 103.797521 -172.360553 
L 111.483471 -171.404816 
L 119.169421 -170.424572 
L 126.855372 -170.424572 
L 134.541322 -197.165296 
L 142.227273 -197.259819 
L 149.913223 -197.262243 
L 157.599174 -197.262243 
L 165.285124 -197.262243 
L 172.971074 -192.55565 
L 180.657025 -190.351192 
L 188.342975 -215.502425 
L 196.028926 -210.459267 
L 203.714876 -214.263545 
L 211.400826 -220.339055 
L 219.086777 -218.939279 
L 226.772727 -242.858622 
L 234.458678 -239.054476 
L 242.144628 -241.218277 
L 249.830579 -241.426624 
L 257.516529 -239.309512 
L 265.202479 -253.402658 
L 272.88843 -250.981133 
L 280.57438 -246.400918 
L 288.260331 -240.198453 
L 295.946281 -255.234542 
L 303.632231 -274.193903 
L 311.318182 -270.336573 
L 311.318182 -304.445455 
L 311.318182 -304.445455 
L 303.632231 -300.368651 
L 295.946281 -301.234712 
L 288.260331 -303.471422 
L 280.57438 -304.259464 
L 272.88843 -299.8065 
L 265.202479 -299.442409 
L 257.516529 -300.242552 
L 249.830579 -294.899224 
L 242.144628 -294.899224 
L 234.458678 -292.289484 
L 226.772727 -279.712601 
L 219.086777 -286.847586 
L 211.400826 -264.489687 
L 203.714876 -263.724475 
L 196.028926 -255.287075 
L 188.342975 -260.853257 
L 180.657025 -218.674422 
L 172.971074 -235.063336 
L 165.285124 -233.385221 
L 157.599174 -233.385221 
L 149.913223 -233.482168 
L 142.227273 -235.72488 
L 134.541322 -233.385221 
L 126.855372 -219.584868 
L 119.169421 -219.584868 
L 111.483471 -219.659935 
L 103.797521 -218.604624 
L 96.11157 -219.584868 
L 88.42562 -219.565363 
L 80.739669 -219.584868 
L 73.053719 -218.604624 
L 65.367769 -219.584868 
L 57.681818 -219.584868 
z
" id="mdf7d7f8582" style="stroke:#d62728;stroke-opacity:0.2;"/>
    </defs>
    <g clip-path="url(#p8d1495ab84)">
     <use style="fill:#d62728;fill-opacity:0.2;stroke:#d62728;stroke-opacity:0.2;" x="0" xlink:href="#mdf7d7f8582" y="360"/>
    </g>
   </g>
   <g id="PolyCollection_5">
    <defs>
     <path d="M 57.681818 -262.647529 
L 57.681818 -239.033548 
L 65.367769 -239.497719 
L 73.053719 -239.033548 
L 80.739669 -238.322602 
L 88.42562 -239.033548 
L 96.11157 -239.033548 
L 103.797521 -239.033548 
L 111.483471 -238.916036 
L 119.169421 -239.033548 
L 126.855372 -238.322602 
L 134.541322 -247.206489 
L 142.227273 -247.206489 
L 149.913223 -247.206489 
L 157.599174 -247.206489 
L 165.285124 -247.190331 
L 172.971074 -239.732743 
L 180.657025 -242.793364 
L 188.342975 -251.161598 
L 196.028926 -252.908378 
L 203.714876 -253.819718 
L 211.400826 -246.521563 
L 219.086777 -250.962667 
L 226.772727 -254.880004 
L 234.458678 -249.953325 
L 242.144628 -241.72037 
L 249.830579 -241.72037 
L 257.516529 -232.406328 
L 265.202479 -240.562628 
L 272.88843 -240.585542 
L 280.57438 -247.112983 
L 288.260331 -237.435305 
L 295.946281 -246.281504 
L 303.632231 -262.68058 
L 311.318182 -262.671032 
L 311.318182 -301.941247 
L 311.318182 -301.941247 
L 303.632231 -298.300587 
L 295.946281 -297.219479 
L 288.260331 -299.105542 
L 280.57438 -301.332389 
L 272.88843 -298.933681 
L 265.202479 -298.475385 
L 257.516529 -297.501507 
L 249.830579 -295.439176 
L 242.144628 -295.668324 
L 234.458678 -293.529611 
L 226.772727 -286.633351 
L 219.086777 -284.21966 
L 211.400826 -279.663437 
L 203.714876 -277.121669 
L 196.028926 -272.50052 
L 188.342975 -277.101472 
L 180.657025 -261.913081 
L 172.971074 -265.467811 
L 165.285124 -264.821496 
L 157.599174 -264.821496 
L 149.913223 -264.821496 
L 142.227273 -264.821496 
L 134.541322 -264.821496 
L 126.855372 -262.647529 
L 119.169421 -262.647529 
L 111.483471 -262.647529 
L 103.797521 -262.530018 
L 96.11157 -262.647529 
L 88.42562 -262.530018 
L 80.739669 -262.183358 
L 73.053719 -262.530018 
L 65.367769 -262.530018 
L 57.681818 -262.647529 
z
" id="m653ccd2dd7" style="stroke:#9467bd;stroke-opacity:0.2;"/>
    </defs>
    <g clip-path="url(#p8d1495ab84)">
     <use style="fill:#9467bd;fill-opacity:0.2;stroke:#9467bd;stroke-opacity:0.2;" x="0" xlink:href="#m653ccd2dd7" y="360"/>
    </g>
   </g>
   <g id="PolyCollection_6">
    <defs>
     <path d="M 57.681818 -183.385871 
L 57.681818 -57.354545 
L 65.367769 -57.354545 
L 73.053719 -57.354545 
L 80.739669 -57.354545 
L 88.42562 -57.354545 
L 96.11157 -57.354545 
L 103.797521 -57.354545 
L 111.483471 -57.354545 
L 119.169421 -57.354545 
L 126.855372 -57.354545 
L 134.541322 -111.127911 
L 142.227273 -105.017301 
L 149.913223 -111.127911 
L 157.599174 -105.017301 
L 165.285124 -111.127911 
L 172.971074 -102.725823 
L 180.657025 -139.436485 
L 188.342975 -175.463902 
L 196.028926 -168.220101 
L 203.714876 -159.619964 
L 211.400826 -191.787959 
L 219.086777 -164.981296 
L 226.772727 -224.362209 
L 234.458678 -233.456234 
L 242.144628 -227.31679 
L 249.830579 -227.31679 
L 257.516529 -220.797275 
L 265.202479 -221.195268 
L 272.88843 -221.680004 
L 280.57438 -239.321946 
L 288.260331 -237.399296 
L 295.946281 -237.579341 
L 303.632231 -240.952179 
L 311.318182 -239.552005 
L 311.318182 -290.038466 
L 311.318182 -290.038466 
L 303.632231 -278.069768 
L 295.946281 -278.50133 
L 288.260331 -275.712819 
L 280.57438 -278.458732 
L 272.88843 -282.197052 
L 265.202479 -281.745101 
L 257.516529 -280.506661 
L 249.830579 -275.008644 
L 242.144628 -273.728325 
L 234.458678 -275.503312 
L 226.772727 -260.729305 
L 219.086777 -256.419408 
L 211.400826 -234.15143 
L 203.714876 -226.236521 
L 196.028926 -218.674642 
L 188.342975 -212.283053 
L 180.657025 -191.529433 
L 172.971074 -203.550883 
L 165.285124 -203.581436 
L 157.599174 -204.799739 
L 149.913223 -205.842361 
L 142.227273 -204.773005 
L 134.541322 -205.911106 
L 126.855372 -183.385871 
L 119.169421 -183.385871 
L 111.483471 -183.385871 
L 103.797521 -183.385871 
L 96.11157 -183.385871 
L 88.42562 -183.385871 
L 80.739669 -183.385871 
L 73.053719 -174.983782 
L 65.367769 -183.385871 
L 57.681818 -183.385871 
z
" id="mf72dd4d51b" style="stroke:#8c564b;stroke-opacity:0.2;"/>
    </defs>
    <g clip-path="url(#p8d1495ab84)">
     <use style="fill:#8c564b;fill-opacity:0.2;stroke:#8c564b;stroke-opacity:0.2;" x="0" xlink:href="#mf72dd4d51b" y="360"/>
    </g>
   </g>
   <g id="matplotlib.axis_1">
    <g id="xtick_1">
     <g id="line2d_1">
      <defs>
       <path d="M 0 0 
L 0 3.5 
" id="mcb0925a0db" style="stroke:#000000;stroke-width:0.8;"/>
      </defs>
      <g>
       <use style="stroke:#000000;stroke-width:0.8;" x="49.995868" xlink:href="#mcb0925a0db" y="315"/>
      </g>
     </g>
     <g id="text_1">
      <!-- 0 -->
      <defs>
       <path d="M 31.78125 66.40625 
Q 24.171875 66.40625 20.328125 58.90625 
Q 16.5 51.421875 16.5 36.375 
Q 16.5 21.390625 20.328125 13.890625 
Q 24.171875 6.390625 31.78125 6.390625 
Q 39.453125 6.390625 43.28125 13.890625 
Q 47.125 21.390625 47.125 36.375 
Q 47.125 51.421875 43.28125 58.90625 
Q 39.453125 66.40625 31.78125 66.40625 
z
M 31.78125 74.21875 
Q 44.046875 74.21875 50.515625 64.515625 
Q 56.984375 54.828125 56.984375 36.375 
Q 56.984375 17.96875 50.515625 8.265625 
Q 44.046875 -1.421875 31.78125 -1.421875 
Q 19.53125 -1.421875 13.0625 8.265625 
Q 6.59375 17.96875 6.59375 36.375 
Q 6.59375 54.828125 13.0625 64.515625 
Q 19.53125 74.21875 31.78125 74.21875 
z
" id="DejaVuSans-48"/>
      </defs>
      <g transform="translate(46.814618 329.598437)scale(0.1 -0.1)">
       <use xlink:href="#DejaVuSans-48"/>
      </g>
     </g>
    </g>
    <g id="xtick_2">
     <g id="line2d_2">
      <g>
       <use style="stroke:#000000;stroke-width:0.8;" x="88.42562" xlink:href="#mcb0925a0db" y="315"/>
      </g>
     </g>
     <g id="text_2">
      <!-- 5 -->
      <defs>
       <path d="M 10.796875 72.90625 
L 49.515625 72.90625 
L 49.515625 64.59375 
L 19.828125 64.59375 
L 19.828125 46.734375 
Q 21.96875 47.46875 24.109375 47.828125 
Q 26.265625 48.1875 28.421875 48.1875 
Q 40.625 48.1875 47.75 41.5 
Q 54.890625 34.8125 54.890625 23.390625 
Q 54.890625 11.625 47.5625 5.09375 
Q 40.234375 -1.421875 26.90625 -1.421875 
Q 22.3125 -1.421875 17.546875 -0.640625 
Q 12.796875 0.140625 7.71875 1.703125 
L 7.71875 11.625 
Q 12.109375 9.234375 16.796875 8.0625 
Q 21.484375 6.890625 26.703125 6.890625 
Q 35.15625 6.890625 40.078125 11.328125 
Q 45.015625 15.765625 45.015625 23.390625 
Q 45.015625 31 40.078125 35.4375 
Q 35.15625 39.890625 26.703125 39.890625 
Q 22.75 39.890625 18.8125 39.015625 
Q 14.890625 38.140625 10.796875 36.28125 
z
" id="DejaVuSans-53"/>
      </defs>
      <g transform="translate(85.24437 329.598437)scale(0.1 -0.1)">
       <use xlink:href="#DejaVuSans-53"/>
      </g>
     </g>
    </g>
    <g id="xtick_3">
     <g id="line2d_3">
      <g>
       <use style="stroke:#000000;stroke-width:0.8;" x="126.855372" xlink:href="#mcb0925a0db" y="315"/>
      </g>
     </g>
     <g id="text_3">
      <!-- 10 -->
      <defs>
       <path d="M 12.40625 8.296875 
L 28.515625 8.296875 
L 28.515625 63.921875 
L 10.984375 60.40625 
L 10.984375 69.390625 
L 28.421875 72.90625 
L 38.28125 72.90625 
L 38.28125 8.296875 
L 54.390625 8.296875 
L 54.390625 0 
L 12.40625 0 
z
" id="DejaVuSans-49"/>
      </defs>
      <g transform="translate(120.492872 329.598437)scale(0.1 -0.1)">
       <use xlink:href="#DejaVuSans-49"/>
       <use x="63.623047" xlink:href="#DejaVuSans-48"/>
      </g>
     </g>
    </g>
    <g id="xtick_4">
     <g id="line2d_4">
      <g>
       <use style="stroke:#000000;stroke-width:0.8;" x="165.285124" xlink:href="#mcb0925a0db" y="315"/>
      </g>
     </g>
     <g id="text_4">
      <!-- 15 -->
      <g transform="translate(158.922624 329.598437)scale(0.1 -0.1)">
       <use xlink:href="#DejaVuSans-49"/>
       <use x="63.623047" xlink:href="#DejaVuSans-53"/>
      </g>
     </g>
    </g>
    <g id="xtick_5">
     <g id="line2d_5">
      <g>
       <use style="stroke:#000000;stroke-width:0.8;" x="203.714876" xlink:href="#mcb0925a0db" y="315"/>
      </g>
     </g>
     <g id="text_5">
      <!-- 20 -->
      <defs>
       <path d="M 19.1875 8.296875 
L 53.609375 8.296875 
L 53.609375 0 
L 7.328125 0 
L 7.328125 8.296875 
Q 12.9375 14.109375 22.625 23.890625 
Q 32.328125 33.6875 34.8125 36.53125 
Q 39.546875 41.84375 41.421875 45.53125 
Q 43.3125 49.21875 43.3125 52.78125 
Q 43.3125 58.59375 39.234375 62.25 
Q 35.15625 65.921875 28.609375 65.921875 
Q 23.96875 65.921875 18.8125 64.3125 
Q 13.671875 62.703125 7.8125 59.421875 
L 7.8125 69.390625 
Q 13.765625 71.78125 18.9375 73 
Q 24.125 74.21875 28.421875 74.21875 
Q 39.75 74.21875 46.484375 68.546875 
Q 53.21875 62.890625 53.21875 53.421875 
Q 53.21875 48.921875 51.53125 44.890625 
Q 49.859375 40.875 45.40625 35.40625 
Q 44.1875 33.984375 37.640625 27.21875 
Q 31.109375 20.453125 19.1875 8.296875 
z
" id="DejaVuSans-50"/>
      </defs>
      <g transform="translate(197.352376 329.598437)scale(0.1 -0.1)">
       <use xlink:href="#DejaVuSans-50"/>
       <use x="63.623047" xlink:href="#DejaVuSans-48"/>
      </g>
     </g>
    </g>
    <g id="xtick_6">
     <g id="line2d_6">
      <g>
       <use style="stroke:#000000;stroke-width:0.8;" x="242.144628" xlink:href="#mcb0925a0db" y="315"/>
      </g>
     </g>
     <g id="text_6">
      <!-- 25 -->
      <g transform="translate(235.782128 329.598437)scale(0.1 -0.1)">
       <use xlink:href="#DejaVuSans-50"/>
       <use x="63.623047" xlink:href="#DejaVuSans-53"/>
      </g>
     </g>
    </g>
    <g id="xtick_7">
     <g id="line2d_7">
      <g>
       <use style="stroke:#000000;stroke-width:0.8;" x="280.57438" xlink:href="#mcb0925a0db" y="315"/>
      </g>
     </g>
     <g id="text_7">
      <!-- 30 -->
      <defs>
       <path d="M 40.578125 39.3125 
Q 47.65625 37.796875 51.625 33 
Q 55.609375 28.21875 55.609375 21.1875 
Q 55.609375 10.40625 48.1875 4.484375 
Q 40.765625 -1.421875 27.09375 -1.421875 
Q 22.515625 -1.421875 17.65625 -0.515625 
Q 12.796875 0.390625 7.625 2.203125 
L 7.625 11.71875 
Q 11.71875 9.328125 16.59375 8.109375 
Q 21.484375 6.890625 26.8125 6.890625 
Q 36.078125 6.890625 40.9375 10.546875 
Q 45.796875 14.203125 45.796875 21.1875 
Q 45.796875 27.640625 41.28125 31.265625 
Q 36.765625 34.90625 28.71875 34.90625 
L 20.21875 34.90625 
L 20.21875 43.015625 
L 29.109375 43.015625 
Q 36.375 43.015625 40.234375 45.921875 
Q 44.09375 48.828125 44.09375 54.296875 
Q 44.09375 59.90625 40.109375 62.90625 
Q 36.140625 65.921875 28.71875 65.921875 
Q 24.65625 65.921875 20.015625 65.03125 
Q 15.375 64.15625 9.8125 62.3125 
L 9.8125 71.09375 
Q 15.4375 72.65625 20.34375 73.4375 
Q 25.25 74.21875 29.59375 74.21875 
Q 40.828125 74.21875 47.359375 69.109375 
Q 53.90625 64.015625 53.90625 55.328125 
Q 53.90625 49.265625 50.4375 45.09375 
Q 46.96875 40.921875 40.578125 39.3125 
z
" id="DejaVuSans-51"/>
      </defs>
      <g transform="translate(274.21188 329.598437)scale(0.1 -0.1)">
       <use xlink:href="#DejaVuSans-51"/>
       <use x="63.623047" xlink:href="#DejaVuSans-48"/>
      </g>
     </g>
    </g>
    <g id="xtick_8">
     <g id="line2d_8">
      <g>
       <use style="stroke:#000000;stroke-width:0.8;" x="319.004132" xlink:href="#mcb0925a0db" y="315"/>
      </g>
     </g>
     <g id="text_8">
      <!-- 35 -->
      <g transform="translate(312.641632 329.598437)scale(0.1 -0.1)">
       <use xlink:href="#DejaVuSans-51"/>
       <use x="63.623047" xlink:href="#DejaVuSans-53"/>
      </g>
     </g>
    </g>
    <g id="text_9">
     <!-- day -->
     <defs>
      <path d="M 45.40625 46.390625 
L 45.40625 75.984375 
L 54.390625 75.984375 
L 54.390625 0 
L 45.40625 0 
L 45.40625 8.203125 
Q 42.578125 3.328125 38.25 0.953125 
Q 33.9375 -1.421875 27.875 -1.421875 
Q 17.96875 -1.421875 11.734375 6.484375 
Q 5.515625 14.40625 5.515625 27.296875 
Q 5.515625 40.1875 11.734375 48.09375 
Q 17.96875 56 27.875 56 
Q 33.9375 56 38.25 53.625 
Q 42.578125 51.265625 45.40625 46.390625 
z
M 14.796875 27.296875 
Q 14.796875 17.390625 18.875 11.75 
Q 22.953125 6.109375 30.078125 6.109375 
Q 37.203125 6.109375 41.296875 11.75 
Q 45.40625 17.390625 45.40625 27.296875 
Q 45.40625 37.203125 41.296875 42.84375 
Q 37.203125 48.484375 30.078125 48.484375 
Q 22.953125 48.484375 18.875 42.84375 
Q 14.796875 37.203125 14.796875 27.296875 
z
" id="DejaVuSans-100"/>
      <path d="M 34.28125 27.484375 
Q 23.390625 27.484375 19.1875 25 
Q 14.984375 22.515625 14.984375 16.5 
Q 14.984375 11.71875 18.140625 8.90625 
Q 21.296875 6.109375 26.703125 6.109375 
Q 34.1875 6.109375 38.703125 11.40625 
Q 43.21875 16.703125 43.21875 25.484375 
L 43.21875 27.484375 
z
M 52.203125 31.203125 
L 52.203125 0 
L 43.21875 0 
L 43.21875 8.296875 
Q 40.140625 3.328125 35.546875 0.953125 
Q 30.953125 -1.421875 24.3125 -1.421875 
Q 15.921875 -1.421875 10.953125 3.296875 
Q 6 8.015625 6 15.921875 
Q 6 25.140625 12.171875 29.828125 
Q 18.359375 34.515625 30.609375 34.515625 
L 43.21875 34.515625 
L 43.21875 35.40625 
Q 43.21875 41.609375 39.140625 45 
Q 35.0625 48.390625 27.6875 48.390625 
Q 23 48.390625 18.546875 47.265625 
Q 14.109375 46.140625 10.015625 43.890625 
L 10.015625 52.203125 
Q 14.9375 54.109375 19.578125 55.046875 
Q 24.21875 56 28.609375 56 
Q 40.484375 56 46.34375 49.84375 
Q 52.203125 43.703125 52.203125 31.203125 
z
" id="DejaVuSans-97"/>
      <path d="M 32.171875 -5.078125 
Q 28.375 -14.84375 24.75 -17.8125 
Q 21.140625 -20.796875 15.09375 -20.796875 
L 7.90625 -20.796875 
L 7.90625 -13.28125 
L 13.1875 -13.28125 
Q 16.890625 -13.28125 18.9375 -11.515625 
Q 21 -9.765625 23.484375 -3.21875 
L 25.09375 0.875 
L 2.984375 54.6875 
L 12.5 54.6875 
L 29.59375 11.921875 
L 46.6875 54.6875 
L 56.203125 54.6875 
z
" id="DejaVuSans-121"/>
     </defs>
     <g transform="translate(175.302344 343.276563)scale(0.1 -0.1)">
      <use xlink:href="#DejaVuSans-100"/>
      <use x="63.476562" xlink:href="#DejaVuSans-97"/>
      <use x="124.755859" xlink:href="#DejaVuSans-121"/>
     </g>
    </g>
   </g>
   <g id="matplotlib.axis_2">
    <g id="ytick_1">
     <g id="line2d_9">
      <defs>
       <path d="M 0 0 
L -3.5 0 
" id="mcad373a3c8" style="stroke:#000000;stroke-width:0.8;"/>
      </defs>
      <g>
       <use style="stroke:#000000;stroke-width:0.8;" x="45" xlink:href="#mcad373a3c8" y="302.645455"/>
      </g>
     </g>
     <g id="text_10">
      <!-- 0.0 -->
      <defs>
       <path d="M 10.6875 12.40625 
L 21 12.40625 
L 21 0 
L 10.6875 0 
z
" id="DejaVuSans-46"/>
      </defs>
      <g transform="translate(22.096875 306.444673)scale(0.1 -0.1)">
       <use xlink:href="#DejaVuSans-48"/>
       <use x="63.623047" xlink:href="#DejaVuSans-46"/>
       <use x="95.410156" xlink:href="#DejaVuSans-48"/>
      </g>
     </g>
    </g>
    <g id="ytick_2">
     <g id="line2d_10">
      <g>
       <use style="stroke:#000000;stroke-width:0.8;" x="45" xlink:href="#mcad373a3c8" y="252.232924"/>
      </g>
     </g>
     <g id="text_11">
      <!-- 0.2 -->
      <g transform="translate(22.096875 256.032143)scale(0.1 -0.1)">
       <use xlink:href="#DejaVuSans-48"/>
       <use x="63.623047" xlink:href="#DejaVuSans-46"/>
       <use x="95.410156" xlink:href="#DejaVuSans-50"/>
      </g>
     </g>
    </g>
    <g id="ytick_3">
     <g id="line2d_11">
      <g>
       <use style="stroke:#000000;stroke-width:0.8;" x="45" xlink:href="#mcad373a3c8" y="201.820394"/>
      </g>
     </g>
     <g id="text_12">
      <!-- 0.4 -->
      <defs>
       <path d="M 37.796875 64.3125 
L 12.890625 25.390625 
L 37.796875 25.390625 
z
M 35.203125 72.90625 
L 47.609375 72.90625 
L 47.609375 25.390625 
L 58.015625 25.390625 
L 58.015625 17.1875 
L 47.609375 17.1875 
L 47.609375 0 
L 37.796875 0 
L 37.796875 17.1875 
L 4.890625 17.1875 
L 4.890625 26.703125 
z
" id="DejaVuSans-52"/>
      </defs>
      <g transform="translate(22.096875 205.619613)scale(0.1 -0.1)">
       <use xlink:href="#DejaVuSans-48"/>
       <use x="63.623047" xlink:href="#DejaVuSans-46"/>
       <use x="95.410156" xlink:href="#DejaVuSans-52"/>
      </g>
     </g>
    </g>
    <g id="ytick_4">
     <g id="line2d_12">
      <g>
       <use style="stroke:#000000;stroke-width:0.8;" x="45" xlink:href="#mcad373a3c8" y="151.407864"/>
      </g>
     </g>
     <g id="text_13">
      <!-- 0.6 -->
      <defs>
       <path d="M 33.015625 40.375 
Q 26.375 40.375 22.484375 35.828125 
Q 18.609375 31.296875 18.609375 23.390625 
Q 18.609375 15.53125 22.484375 10.953125 
Q 26.375 6.390625 33.015625 6.390625 
Q 39.65625 6.390625 43.53125 10.953125 
Q 47.40625 15.53125 47.40625 23.390625 
Q 47.40625 31.296875 43.53125 35.828125 
Q 39.65625 40.375 33.015625 40.375 
z
M 52.59375 71.296875 
L 52.59375 62.3125 
Q 48.875 64.0625 45.09375 64.984375 
Q 41.3125 65.921875 37.59375 65.921875 
Q 27.828125 65.921875 22.671875 59.328125 
Q 17.53125 52.734375 16.796875 39.40625 
Q 19.671875 43.65625 24.015625 45.921875 
Q 28.375 48.1875 33.59375 48.1875 
Q 44.578125 48.1875 50.953125 41.515625 
Q 57.328125 34.859375 57.328125 23.390625 
Q 57.328125 12.15625 50.6875 5.359375 
Q 44.046875 -1.421875 33.015625 -1.421875 
Q 20.359375 -1.421875 13.671875 8.265625 
Q 6.984375 17.96875 6.984375 36.375 
Q 6.984375 53.65625 15.1875 63.9375 
Q 23.390625 74.21875 37.203125 74.21875 
Q 40.921875 74.21875 44.703125 73.484375 
Q 48.484375 72.75 52.59375 71.296875 
z
" id="DejaVuSans-54"/>
      </defs>
      <g transform="translate(22.096875 155.207083)scale(0.1 -0.1)">
       <use xlink:href="#DejaVuSans-48"/>
       <use x="63.623047" xlink:href="#DejaVuSans-46"/>
       <use x="95.410156" xlink:href="#DejaVuSans-54"/>
      </g>
     </g>
    </g>
    <g id="ytick_5">
     <g id="line2d_13">
      <g>
       <use style="stroke:#000000;stroke-width:0.8;" x="45" xlink:href="#mcad373a3c8" y="100.995334"/>
      </g>
     </g>
     <g id="text_14">
      <!-- 0.8 -->
      <defs>
       <path d="M 31.78125 34.625 
Q 24.75 34.625 20.71875 30.859375 
Q 16.703125 27.09375 16.703125 20.515625 
Q 16.703125 13.921875 20.71875 10.15625 
Q 24.75 6.390625 31.78125 6.390625 
Q 38.8125 6.390625 42.859375 10.171875 
Q 46.921875 13.96875 46.921875 20.515625 
Q 46.921875 27.09375 42.890625 30.859375 
Q 38.875 34.625 31.78125 34.625 
z
M 21.921875 38.8125 
Q 15.578125 40.375 12.03125 44.71875 
Q 8.5 49.078125 8.5 55.328125 
Q 8.5 64.0625 14.71875 69.140625 
Q 20.953125 74.21875 31.78125 74.21875 
Q 42.671875 74.21875 48.875 69.140625 
Q 55.078125 64.0625 55.078125 55.328125 
Q 55.078125 49.078125 51.53125 44.71875 
Q 48 40.375 41.703125 38.8125 
Q 48.828125 37.15625 52.796875 32.3125 
Q 56.78125 27.484375 56.78125 20.515625 
Q 56.78125 9.90625 50.3125 4.234375 
Q 43.84375 -1.421875 31.78125 -1.421875 
Q 19.734375 -1.421875 13.25 4.234375 
Q 6.78125 9.90625 6.78125 20.515625 
Q 6.78125 27.484375 10.78125 32.3125 
Q 14.796875 37.15625 21.921875 38.8125 
z
M 18.3125 54.390625 
Q 18.3125 48.734375 21.84375 45.5625 
Q 25.390625 42.390625 31.78125 42.390625 
Q 38.140625 42.390625 41.71875 45.5625 
Q 45.3125 48.734375 45.3125 54.390625 
Q 45.3125 60.0625 41.71875 63.234375 
Q 38.140625 66.40625 31.78125 66.40625 
Q 25.390625 66.40625 21.84375 63.234375 
Q 18.3125 60.0625 18.3125 54.390625 
z
" id="DejaVuSans-56"/>
      </defs>
      <g transform="translate(22.096875 104.794553)scale(0.1 -0.1)">
       <use xlink:href="#DejaVuSans-48"/>
       <use x="63.623047" xlink:href="#DejaVuSans-46"/>
       <use x="95.410156" xlink:href="#DejaVuSans-56"/>
      </g>
     </g>
    </g>
    <g id="ytick_6">
     <g id="line2d_14">
      <g>
       <use style="stroke:#000000;stroke-width:0.8;" x="45" xlink:href="#mcad373a3c8" y="50.582804"/>
      </g>
     </g>
     <g id="text_15">
      <!-- 1.0 -->
      <g transform="translate(22.096875 54.382023)scale(0.1 -0.1)">
       <use xlink:href="#DejaVuSans-49"/>
       <use x="63.623047" xlink:href="#DejaVuSans-46"/>
       <use x="95.410156" xlink:href="#DejaVuSans-48"/>
      </g>
     </g>
    </g>
    <g id="text_16">
     <!-- all_metrics -->
     <defs>
      <path d="M 9.421875 75.984375 
L 18.40625 75.984375 
L 18.40625 0 
L 9.421875 0 
z
" id="DejaVuSans-108"/>
      <path d="M 50.984375 -16.609375 
L 50.984375 -23.578125 
L -0.984375 -23.578125 
L -0.984375 -16.609375 
z
" id="DejaVuSans-95"/>
      <path d="M 52 44.1875 
Q 55.375 50.25 60.0625 53.125 
Q 64.75 56 71.09375 56 
Q 79.640625 56 84.28125 50.015625 
Q 88.921875 44.046875 88.921875 33.015625 
L 88.921875 0 
L 79.890625 0 
L 79.890625 32.71875 
Q 79.890625 40.578125 77.09375 44.375 
Q 74.3125 48.1875 68.609375 48.1875 
Q 61.625 48.1875 57.5625 43.546875 
Q 53.515625 38.921875 53.515625 30.90625 
L 53.515625 0 
L 44.484375 0 
L 44.484375 32.71875 
Q 44.484375 40.625 41.703125 44.40625 
Q 38.921875 48.1875 33.109375 48.1875 
Q 26.21875 48.1875 22.15625 43.53125 
Q 18.109375 38.875 18.109375 30.90625 
L 18.109375 0 
L 9.078125 0 
L 9.078125 54.6875 
L 18.109375 54.6875 
L 18.109375 46.1875 
Q 21.1875 51.21875 25.484375 53.609375 
Q 29.78125 56 35.6875 56 
Q 41.65625 56 45.828125 52.96875 
Q 50 49.953125 52 44.1875 
z
" id="DejaVuSans-109"/>
      <path d="M 56.203125 29.59375 
L 56.203125 25.203125 
L 14.890625 25.203125 
Q 15.484375 15.921875 20.484375 11.0625 
Q 25.484375 6.203125 34.421875 6.203125 
Q 39.59375 6.203125 44.453125 7.46875 
Q 49.3125 8.734375 54.109375 11.28125 
L 54.109375 2.78125 
Q 49.265625 0.734375 44.1875 -0.34375 
Q 39.109375 -1.421875 33.890625 -1.421875 
Q 20.796875 -1.421875 13.15625 6.1875 
Q 5.515625 13.8125 5.515625 26.8125 
Q 5.515625 40.234375 12.765625 48.109375 
Q 20.015625 56 32.328125 56 
Q 43.359375 56 49.78125 48.890625 
Q 56.203125 41.796875 56.203125 29.59375 
z
M 47.21875 32.234375 
Q 47.125 39.59375 43.09375 43.984375 
Q 39.0625 48.390625 32.421875 48.390625 
Q 24.90625 48.390625 20.390625 44.140625 
Q 15.875 39.890625 15.1875 32.171875 
z
" id="DejaVuSans-101"/>
      <path d="M 18.3125 70.21875 
L 18.3125 54.6875 
L 36.8125 54.6875 
L 36.8125 47.703125 
L 18.3125 47.703125 
L 18.3125 18.015625 
Q 18.3125 11.328125 20.140625 9.421875 
Q 21.96875 7.515625 27.59375 7.515625 
L 36.8125 7.515625 
L 36.8125 0 
L 27.59375 0 
Q 17.1875 0 13.234375 3.875 
Q 9.28125 7.765625 9.28125 18.015625 
L 9.28125 47.703125 
L 2.6875 47.703125 
L 2.6875 54.6875 
L 9.28125 54.6875 
L 9.28125 70.21875 
z
" id="DejaVuSans-116"/>
      <path d="M 41.109375 46.296875 
Q 39.59375 47.171875 37.8125 47.578125 
Q 36.03125 48 33.890625 48 
Q 26.265625 48 22.1875 43.046875 
Q 18.109375 38.09375 18.109375 28.8125 
L 18.109375 0 
L 9.078125 0 
L 9.078125 54.6875 
L 18.109375 54.6875 
L 18.109375 46.1875 
Q 20.953125 51.171875 25.484375 53.578125 
Q 30.03125 56 36.53125 56 
Q 37.453125 56 38.578125 55.875 
Q 39.703125 55.765625 41.0625 55.515625 
z
" id="DejaVuSans-114"/>
      <path d="M 9.421875 54.6875 
L 18.40625 54.6875 
L 18.40625 0 
L 9.421875 0 
z
M 9.421875 75.984375 
L 18.40625 75.984375 
L 18.40625 64.59375 
L 9.421875 64.59375 
z
" id="DejaVuSans-105"/>
      <path d="M 48.78125 52.59375 
L 48.78125 44.1875 
Q 44.96875 46.296875 41.140625 47.34375 
Q 37.3125 48.390625 33.40625 48.390625 
Q 24.65625 48.390625 19.8125 42.84375 
Q 14.984375 37.3125 14.984375 27.296875 
Q 14.984375 17.28125 19.8125 11.734375 
Q 24.65625 6.203125 33.40625 6.203125 
Q 37.3125 6.203125 41.140625 7.25 
Q 44.96875 8.296875 48.78125 10.40625 
L 48.78125 2.09375 
Q 45.015625 0.34375 40.984375 -0.53125 
Q 36.96875 -1.421875 32.421875 -1.421875 
Q 20.0625 -1.421875 12.78125 6.34375 
Q 5.515625 14.109375 5.515625 27.296875 
Q 5.515625 40.671875 12.859375 48.328125 
Q 20.21875 56 33.015625 56 
Q 37.15625 56 41.109375 55.140625 
Q 45.0625 54.296875 48.78125 52.59375 
z
" id="DejaVuSans-99"/>
      <path d="M 44.28125 53.078125 
L 44.28125 44.578125 
Q 40.484375 46.53125 36.375 47.5 
Q 32.28125 48.484375 27.875 48.484375 
Q 21.1875 48.484375 17.84375 46.4375 
Q 14.5 44.390625 14.5 40.28125 
Q 14.5 37.15625 16.890625 35.375 
Q 19.28125 33.59375 26.515625 31.984375 
L 29.59375 31.296875 
Q 39.15625 29.25 43.1875 25.515625 
Q 47.21875 21.78125 47.21875 15.09375 
Q 47.21875 7.46875 41.1875 3.015625 
Q 35.15625 -1.421875 24.609375 -1.421875 
Q 20.21875 -1.421875 15.453125 -0.5625 
Q 10.6875 0.296875 5.421875 2 
L 5.421875 11.28125 
Q 10.40625 8.6875 15.234375 7.390625 
Q 20.0625 6.109375 24.8125 6.109375 
Q 31.15625 6.109375 34.5625 8.28125 
Q 37.984375 10.453125 37.984375 14.40625 
Q 37.984375 18.0625 35.515625 20.015625 
Q 33.0625 21.96875 24.703125 23.78125 
L 21.578125 24.515625 
Q 13.234375 26.265625 9.515625 29.90625 
Q 5.8125 33.546875 5.8125 39.890625 
Q 5.8125 47.609375 11.28125 51.796875 
Q 16.75 56 26.8125 56 
Q 31.78125 56 36.171875 55.265625 
Q 40.578125 54.546875 44.28125 53.078125 
z
" id="DejaVuSans-115"/>
     </defs>
     <g transform="translate(15.739062 206.147656)rotate(-90)scale(0.1 -0.1)">
      <use xlink:href="#DejaVuSans-97"/>
      <use x="61.279297" xlink:href="#DejaVuSans-108"/>
      <use x="89.0625" xlink:href="#DejaVuSans-108"/>
      <use x="116.845703" xlink:href="#DejaVuSans-95"/>
      <use x="166.845703" xlink:href="#DejaVuSans-109"/>
      <use x="264.257812" xlink:href="#DejaVuSans-101"/>
      <use x="325.78125" xlink:href="#DejaVuSans-116"/>
      <use x="364.990234" xlink:href="#DejaVuSans-114"/>
      <use x="406.103516" xlink:href="#DejaVuSans-105"/>
      <use x="433.886719" xlink:href="#DejaVuSans-99"/>
      <use x="488.867188" xlink:href="#DejaVuSans-115"/>
     </g>
    </g>
   </g>
   <g id="line2d_15">
    <path clip-path="url(#p8d1495ab84)" d="M 57.681818 113.598467 
L 65.367769 113.598467 
L 73.053719 113.598467 
L 80.739669 113.598467 
L 88.42562 113.598467 
L 96.11157 113.598467 
L 103.797521 113.598467 
L 111.483471 113.598467 
L 119.169421 113.598467 
L 126.855372 113.598467 
L 134.541322 110.447684 
L 142.227273 110.447684 
L 149.913223 110.447684 
L 157.599174 110.447684 
L 165.285124 110.447684 
L 172.971074 110.447684 
L 180.657025 123.050816 
L 188.342975 110.447684 
L 196.028926 110.447684 
L 203.714876 113.598467 
L 211.400826 119.900033 
L 219.086777 116.74925 
L 226.772727 104.146117 
L 234.458678 97.844551 
L 242.144628 97.844551 
L 249.830579 97.844551 
L 257.516529 100.995334 
L 265.202479 104.146117 
L 272.88843 104.146117 
L 280.57438 100.995334 
L 288.260331 107.2969 
L 295.946281 110.447684 
L 303.632231 107.2969 
L 311.318182 97.844551 
" style="fill:none;stroke:#1f77b4;stroke-linecap:square;stroke-width:1.5;"/>
   </g>
   <g id="line2d_16">
    <path clip-path="url(#p8d1495ab84)" d="M 57.681818 247.191671 
L 65.367769 247.191671 
L 73.053719 247.191671 
L 80.739669 247.191671 
L 88.42562 247.191671 
L 96.11157 247.191671 
L 103.797521 247.191671 
L 111.483471 247.191671 
L 119.169421 247.191671 
L 126.855372 247.191671 
L 134.541322 208.542065 
L 142.227273 208.542065 
L 149.913223 208.542065 
L 157.599174 208.542065 
L 165.285124 208.542065 
L 172.971074 213.583318 
L 180.657025 208.782125 
L 188.342975 184.776158 
L 196.028926 182.075487 
L 203.714876 179.974965 
L 211.400826 152.368103 
L 219.086777 160.410102 
L 226.772727 124.521182 
L 234.458678 102.675752 
L 242.144628 107.476945 
L 249.830579 107.476945 
L 257.516529 110.619544 
L 265.202479 97.354429 
L 272.88843 97.354429 
L 280.57438 80.184008 
L 288.260331 80.184008 
L 295.946281 80.884182 
L 303.632231 81.024216 
L 311.318182 74.234137 
" style="fill:none;stroke:#ff7f0e;stroke-linecap:square;stroke-width:1.5;"/>
   </g>
   <g id="line2d_17">
    <path clip-path="url(#p8d1495ab84)" d="M 57.681818 239.629792 
L 65.367769 239.629792 
L 73.053719 239.629792 
L 80.739669 239.629792 
L 88.42562 239.629792 
L 96.11157 239.629792 
L 103.797521 239.629792 
L 111.483471 239.629792 
L 119.169421 239.629792 
L 126.855372 239.629792 
L 134.541322 164.010997 
L 142.227273 164.010997 
L 149.913223 164.010997 
L 157.599174 164.010997 
L 165.285124 164.010997 
L 172.971074 164.010997 
L 180.657025 154.7687 
L 188.342975 126.801748 
L 196.028926 118.75975 
L 203.714876 133.763479 
L 211.400826 140.605179 
L 219.086777 132.503165 
L 226.772727 107.676995 
L 234.458678 100.755274 
L 242.144628 101.519101 
L 249.830579 101.519101 
L 257.516529 104.676249 
L 265.202479 109.097348 
L 272.88843 109.097348 
L 280.57438 109.537457 
L 288.260331 115.762641 
L 295.946281 113.025597 
L 303.632231 109.342863 
L 311.318182 97.825455 
" style="fill:none;stroke:#2ca02c;stroke-linecap:square;stroke-width:1.5;"/>
   </g>
   <g id="line2d_18">
    <path clip-path="url(#p8d1495ab84)" d="M 57.681818 165.779513 
L 65.367769 165.779513 
L 73.053719 165.779513 
L 80.739669 165.779513 
L 88.42562 165.779513 
L 96.11157 165.779513 
L 103.797521 165.779513 
L 111.483471 165.779513 
L 119.169421 165.779513 
L 126.855372 165.779513 
L 134.541322 145.963588 
L 142.227273 145.963588 
L 149.913223 145.963588 
L 157.599174 145.963588 
L 165.285124 145.963588 
L 172.971074 149.63894 
L 180.657025 155.674126 
L 188.342975 122.769537 
L 196.028926 125.74982 
L 203.714876 120.183285 
L 211.400826 116.4627 
L 219.086777 107.18935 
L 226.772727 94.819892 
L 234.458678 90.302481 
L 242.144628 86.710015 
L 249.830579 86.710015 
L 257.516529 84.999232 
L 265.202479 80.519578 
L 272.88843 80.519578 
L 280.57438 78.764546 
L 288.260331 81.726206 
L 295.946281 78.574332 
L 303.632231 72.718723 
L 311.318182 71.713738 
" style="fill:none;stroke:#d62728;stroke-linecap:square;stroke-width:1.5;"/>
   </g>
   <g id="line2d_19">
    <path clip-path="url(#p8d1495ab84)" d="M 57.681818 106.865045 
L 65.367769 106.865045 
L 73.053719 106.865045 
L 80.739669 106.865045 
L 88.42562 106.865045 
L 96.11157 106.865045 
L 103.797521 106.865045 
L 111.483471 106.865045 
L 119.169421 106.865045 
L 126.855372 106.865045 
L 134.541322 103.392573 
L 142.227273 103.392573 
L 149.913223 103.392573 
L 157.599174 103.392573 
L 165.285124 103.392573 
L 172.971074 107.399723 
L 180.657025 107.646778 
L 188.342975 95.776974 
L 196.028926 97.423345 
L 203.714876 94.05645 
L 211.400826 96.9075 
L 219.086777 90.705504 
L 226.772727 88.26126 
L 234.458678 85.986149 
L 242.144628 85.827928 
L 249.830579 85.827928 
L 257.516529 85.823836 
L 265.202479 83.895629 
L 272.88843 83.895629 
L 280.57438 78.139723 
L 288.260331 83.652002 
L 295.946281 81.892929 
L 303.632231 75.76777 
L 311.318182 74.944086 
" style="fill:none;stroke:#9467bd;stroke-linecap:square;stroke-width:1.5;"/>
   </g>
   <g id="line2d_20">
    <path clip-path="url(#p8d1495ab84)" d="M 57.681818 243.830836 
L 65.367769 243.830836 
L 73.053719 243.830836 
L 80.739669 243.830836 
L 88.42562 243.830836 
L 96.11157 243.830836 
L 103.797521 243.830836 
L 111.483471 243.830836 
L 119.169421 243.830836 
L 126.855372 243.830836 
L 134.541322 196.16808 
L 142.227273 196.16808 
L 149.913223 196.16808 
L 157.599174 196.16808 
L 165.285124 196.16808 
L 172.971074 198.459559 
L 180.657025 194.517041 
L 188.342975 166.051504 
L 196.028926 163.170788 
L 203.714876 166.171534 
L 211.400826 147.030306 
L 219.086777 147.991631 
L 226.772727 117.421927 
L 234.458678 103.616537 
L 242.144628 105.156368 
L 249.830579 105.156368 
L 257.516529 108.300499 
L 265.202479 108.30384 
L 272.88843 108.30384 
L 280.57438 100.689557 
L 288.260331 102.243644 
L 295.946281 102.179265 
L 303.632231 100.104931 
L 311.318182 91.433537 
" style="fill:none;stroke:#8c564b;stroke-linecap:square;stroke-width:1.5;"/>
   </g>
   <g id="line2d_21"/>
   <g id="line2d_22"/>
   <g id="line2d_23"/>
   <g id="line2d_24"/>
   <g id="line2d_25"/>
   <g id="line2d_26"/>
   <g id="line2d_27"/>
   <g id="patch_3">
    <path d="M 45 315 
L 45 43.2 
" style="fill:none;stroke:#000000;stroke-linecap:square;stroke-linejoin:miter;stroke-width:0.8;"/>
   </g>
   <g id="patch_4">
    <path d="M 324 315 
L 324 43.2 
" style="fill:none;stroke:#000000;stroke-linecap:square;stroke-linejoin:miter;stroke-width:0.8;"/>
   </g>
   <g id="patch_5">
    <path d="M 45 315 
L 324 315 
" style="fill:none;stroke:#000000;stroke-linecap:square;stroke-linejoin:miter;stroke-width:0.8;"/>
   </g>
   <g id="patch_6">
    <path d="M 45 43.2 
L 324 43.2 
" style="fill:none;stroke:#000000;stroke-linecap:square;stroke-linejoin:miter;stroke-width:0.8;"/>
   </g>
   <g id="text_17">
    <!-- Multiomic, 5-fold CV -->
    <defs>
     <path d="M 9.8125 72.90625 
L 24.515625 72.90625 
L 43.109375 23.296875 
L 61.8125 72.90625 
L 76.515625 72.90625 
L 76.515625 0 
L 66.890625 0 
L 66.890625 64.015625 
L 48.09375 14.015625 
L 38.1875 14.015625 
L 19.390625 64.015625 
L 19.390625 0 
L 9.8125 0 
z
" id="DejaVuSans-77"/>
     <path d="M 8.5 21.578125 
L 8.5 54.6875 
L 17.484375 54.6875 
L 17.484375 21.921875 
Q 17.484375 14.15625 20.5 10.265625 
Q 23.53125 6.390625 29.59375 6.390625 
Q 36.859375 6.390625 41.078125 11.03125 
Q 45.3125 15.671875 45.3125 23.6875 
L 45.3125 54.6875 
L 54.296875 54.6875 
L 54.296875 0 
L 45.3125 0 
L 45.3125 8.40625 
Q 42.046875 3.421875 37.71875 1 
Q 33.40625 -1.421875 27.6875 -1.421875 
Q 18.265625 -1.421875 13.375 4.4375 
Q 8.5 10.296875 8.5 21.578125 
z
M 31.109375 56 
z
" id="DejaVuSans-117"/>
     <path d="M 30.609375 48.390625 
Q 23.390625 48.390625 19.1875 42.75 
Q 14.984375 37.109375 14.984375 27.296875 
Q 14.984375 17.484375 19.15625 11.84375 
Q 23.34375 6.203125 30.609375 6.203125 
Q 37.796875 6.203125 41.984375 11.859375 
Q 46.1875 17.53125 46.1875 27.296875 
Q 46.1875 37.015625 41.984375 42.703125 
Q 37.796875 48.390625 30.609375 48.390625 
z
M 30.609375 56 
Q 42.328125 56 49.015625 48.375 
Q 55.71875 40.765625 55.71875 27.296875 
Q 55.71875 13.875 49.015625 6.21875 
Q 42.328125 -1.421875 30.609375 -1.421875 
Q 18.84375 -1.421875 12.171875 6.21875 
Q 5.515625 13.875 5.515625 27.296875 
Q 5.515625 40.765625 12.171875 48.375 
Q 18.84375 56 30.609375 56 
z
" id="DejaVuSans-111"/>
     <path d="M 11.71875 12.40625 
L 22.015625 12.40625 
L 22.015625 4 
L 14.015625 -11.625 
L 7.71875 -11.625 
L 11.71875 4 
z
" id="DejaVuSans-44"/>
     <path id="DejaVuSans-32"/>
     <path d="M 4.890625 31.390625 
L 31.203125 31.390625 
L 31.203125 23.390625 
L 4.890625 23.390625 
z
" id="DejaVuSans-45"/>
     <path d="M 37.109375 75.984375 
L 37.109375 68.5 
L 28.515625 68.5 
Q 23.6875 68.5 21.796875 66.546875 
Q 19.921875 64.59375 19.921875 59.515625 
L 19.921875 54.6875 
L 34.71875 54.6875 
L 34.71875 47.703125 
L 19.921875 47.703125 
L 19.921875 0 
L 10.890625 0 
L 10.890625 47.703125 
L 2.296875 47.703125 
L 2.296875 54.6875 
L 10.890625 54.6875 
L 10.890625 58.5 
Q 10.890625 67.625 15.140625 71.796875 
Q 19.390625 75.984375 28.609375 75.984375 
z
" id="DejaVuSans-102"/>
     <path d="M 64.40625 67.28125 
L 64.40625 56.890625 
Q 59.421875 61.53125 53.78125 63.8125 
Q 48.140625 66.109375 41.796875 66.109375 
Q 29.296875 66.109375 22.65625 58.46875 
Q 16.015625 50.828125 16.015625 36.375 
Q 16.015625 21.96875 22.65625 14.328125 
Q 29.296875 6.6875 41.796875 6.6875 
Q 48.140625 6.6875 53.78125 8.984375 
Q 59.421875 11.28125 64.40625 15.921875 
L 64.40625 5.609375 
Q 59.234375 2.09375 53.4375 0.328125 
Q 47.65625 -1.421875 41.21875 -1.421875 
Q 24.65625 -1.421875 15.125 8.703125 
Q 5.609375 18.84375 5.609375 36.375 
Q 5.609375 53.953125 15.125 64.078125 
Q 24.65625 74.21875 41.21875 74.21875 
Q 47.75 74.21875 53.53125 72.484375 
Q 59.328125 70.75 64.40625 67.28125 
z
" id="DejaVuSans-67"/>
     <path d="M 28.609375 0 
L 0.78125 72.90625 
L 11.078125 72.90625 
L 34.1875 11.53125 
L 57.328125 72.90625 
L 67.578125 72.90625 
L 39.796875 0 
z
" id="DejaVuSans-86"/>
    </defs>
    <g transform="translate(124.096875 37.2)scale(0.12 -0.12)">
     <use xlink:href="#DejaVuSans-77"/>
     <use x="86.279297" xlink:href="#DejaVuSans-117"/>
     <use x="149.658203" xlink:href="#DejaVuSans-108"/>
     <use x="177.441406" xlink:href="#DejaVuSans-116"/>
     <use x="216.650391" xlink:href="#DejaVuSans-105"/>
     <use x="244.433594" xlink:href="#DejaVuSans-111"/>
     <use x="305.615234" xlink:href="#DejaVuSans-109"/>
     <use x="403.027344" xlink:href="#DejaVuSans-105"/>
     <use x="430.810547" xlink:href="#DejaVuSans-99"/>
     <use x="485.791016" xlink:href="#DejaVuSans-44"/>
     <use x="517.578125" xlink:href="#DejaVuSans-32"/>
     <use x="549.365234" xlink:href="#DejaVuSans-53"/>
     <use x="612.988281" xlink:href="#DejaVuSans-45"/>
     <use x="649.072266" xlink:href="#DejaVuSans-102"/>
     <use x="684.277344" xlink:href="#DejaVuSans-111"/>
     <use x="745.458984" xlink:href="#DejaVuSans-108"/>
     <use x="773.242188" xlink:href="#DejaVuSans-100"/>
     <use x="836.71875" xlink:href="#DejaVuSans-32"/>
     <use x="868.505859" xlink:href="#DejaVuSans-67"/>
     <use x="938.330078" xlink:href="#DejaVuSans-86"/>
    </g>
   </g>
   <g id="legend_1">
    <g id="patch_7">
     <path d="M 193.729688 310 
L 317 310 
Q 319 310 319 308 
L 319 205.41875 
Q 319 203.41875 317 203.41875 
L 193.729688 203.41875 
Q 191.729688 203.41875 191.729688 205.41875 
L 191.729688 308 
Q 191.729688 310 193.729688 310 
z
" style="fill:#ffffff;opacity:0.8;stroke:#cccccc;stroke-linejoin:miter;"/>
    </g>
    <g id="line2d_28">
     <path d="M 195.729688 211.517187 
L 215.729688 211.517187 
" style="fill:none;"/>
    </g>
    <g id="line2d_29"/>
    <g id="text_18">
     <!-- metric_type -->
     <defs>
      <path d="M 18.109375 8.203125 
L 18.109375 -20.796875 
L 9.078125 -20.796875 
L 9.078125 54.6875 
L 18.109375 54.6875 
L 18.109375 46.390625 
Q 20.953125 51.265625 25.265625 53.625 
Q 29.59375 56 35.59375 56 
Q 45.5625 56 51.78125 48.09375 
Q 58.015625 40.1875 58.015625 27.296875 
Q 58.015625 14.40625 51.78125 6.484375 
Q 45.5625 -1.421875 35.59375 -1.421875 
Q 29.59375 -1.421875 25.265625 0.953125 
Q 20.953125 3.328125 18.109375 8.203125 
z
M 48.6875 27.296875 
Q 48.6875 37.203125 44.609375 42.84375 
Q 40.53125 48.484375 33.40625 48.484375 
Q 26.265625 48.484375 22.1875 42.84375 
Q 18.109375 37.203125 18.109375 27.296875 
Q 18.109375 17.390625 22.1875 11.75 
Q 26.265625 6.109375 33.40625 6.109375 
Q 40.53125 6.109375 44.609375 11.75 
Q 48.6875 17.390625 48.6875 27.296875 
z
" id="DejaVuSans-112"/>
     </defs>
     <g transform="translate(223.729688 215.017187)scale(0.1 -0.1)">
      <use xlink:href="#DejaVuSans-109"/>
      <use x="97.412109" xlink:href="#DejaVuSans-101"/>
      <use x="158.935547" xlink:href="#DejaVuSans-116"/>
      <use x="198.144531" xlink:href="#DejaVuSans-114"/>
      <use x="239.257812" xlink:href="#DejaVuSans-105"/>
      <use x="267.041016" xlink:href="#DejaVuSans-99"/>
      <use x="322.021484" xlink:href="#DejaVuSans-95"/>
      <use x="372.021484" xlink:href="#DejaVuSans-116"/>
      <use x="411.230469" xlink:href="#DejaVuSans-121"/>
      <use x="470.410156" xlink:href="#DejaVuSans-112"/>
      <use x="533.886719" xlink:href="#DejaVuSans-101"/>
     </g>
    </g>
    <g id="line2d_30">
     <path d="M 195.729688 226.473437 
L 215.729688 226.473437 
" style="fill:none;stroke:#1f77b4;stroke-linecap:square;stroke-width:1.5;"/>
    </g>
    <g id="line2d_31"/>
    <g id="text_19">
     <!-- accuracy -->
     <g transform="translate(223.729688 229.973437)scale(0.1 -0.1)">
      <use xlink:href="#DejaVuSans-97"/>
      <use x="61.279297" xlink:href="#DejaVuSans-99"/>
      <use x="116.259766" xlink:href="#DejaVuSans-99"/>
      <use x="171.240234" xlink:href="#DejaVuSans-117"/>
      <use x="234.619141" xlink:href="#DejaVuSans-114"/>
      <use x="275.732422" xlink:href="#DejaVuSans-97"/>
      <use x="337.011719" xlink:href="#DejaVuSans-99"/>
      <use x="391.992188" xlink:href="#DejaVuSans-121"/>
     </g>
    </g>
    <g id="line2d_32">
     <path d="M 195.729688 241.151562 
L 215.729688 241.151562 
" style="fill:none;stroke:#ff7f0e;stroke-linecap:square;stroke-width:1.5;"/>
    </g>
    <g id="line2d_33"/>
    <g id="text_20">
     <!-- recall -->
     <g transform="translate(223.729688 244.651562)scale(0.1 -0.1)">
      <use xlink:href="#DejaVuSans-114"/>
      <use x="41.082031" xlink:href="#DejaVuSans-101"/>
      <use x="102.605469" xlink:href="#DejaVuSans-99"/>
      <use x="157.585938" xlink:href="#DejaVuSans-97"/>
      <use x="218.865234" xlink:href="#DejaVuSans-108"/>
      <use x="246.648438" xlink:href="#DejaVuSans-108"/>
     </g>
    </g>
    <g id="line2d_34">
     <path d="M 195.729688 255.829687 
L 215.729688 255.829687 
" style="fill:none;stroke:#2ca02c;stroke-linecap:square;stroke-width:1.5;"/>
    </g>
    <g id="line2d_35"/>
    <g id="text_21">
     <!-- precision -->
     <defs>
      <path d="M 54.890625 33.015625 
L 54.890625 0 
L 45.90625 0 
L 45.90625 32.71875 
Q 45.90625 40.484375 42.875 44.328125 
Q 39.84375 48.1875 33.796875 48.1875 
Q 26.515625 48.1875 22.3125 43.546875 
Q 18.109375 38.921875 18.109375 30.90625 
L 18.109375 0 
L 9.078125 0 
L 9.078125 54.6875 
L 18.109375 54.6875 
L 18.109375 46.1875 
Q 21.34375 51.125 25.703125 53.5625 
Q 30.078125 56 35.796875 56 
Q 45.21875 56 50.046875 50.171875 
Q 54.890625 44.34375 54.890625 33.015625 
z
" id="DejaVuSans-110"/>
     </defs>
     <g transform="translate(223.729688 259.329687)scale(0.1 -0.1)">
      <use xlink:href="#DejaVuSans-112"/>
      <use x="63.476562" xlink:href="#DejaVuSans-114"/>
      <use x="104.558594" xlink:href="#DejaVuSans-101"/>
      <use x="166.082031" xlink:href="#DejaVuSans-99"/>
      <use x="221.0625" xlink:href="#DejaVuSans-105"/>
      <use x="248.845703" xlink:href="#DejaVuSans-115"/>
      <use x="300.945312" xlink:href="#DejaVuSans-105"/>
      <use x="328.728516" xlink:href="#DejaVuSans-111"/>
      <use x="389.910156" xlink:href="#DejaVuSans-110"/>
     </g>
    </g>
    <g id="line2d_36">
     <path d="M 195.729688 270.507812 
L 215.729688 270.507812 
" style="fill:none;stroke:#d62728;stroke-linecap:square;stroke-width:1.5;"/>
    </g>
    <g id="line2d_37"/>
    <g id="text_22">
     <!-- average_precision -->
     <defs>
      <path d="M 2.984375 54.6875 
L 12.5 54.6875 
L 29.59375 8.796875 
L 46.6875 54.6875 
L 56.203125 54.6875 
L 35.6875 0 
L 23.484375 0 
z
" id="DejaVuSans-118"/>
      <path d="M 45.40625 27.984375 
Q 45.40625 37.75 41.375 43.109375 
Q 37.359375 48.484375 30.078125 48.484375 
Q 22.859375 48.484375 18.828125 43.109375 
Q 14.796875 37.75 14.796875 27.984375 
Q 14.796875 18.265625 18.828125 12.890625 
Q 22.859375 7.515625 30.078125 7.515625 
Q 37.359375 7.515625 41.375 12.890625 
Q 45.40625 18.265625 45.40625 27.984375 
z
M 54.390625 6.78125 
Q 54.390625 -7.171875 48.1875 -13.984375 
Q 42 -20.796875 29.203125 -20.796875 
Q 24.46875 -20.796875 20.265625 -20.09375 
Q 16.0625 -19.390625 12.109375 -17.921875 
L 12.109375 -9.1875 
Q 16.0625 -11.328125 19.921875 -12.34375 
Q 23.78125 -13.375 27.78125 -13.375 
Q 36.625 -13.375 41.015625 -8.765625 
Q 45.40625 -4.15625 45.40625 5.171875 
L 45.40625 9.625 
Q 42.625 4.78125 38.28125 2.390625 
Q 33.9375 0 27.875 0 
Q 17.828125 0 11.671875 7.65625 
Q 5.515625 15.328125 5.515625 27.984375 
Q 5.515625 40.671875 11.671875 48.328125 
Q 17.828125 56 27.875 56 
Q 33.9375 56 38.28125 53.609375 
Q 42.625 51.21875 45.40625 46.390625 
L 45.40625 54.6875 
L 54.390625 54.6875 
z
" id="DejaVuSans-103"/>
     </defs>
     <g transform="translate(223.729688 274.007812)scale(0.1 -0.1)">
      <use xlink:href="#DejaVuSans-97"/>
      <use x="61.279297" xlink:href="#DejaVuSans-118"/>
      <use x="120.458984" xlink:href="#DejaVuSans-101"/>
      <use x="181.982422" xlink:href="#DejaVuSans-114"/>
      <use x="223.095703" xlink:href="#DejaVuSans-97"/>
      <use x="284.375" xlink:href="#DejaVuSans-103"/>
      <use x="347.851562" xlink:href="#DejaVuSans-101"/>
      <use x="409.375" xlink:href="#DejaVuSans-95"/>
      <use x="459.375" xlink:href="#DejaVuSans-112"/>
      <use x="522.851562" xlink:href="#DejaVuSans-114"/>
      <use x="563.933594" xlink:href="#DejaVuSans-101"/>
      <use x="625.457031" xlink:href="#DejaVuSans-99"/>
      <use x="680.4375" xlink:href="#DejaVuSans-105"/>
      <use x="708.220703" xlink:href="#DejaVuSans-115"/>
      <use x="760.320312" xlink:href="#DejaVuSans-105"/>
      <use x="788.103516" xlink:href="#DejaVuSans-111"/>
      <use x="849.285156" xlink:href="#DejaVuSans-110"/>
     </g>
    </g>
    <g id="line2d_38">
     <path d="M 195.729688 285.464062 
L 215.729688 285.464062 
" style="fill:none;stroke:#9467bd;stroke-linecap:square;stroke-width:1.5;"/>
    </g>
    <g id="line2d_39"/>
    <g id="text_23">
     <!-- roc_auc -->
     <g transform="translate(223.729688 288.964062)scale(0.1 -0.1)">
      <use xlink:href="#DejaVuSans-114"/>
      <use x="41.082031" xlink:href="#DejaVuSans-111"/>
      <use x="102.263672" xlink:href="#DejaVuSans-99"/>
      <use x="157.244141" xlink:href="#DejaVuSans-95"/>
      <use x="207.244141" xlink:href="#DejaVuSans-97"/>
      <use x="268.523438" xlink:href="#DejaVuSans-117"/>
      <use x="331.902344" xlink:href="#DejaVuSans-99"/>
     </g>
    </g>
    <g id="line2d_40">
     <path d="M 195.729688 300.420312 
L 215.729688 300.420312 
" style="fill:none;stroke:#8c564b;stroke-linecap:square;stroke-width:1.5;"/>
    </g>
    <g id="line2d_41"/>
    <g id="text_24">
     <!-- f1 -->
     <g transform="translate(223.729688 303.920312)scale(0.1 -0.1)">
      <use xlink:href="#DejaVuSans-102"/>
      <use x="35.205078" xlink:href="#DejaVuSans-49"/>
     </g>
    </g>
   </g>
  </g>
 </g>
 <defs>
  <clipPath id="p8d1495ab84">
   <rect height="271.8" width="279" x="45" y="43.2"/>
  </clipPath>
 </defs>
</svg>
