<?xml version="1.0" encoding="utf-8" standalone="no"?>
<!DOCTYPE svg PUBLIC "-//W3C//DTD SVG 1.1//EN"
  "http://www.w3.org/Graphics/SVG/1.1/DTD/svg11.dtd">
<!-- Created with matplotlib (https://matplotlib.org/) -->
<svg height="360pt" version="1.1" viewBox="0 0 360 360" width="360pt" xmlns="http://www.w3.org/2000/svg" xmlns:xlink="http://www.w3.org/1999/xlink">
 <defs>
  <style type="text/css">
*{stroke-linecap:butt;stroke-linejoin:round;}
  </style>
 </defs>
 <g id="figure_1">
  <g id="patch_1">
   <path d="M 0 360 
L 360 360 
L 360 0 
L 0 0 
z
" style="fill:#ffffff;"/>
  </g>
  <g id="axes_1">
   <g id="patch_2">
    <path d="M 45 315 
L 324 315 
L 324 43.2 
L 45 43.2 
z
" style="fill:#ffffff;"/>
   </g>
   <g id="PolyCollection_1">
    <defs>
     <path d="M 57.681818 -255.027273 
L 57.681818 -221.779011 
L 65.367769 -221.779011 
L 73.053719 -221.779011 
L 80.739669 -232.498396 
L 88.42562 -232.498396 
L 96.11157 -232.498396 
L 103.797521 -228.501337 
L 111.483471 -232.498396 
L 119.169421 -232.498396 
L 126.855372 -232.498396 
L 134.541322 -245.761364 
L 142.227273 -245.761364 
L 149.913223 -233.043449 
L 157.599174 -232.135027 
L 165.285124 -232.135027 
L 172.971074 -230.318182 
L 180.657025 -224.140909 
L 188.342975 -217.963636 
L 196.028926 -214.875 
L 203.714876 -224.140909 
L 211.400826 -227.592914 
L 219.086777 -227.406688 
L 226.772727 -239.515959 
L 234.458678 -251.938636 
L 242.144628 -245.761364 
L 249.830579 -245.761364 
L 257.516529 -224.867647 
L 265.202479 -221.052273 
L 272.88843 -221.960695 
L 280.57438 -221.052273 
L 288.260331 -209.60615 
L 295.946281 -199.431818 
L 303.632231 -210.877941 
L 311.318182 -208.152674 
L 311.318182 -274.830882 
L 311.318182 -274.830882 
L 303.632231 -259.206016 
L 295.946281 -265.564973 
L 288.260331 -258.115909 
L 280.57438 -258.115909 
L 272.88843 -255.958406 
L 265.202479 -258.115909 
L 257.516529 -261.931283 
L 249.830579 -259.206016 
L 242.144628 -259.206016 
L 234.458678 -277.374465 
L 226.772727 -271.197193 
L 219.086777 -286.099863 
L 211.400826 -277.374465 
L 203.714876 -261.931283 
L 196.028926 -271.015508 
L 188.342975 -256.480749 
L 180.657025 -265.01992 
L 172.971074 -256.11738 
L 165.285124 -261.227256 
L 157.599174 -262.112968 
L 149.913223 -262.112968 
L 142.227273 -265.928342 
L 134.541322 -265.383289 
L 126.855372 -267.381818 
L 119.169421 -267.381818 
L 111.483471 -267.381818 
L 103.797521 -267.381818 
L 96.11157 -267.381818 
L 88.42562 -267.381818 
L 80.739669 -267.381818 
L 73.053719 -255.027273 
L 65.367769 -255.027273 
L 57.681818 -255.027273 
z
" id="m38b9a9be3d" style="stroke:#1f77b4;stroke-opacity:0.2;"/>
    </defs>
    <g clip-path="url(#p7c8f89a5f4)">
     <use style="fill:#1f77b4;fill-opacity:0.2;stroke:#1f77b4;stroke-opacity:0.2;" x="0" xlink:href="#m38b9a9be3d" y="360"/>
    </g>
   </g>
   <g id="PolyCollection_2">
    <defs>
     <path d="M 57.681818 -147.954545 
L 57.681818 -57.354545 
L 65.367769 -57.354545 
L 73.053719 -57.354545 
L 80.739669 -87.946753 
L 88.42562 -87.946753 
L 96.11157 -87.946753 
L 103.797521 -89.123377 
L 111.483471 -89.123377 
L 119.169421 -87.946753 
L 126.855372 -85.593506 
L 134.541322 -102.066234 
L 142.227273 -102.066234 
L 149.913223 -96.183117 
L 157.599174 -96.183117 
L 165.285124 -96.183117 
L 172.971074 -106.772727 
L 180.657025 -115.009091 
L 188.342975 -106.772727 
L 196.028926 -112.95 
L 203.714876 -143.836364 
L 211.400826 -181.586364 
L 219.086777 -192.019091 
L 226.772727 -201.656037 
L 234.458678 -209.854963 
L 242.144628 -216.840496 
L 249.830579 -216.840496 
L 257.516529 -213.845455 
L 265.202479 -223.18 
L 272.88843 -223.803967 
L 280.57438 -224.552727 
L 288.260331 -219.610909 
L 295.946281 -215.592562 
L 303.632231 -234.489847 
L 311.318182 -255.027273 
L 311.318182 -299.503636 
L 311.318182 -299.503636 
L 303.632231 -271.457214 
L 295.946281 -270.359032 
L 288.260331 -258.557143 
L 280.57438 -259.020661 
L 272.88843 -259.020661 
L 265.202479 -259.020661 
L 257.516529 -258.396694 
L 249.830579 -279.736364 
L 242.144628 -279.862717 
L 234.458678 -278.613223 
L 226.772727 -285.031169 
L 219.086777 -284.678182 
L 211.400826 -249.144156 
L 203.714876 -210.315584 
L 196.028926 -255.027273 
L 188.342975 -204.432468 
L 180.657025 -218.551948 
L 172.971074 -187.95974 
L 165.285124 -175.958182 
L 157.599174 -175.958182 
L 149.913223 -175.958182 
L 142.227273 -197.843377 
L 134.541322 -197.843377 
L 126.855372 -197.446266 
L 119.169421 -200.314286 
L 111.483471 -201.490909 
L 103.797521 -200.314286 
L 96.11157 -200.343701 
L 88.42562 -201.490909 
L 80.739669 -200.314286 
L 73.053719 -147.954545 
L 65.367769 -147.954545 
L 57.681818 -147.954545 
z
" id="m9322f67f5c" style="stroke:#ff7f0e;stroke-opacity:0.2;"/>
    </defs>
    <g clip-path="url(#p7c8f89a5f4)">
     <use style="fill:#ff7f0e;fill-opacity:0.2;stroke:#ff7f0e;stroke-opacity:0.2;" x="0" xlink:href="#m9322f67f5c" y="360"/>
    </g>
   </g>
   <g id="PolyCollection_3">
    <defs>
     <path d="M 57.681818 -238.554545 
L 57.681818 -57.354545 
L 65.367769 -57.354545 
L 73.053719 -57.354545 
L 80.739669 -131.481818 
L 88.42562 -131.481818 
L 96.11157 -131.481818 
L 103.797521 -131.172955 
L 111.483471 -131.481818 
L 119.169421 -131.481818 
L 126.855372 -131.481818 
L 134.541322 -131.481818 
L 142.227273 -131.481818 
L 149.913223 -131.481818 
L 157.599174 -131.481818 
L 165.285124 -131.481818 
L 172.971074 -123.245455 
L 180.657025 -110.890909 
L 188.342975 -119.127273 
L 196.028926 -131.481818 
L 203.714876 -217.963636 
L 211.400826 -231.024156 
L 219.086777 -239.731169 
L 226.772727 -240.613636 
L 234.458678 -265.322727 
L 242.144628 -232.377273 
L 249.830579 -232.377273 
L 257.516529 -228.553247 
L 265.202479 -213.021818 
L 272.88843 -214.257273 
L 280.57438 -215.461841 
L 288.260331 -212.347934 
L 295.946281 -207.855372 
L 303.632231 -219.610909 
L 311.318182 -211.311189 
L 311.318182 -279.736364 
L 311.318182 -279.736364 
L 303.632231 -265.809421 
L 295.946281 -284.060455 
L 288.260331 -279.736364 
L 280.57438 -278.853896 
L 272.88843 -282.56026 
L 265.202479 -277.618442 
L 257.516529 -276.206494 
L 249.830579 -285.227273 
L 242.144628 -285.227273 
L 234.458678 -298.268182 
L 226.772727 -298.268182 
L 219.086777 -297.385714 
L 211.400826 -304.445455 
L 203.714876 -304.445455 
L 196.028926 -292.090909 
L 188.342975 -269.852727 
L 180.657025 -269.852727 
L 172.971074 -263.263636 
L 165.285124 -287.972727 
L 157.599174 -287.972727 
L 149.913223 -287.972727 
L 142.227273 -292.090909 
L 134.541322 -292.090909 
L 126.855372 -292.090909 
L 119.169421 -292.090909 
L 111.483471 -292.090909 
L 103.797521 -279.736364 
L 96.11157 -292.090909 
L 88.42562 -292.090909 
L 80.739669 -292.090909 
L 73.053719 -238.554545 
L 65.367769 -238.554545 
L 57.681818 -238.554545 
z
" id="mc2a0986005" style="stroke:#2ca02c;stroke-opacity:0.2;"/>
    </defs>
    <g clip-path="url(#p7c8f89a5f4)">
     <use style="fill:#2ca02c;fill-opacity:0.2;stroke:#2ca02c;stroke-opacity:0.2;" x="0" xlink:href="#mc2a0986005" y="360"/>
    </g>
   </g>
   <g id="PolyCollection_4">
    <defs>
     <path d="M 57.681818 -272.960974 
L 57.681818 -136.073323 
L 65.367769 -132.893766 
L 73.053719 -136.073323 
L 80.739669 -211.904026 
L 88.42562 -211.904026 
L 96.11157 -215.345649 
L 103.797521 -211.904026 
L 111.483471 -207.109286 
L 119.169421 -211.904026 
L 126.855372 -212.101913 
L 134.541322 -181.792273 
L 142.227273 -185.714351 
L 149.913223 -225.656614 
L 157.599174 -225.656614 
L 165.285124 -225.656614 
L 172.971074 -210.675108 
L 180.657025 -220.829016 
L 188.342975 -228.033388 
L 196.028926 -232.868772 
L 203.714876 -229.336502 
L 211.400826 -260.488591 
L 219.086777 -262.19487 
L 226.772727 -266.194251 
L 234.458678 -268.521004 
L 242.144628 -265.781654 
L 249.830579 -264.43546 
L 257.516529 -265.798298 
L 265.202479 -266.792169 
L 272.88843 -266.549402 
L 280.57438 -266.741655 
L 288.260331 -265.742791 
L 295.946281 -261.322002 
L 303.632231 -264.062245 
L 311.318182 -269.28153 
L 311.318182 -298.31138 
L 311.318182 -298.31138 
L 303.632231 -292.803054 
L 295.946281 -293.689087 
L 288.260331 -293.61116 
L 280.57438 -291.94729 
L 272.88843 -291.755037 
L 265.202479 -291.94729 
L 257.516529 -293.37974 
L 249.830579 -289.964462 
L 242.144628 -289.964462 
L 234.458678 -293.130616 
L 226.772727 -291.090519 
L 219.086777 -289.51697 
L 211.400826 -281.658182 
L 203.714876 -277.193826 
L 196.028926 -283.210204 
L 188.342975 -274.41886 
L 180.657025 -279.344156 
L 172.971074 -273.718776 
L 165.285124 -280.681228 
L 157.599174 -279.780933 
L 149.913223 -280.681228 
L 142.227273 -277.765519 
L 134.541322 -277.775325 
L 126.855372 -280.271192 
L 119.169421 -277.20796 
L 111.483471 -278.720189 
L 103.797521 -278.720189 
L 96.11157 -277.20796 
L 88.42562 -277.169185 
L 80.739669 -278.720189 
L 73.053719 -269.672312 
L 65.367769 -265.558052 
L 57.681818 -272.960974 
z
" id="ma201151dfd" style="stroke:#d62728;stroke-opacity:0.2;"/>
    </defs>
    <g clip-path="url(#p7c8f89a5f4)">
     <use style="fill:#d62728;fill-opacity:0.2;stroke:#d62728;stroke-opacity:0.2;" x="0" xlink:href="#ma201151dfd" y="360"/>
    </g>
   </g>
   <g id="PolyCollection_5">
    <defs>
     <path d="M 57.681818 -273.912078 
L 57.681818 -197.987881 
L 65.367769 -197.990455 
L 73.053719 -197.877205 
L 80.739669 -226.428706 
L 88.42562 -224.346818 
L 96.11157 -225.006463 
L 103.797521 -224.346818 
L 111.483471 -223.111364 
L 119.169421 -224.315932 
L 126.855372 -225.006463 
L 134.541322 -218.319298 
L 142.227273 -212.223586 
L 149.913223 -236.832397 
L 157.599174 -236.832397 
L 165.285124 -235.773436 
L 172.971074 -221.996246 
L 180.657025 -217.826364 
L 188.342975 -231.277865 
L 196.028926 -224.832175 
L 203.714876 -231.616144 
L 211.400826 -248.041071 
L 219.086777 -254.812815 
L 226.772727 -258.520373 
L 234.458678 -251.037784 
L 242.144628 -251.047144 
L 249.830579 -252.844168 
L 257.516529 -252.634805 
L 265.202479 -255.318977 
L 272.88843 -255.318977 
L 280.57438 -255.318977 
L 288.260331 -247.391477 
L 295.946281 -227.886137 
L 303.632231 -231.573247 
L 311.318182 -238.525865 
L 311.318182 -295.375649 
L 311.318182 -295.375649 
L 303.632231 -281.230675 
L 295.946281 -284.471381 
L 288.260331 -288.49686 
L 280.57438 -286.325455 
L 272.88843 -288.255852 
L 265.202479 -286.346045 
L 257.516529 -289.944463 
L 249.830579 -288.758926 
L 242.144628 -288.515579 
L 234.458678 -290.810885 
L 226.772727 -287.09026 
L 219.086777 -292.590974 
L 211.400826 -284.913506 
L 203.714876 -287.402517 
L 196.028926 -294.679481 
L 188.342975 -282.932367 
L 180.657025 -289.62 
L 172.971074 -289.502338 
L 165.285124 -292.443896 
L 157.599174 -291.737922 
L 149.913223 -291.737922 
L 142.227273 -284.560519 
L 134.541322 -284.560519 
L 126.855372 -279.773869 
L 119.169421 -280.089351 
L 111.483471 -280.089351 
L 103.797521 -280.089351 
L 96.11157 -278.324416 
L 88.42562 -278.36045 
L 80.739669 -280.089351 
L 73.053719 -277.147792 
L 65.367769 -277.147792 
L 57.681818 -273.912078 
z
" id="m5b2437570d" style="stroke:#9467bd;stroke-opacity:0.2;"/>
    </defs>
    <g clip-path="url(#p7c8f89a5f4)">
     <use style="fill:#9467bd;fill-opacity:0.2;stroke:#9467bd;stroke-opacity:0.2;" x="0" xlink:href="#m5b2437570d" y="360"/>
    </g>
   </g>
   <g id="PolyCollection_6">
    <defs>
     <path d="M 57.681818 -166.780519 
L 57.681818 -57.354545 
L 65.367769 -57.354545 
L 73.053719 -57.354545 
L 80.739669 -94.418182 
L 88.42562 -106.772727 
L 96.11157 -94.418182 
L 103.797521 -106.772727 
L 111.483471 -94.418182 
L 119.169421 -94.418182 
L 126.855372 -106.772727 
L 134.541322 -115.009091 
L 142.227273 -115.009091 
L 149.913223 -106.772727 
L 157.599174 -106.772727 
L 165.285124 -104.027273 
L 172.971074 -106.772727 
L 180.657025 -113.062314 
L 188.342975 -106.772727 
L 196.028926 -121.598182 
L 203.714876 -177.605455 
L 211.400826 -205.983471 
L 219.086777 -215.941983 
L 226.772727 -230.608877 
L 234.458678 -237.445804 
L 242.144628 -236.563337 
L 249.830579 -236.563337 
L 257.516529 -224.140909 
L 265.202479 -227.903008 
L 272.88843 -227.885522 
L 280.57438 -227.487729 
L 288.260331 -220.75584 
L 295.946281 -217.430695 
L 303.632231 -228.175489 
L 311.318182 -236.759953 
L 311.318182 -281.629846 
L 311.318182 -281.629846 
L 303.632231 -265.850068 
L 295.946281 -270.088052 
L 288.260331 -261.529665 
L 280.57438 -260.96576 
L 272.88843 -262.080456 
L 265.202479 -262.080456 
L 257.516529 -263.681045 
L 249.830579 -260.842942 
L 242.144628 -259.076788 
L 234.458678 -275.076808 
L 226.772727 -262.44 
L 219.086777 -277.973897 
L 211.400826 -262.514876 
L 203.714876 -230.318182 
L 196.028926 -241.250083 
L 188.342975 -225.376364 
L 180.657025 -238.636909 
L 172.971074 -210.500992 
L 165.285124 -200.118182 
L 157.599174 -202.863636 
L 149.913223 -202.863636 
L 142.227273 -219.910413 
L 134.541322 -222.830579 
L 126.855372 -205.609091 
L 119.169421 -205.609091 
L 111.483471 -205.609091 
L 103.797521 -205.609091 
L 96.11157 -205.609091 
L 88.42562 -205.609091 
L 80.739669 -205.609091 
L 73.053719 -166.780519 
L 65.367769 -166.780519 
L 57.681818 -166.780519 
z
" id="m97eb2e7c4a" style="stroke:#8c564b;stroke-opacity:0.2;"/>
    </defs>
    <g clip-path="url(#p7c8f89a5f4)">
     <use style="fill:#8c564b;fill-opacity:0.2;stroke:#8c564b;stroke-opacity:0.2;" x="0" xlink:href="#m97eb2e7c4a" y="360"/>
    </g>
   </g>
   <g id="matplotlib.axis_1">
    <g id="xtick_1">
     <g id="line2d_1">
      <defs>
       <path d="M 0 0 
L 0 3.5 
" id="m41d036e62c" style="stroke:#000000;stroke-width:0.8;"/>
      </defs>
      <g>
       <use style="stroke:#000000;stroke-width:0.8;" x="49.995868" xlink:href="#m41d036e62c" y="315"/>
      </g>
     </g>
     <g id="text_1">
      <!-- 0 -->
      <defs>
       <path d="M 31.78125 66.40625 
Q 24.171875 66.40625 20.328125 58.90625 
Q 16.5 51.421875 16.5 36.375 
Q 16.5 21.390625 20.328125 13.890625 
Q 24.171875 6.390625 31.78125 6.390625 
Q 39.453125 6.390625 43.28125 13.890625 
Q 47.125 21.390625 47.125 36.375 
Q 47.125 51.421875 43.28125 58.90625 
Q 39.453125 66.40625 31.78125 66.40625 
z
M 31.78125 74.21875 
Q 44.046875 74.21875 50.515625 64.515625 
Q 56.984375 54.828125 56.984375 36.375 
Q 56.984375 17.96875 50.515625 8.265625 
Q 44.046875 -1.421875 31.78125 -1.421875 
Q 19.53125 -1.421875 13.0625 8.265625 
Q 6.59375 17.96875 6.59375 36.375 
Q 6.59375 54.828125 13.0625 64.515625 
Q 19.53125 74.21875 31.78125 74.21875 
z
" id="DejaVuSans-48"/>
      </defs>
      <g transform="translate(46.814618 329.598437)scale(0.1 -0.1)">
       <use xlink:href="#DejaVuSans-48"/>
      </g>
     </g>
    </g>
    <g id="xtick_2">
     <g id="line2d_2">
      <g>
       <use style="stroke:#000000;stroke-width:0.8;" x="88.42562" xlink:href="#m41d036e62c" y="315"/>
      </g>
     </g>
     <g id="text_2">
      <!-- 5 -->
      <defs>
       <path d="M 10.796875 72.90625 
L 49.515625 72.90625 
L 49.515625 64.59375 
L 19.828125 64.59375 
L 19.828125 46.734375 
Q 21.96875 47.46875 24.109375 47.828125 
Q 26.265625 48.1875 28.421875 48.1875 
Q 40.625 48.1875 47.75 41.5 
Q 54.890625 34.8125 54.890625 23.390625 
Q 54.890625 11.625 47.5625 5.09375 
Q 40.234375 -1.421875 26.90625 -1.421875 
Q 22.3125 -1.421875 17.546875 -0.640625 
Q 12.796875 0.140625 7.71875 1.703125 
L 7.71875 11.625 
Q 12.109375 9.234375 16.796875 8.0625 
Q 21.484375 6.890625 26.703125 6.890625 
Q 35.15625 6.890625 40.078125 11.328125 
Q 45.015625 15.765625 45.015625 23.390625 
Q 45.015625 31 40.078125 35.4375 
Q 35.15625 39.890625 26.703125 39.890625 
Q 22.75 39.890625 18.8125 39.015625 
Q 14.890625 38.140625 10.796875 36.28125 
z
" id="DejaVuSans-53"/>
      </defs>
      <g transform="translate(85.24437 329.598437)scale(0.1 -0.1)">
       <use xlink:href="#DejaVuSans-53"/>
      </g>
     </g>
    </g>
    <g id="xtick_3">
     <g id="line2d_3">
      <g>
       <use style="stroke:#000000;stroke-width:0.8;" x="126.855372" xlink:href="#m41d036e62c" y="315"/>
      </g>
     </g>
     <g id="text_3">
      <!-- 10 -->
      <defs>
       <path d="M 12.40625 8.296875 
L 28.515625 8.296875 
L 28.515625 63.921875 
L 10.984375 60.40625 
L 10.984375 69.390625 
L 28.421875 72.90625 
L 38.28125 72.90625 
L 38.28125 8.296875 
L 54.390625 8.296875 
L 54.390625 0 
L 12.40625 0 
z
" id="DejaVuSans-49"/>
      </defs>
      <g transform="translate(120.492872 329.598437)scale(0.1 -0.1)">
       <use xlink:href="#DejaVuSans-49"/>
       <use x="63.623047" xlink:href="#DejaVuSans-48"/>
      </g>
     </g>
    </g>
    <g id="xtick_4">
     <g id="line2d_4">
      <g>
       <use style="stroke:#000000;stroke-width:0.8;" x="165.285124" xlink:href="#m41d036e62c" y="315"/>
      </g>
     </g>
     <g id="text_4">
      <!-- 15 -->
      <g transform="translate(158.922624 329.598437)scale(0.1 -0.1)">
       <use xlink:href="#DejaVuSans-49"/>
       <use x="63.623047" xlink:href="#DejaVuSans-53"/>
      </g>
     </g>
    </g>
    <g id="xtick_5">
     <g id="line2d_5">
      <g>
       <use style="stroke:#000000;stroke-width:0.8;" x="203.714876" xlink:href="#m41d036e62c" y="315"/>
      </g>
     </g>
     <g id="text_5">
      <!-- 20 -->
      <defs>
       <path d="M 19.1875 8.296875 
L 53.609375 8.296875 
L 53.609375 0 
L 7.328125 0 
L 7.328125 8.296875 
Q 12.9375 14.109375 22.625 23.890625 
Q 32.328125 33.6875 34.8125 36.53125 
Q 39.546875 41.84375 41.421875 45.53125 
Q 43.3125 49.21875 43.3125 52.78125 
Q 43.3125 58.59375 39.234375 62.25 
Q 35.15625 65.921875 28.609375 65.921875 
Q 23.96875 65.921875 18.8125 64.3125 
Q 13.671875 62.703125 7.8125 59.421875 
L 7.8125 69.390625 
Q 13.765625 71.78125 18.9375 73 
Q 24.125 74.21875 28.421875 74.21875 
Q 39.75 74.21875 46.484375 68.546875 
Q 53.21875 62.890625 53.21875 53.421875 
Q 53.21875 48.921875 51.53125 44.890625 
Q 49.859375 40.875 45.40625 35.40625 
Q 44.1875 33.984375 37.640625 27.21875 
Q 31.109375 20.453125 19.1875 8.296875 
z
" id="DejaVuSans-50"/>
      </defs>
      <g transform="translate(197.352376 329.598437)scale(0.1 -0.1)">
       <use xlink:href="#DejaVuSans-50"/>
       <use x="63.623047" xlink:href="#DejaVuSans-48"/>
      </g>
     </g>
    </g>
    <g id="xtick_6">
     <g id="line2d_6">
      <g>
       <use style="stroke:#000000;stroke-width:0.8;" x="242.144628" xlink:href="#m41d036e62c" y="315"/>
      </g>
     </g>
     <g id="text_6">
      <!-- 25 -->
      <g transform="translate(235.782128 329.598437)scale(0.1 -0.1)">
       <use xlink:href="#DejaVuSans-50"/>
       <use x="63.623047" xlink:href="#DejaVuSans-53"/>
      </g>
     </g>
    </g>
    <g id="xtick_7">
     <g id="line2d_7">
      <g>
       <use style="stroke:#000000;stroke-width:0.8;" x="280.57438" xlink:href="#m41d036e62c" y="315"/>
      </g>
     </g>
     <g id="text_7">
      <!-- 30 -->
      <defs>
       <path d="M 40.578125 39.3125 
Q 47.65625 37.796875 51.625 33 
Q 55.609375 28.21875 55.609375 21.1875 
Q 55.609375 10.40625 48.1875 4.484375 
Q 40.765625 -1.421875 27.09375 -1.421875 
Q 22.515625 -1.421875 17.65625 -0.515625 
Q 12.796875 0.390625 7.625 2.203125 
L 7.625 11.71875 
Q 11.71875 9.328125 16.59375 8.109375 
Q 21.484375 6.890625 26.8125 6.890625 
Q 36.078125 6.890625 40.9375 10.546875 
Q 45.796875 14.203125 45.796875 21.1875 
Q 45.796875 27.640625 41.28125 31.265625 
Q 36.765625 34.90625 28.71875 34.90625 
L 20.21875 34.90625 
L 20.21875 43.015625 
L 29.109375 43.015625 
Q 36.375 43.015625 40.234375 45.921875 
Q 44.09375 48.828125 44.09375 54.296875 
Q 44.09375 59.90625 40.109375 62.90625 
Q 36.140625 65.921875 28.71875 65.921875 
Q 24.65625 65.921875 20.015625 65.03125 
Q 15.375 64.15625 9.8125 62.3125 
L 9.8125 71.09375 
Q 15.4375 72.65625 20.34375 73.4375 
Q 25.25 74.21875 29.59375 74.21875 
Q 40.828125 74.21875 47.359375 69.109375 
Q 53.90625 64.015625 53.90625 55.328125 
Q 53.90625 49.265625 50.4375 45.09375 
Q 46.96875 40.921875 40.578125 39.3125 
z
" id="DejaVuSans-51"/>
      </defs>
      <g transform="translate(274.21188 329.598437)scale(0.1 -0.1)">
       <use xlink:href="#DejaVuSans-51"/>
       <use x="63.623047" xlink:href="#DejaVuSans-48"/>
      </g>
     </g>
    </g>
    <g id="xtick_8">
     <g id="line2d_8">
      <g>
       <use style="stroke:#000000;stroke-width:0.8;" x="319.004132" xlink:href="#m41d036e62c" y="315"/>
      </g>
     </g>
     <g id="text_8">
      <!-- 35 -->
      <g transform="translate(312.641632 329.598437)scale(0.1 -0.1)">
       <use xlink:href="#DejaVuSans-51"/>
       <use x="63.623047" xlink:href="#DejaVuSans-53"/>
      </g>
     </g>
    </g>
    <g id="text_9">
     <!-- day -->
     <defs>
      <path d="M 45.40625 46.390625 
L 45.40625 75.984375 
L 54.390625 75.984375 
L 54.390625 0 
L 45.40625 0 
L 45.40625 8.203125 
Q 42.578125 3.328125 38.25 0.953125 
Q 33.9375 -1.421875 27.875 -1.421875 
Q 17.96875 -1.421875 11.734375 6.484375 
Q 5.515625 14.40625 5.515625 27.296875 
Q 5.515625 40.1875 11.734375 48.09375 
Q 17.96875 56 27.875 56 
Q 33.9375 56 38.25 53.625 
Q 42.578125 51.265625 45.40625 46.390625 
z
M 14.796875 27.296875 
Q 14.796875 17.390625 18.875 11.75 
Q 22.953125 6.109375 30.078125 6.109375 
Q 37.203125 6.109375 41.296875 11.75 
Q 45.40625 17.390625 45.40625 27.296875 
Q 45.40625 37.203125 41.296875 42.84375 
Q 37.203125 48.484375 30.078125 48.484375 
Q 22.953125 48.484375 18.875 42.84375 
Q 14.796875 37.203125 14.796875 27.296875 
z
" id="DejaVuSans-100"/>
      <path d="M 34.28125 27.484375 
Q 23.390625 27.484375 19.1875 25 
Q 14.984375 22.515625 14.984375 16.5 
Q 14.984375 11.71875 18.140625 8.90625 
Q 21.296875 6.109375 26.703125 6.109375 
Q 34.1875 6.109375 38.703125 11.40625 
Q 43.21875 16.703125 43.21875 25.484375 
L 43.21875 27.484375 
z
M 52.203125 31.203125 
L 52.203125 0 
L 43.21875 0 
L 43.21875 8.296875 
Q 40.140625 3.328125 35.546875 0.953125 
Q 30.953125 -1.421875 24.3125 -1.421875 
Q 15.921875 -1.421875 10.953125 3.296875 
Q 6 8.015625 6 15.921875 
Q 6 25.140625 12.171875 29.828125 
Q 18.359375 34.515625 30.609375 34.515625 
L 43.21875 34.515625 
L 43.21875 35.40625 
Q 43.21875 41.609375 39.140625 45 
Q 35.0625 48.390625 27.6875 48.390625 
Q 23 48.390625 18.546875 47.265625 
Q 14.109375 46.140625 10.015625 43.890625 
L 10.015625 52.203125 
Q 14.9375 54.109375 19.578125 55.046875 
Q 24.21875 56 28.609375 56 
Q 40.484375 56 46.34375 49.84375 
Q 52.203125 43.703125 52.203125 31.203125 
z
" id="DejaVuSans-97"/>
      <path d="M 32.171875 -5.078125 
Q 28.375 -14.84375 24.75 -17.8125 
Q 21.140625 -20.796875 15.09375 -20.796875 
L 7.90625 -20.796875 
L 7.90625 -13.28125 
L 13.1875 -13.28125 
Q 16.890625 -13.28125 18.9375 -11.515625 
Q 21 -9.765625 23.484375 -3.21875 
L 25.09375 0.875 
L 2.984375 54.6875 
L 12.5 54.6875 
L 29.59375 11.921875 
L 46.6875 54.6875 
L 56.203125 54.6875 
z
" id="DejaVuSans-121"/>
     </defs>
     <g transform="translate(175.302344 343.276563)scale(0.1 -0.1)">
      <use xlink:href="#DejaVuSans-100"/>
      <use x="63.476562" xlink:href="#DejaVuSans-97"/>
      <use x="124.755859" xlink:href="#DejaVuSans-121"/>
     </g>
    </g>
   </g>
   <g id="matplotlib.axis_2">
    <g id="ytick_1">
     <g id="line2d_9">
      <defs>
       <path d="M 0 0 
L -3.5 0 
" id="m7b60fcb004" style="stroke:#000000;stroke-width:0.8;"/>
      </defs>
      <g>
       <use style="stroke:#000000;stroke-width:0.8;" x="45" xlink:href="#m7b60fcb004" y="302.645455"/>
      </g>
     </g>
     <g id="text_10">
      <!-- 0.0 -->
      <defs>
       <path d="M 10.6875 12.40625 
L 21 12.40625 
L 21 0 
L 10.6875 0 
z
" id="DejaVuSans-46"/>
      </defs>
      <g transform="translate(22.096875 306.444673)scale(0.1 -0.1)">
       <use xlink:href="#DejaVuSans-48"/>
       <use x="63.623047" xlink:href="#DejaVuSans-46"/>
       <use x="95.410156" xlink:href="#DejaVuSans-48"/>
      </g>
     </g>
    </g>
    <g id="ytick_2">
     <g id="line2d_10">
      <g>
       <use style="stroke:#000000;stroke-width:0.8;" x="45" xlink:href="#m7b60fcb004" y="253.227273"/>
      </g>
     </g>
     <g id="text_11">
      <!-- 0.2 -->
      <g transform="translate(22.096875 257.026491)scale(0.1 -0.1)">
       <use xlink:href="#DejaVuSans-48"/>
       <use x="63.623047" xlink:href="#DejaVuSans-46"/>
       <use x="95.410156" xlink:href="#DejaVuSans-50"/>
      </g>
     </g>
    </g>
    <g id="ytick_3">
     <g id="line2d_11">
      <g>
       <use style="stroke:#000000;stroke-width:0.8;" x="45" xlink:href="#m7b60fcb004" y="203.809091"/>
      </g>
     </g>
     <g id="text_12">
      <!-- 0.4 -->
      <defs>
       <path d="M 37.796875 64.3125 
L 12.890625 25.390625 
L 37.796875 25.390625 
z
M 35.203125 72.90625 
L 47.609375 72.90625 
L 47.609375 25.390625 
L 58.015625 25.390625 
L 58.015625 17.1875 
L 47.609375 17.1875 
L 47.609375 0 
L 37.796875 0 
L 37.796875 17.1875 
L 4.890625 17.1875 
L 4.890625 26.703125 
z
" id="DejaVuSans-52"/>
      </defs>
      <g transform="translate(22.096875 207.60831)scale(0.1 -0.1)">
       <use xlink:href="#DejaVuSans-48"/>
       <use x="63.623047" xlink:href="#DejaVuSans-46"/>
       <use x="95.410156" xlink:href="#DejaVuSans-52"/>
      </g>
     </g>
    </g>
    <g id="ytick_4">
     <g id="line2d_12">
      <g>
       <use style="stroke:#000000;stroke-width:0.8;" x="45" xlink:href="#m7b60fcb004" y="154.390909"/>
      </g>
     </g>
     <g id="text_13">
      <!-- 0.6 -->
      <defs>
       <path d="M 33.015625 40.375 
Q 26.375 40.375 22.484375 35.828125 
Q 18.609375 31.296875 18.609375 23.390625 
Q 18.609375 15.53125 22.484375 10.953125 
Q 26.375 6.390625 33.015625 6.390625 
Q 39.65625 6.390625 43.53125 10.953125 
Q 47.40625 15.53125 47.40625 23.390625 
Q 47.40625 31.296875 43.53125 35.828125 
Q 39.65625 40.375 33.015625 40.375 
z
M 52.59375 71.296875 
L 52.59375 62.3125 
Q 48.875 64.0625 45.09375 64.984375 
Q 41.3125 65.921875 37.59375 65.921875 
Q 27.828125 65.921875 22.671875 59.328125 
Q 17.53125 52.734375 16.796875 39.40625 
Q 19.671875 43.65625 24.015625 45.921875 
Q 28.375 48.1875 33.59375 48.1875 
Q 44.578125 48.1875 50.953125 41.515625 
Q 57.328125 34.859375 57.328125 23.390625 
Q 57.328125 12.15625 50.6875 5.359375 
Q 44.046875 -1.421875 33.015625 -1.421875 
Q 20.359375 -1.421875 13.671875 8.265625 
Q 6.984375 17.96875 6.984375 36.375 
Q 6.984375 53.65625 15.1875 63.9375 
Q 23.390625 74.21875 37.203125 74.21875 
Q 40.921875 74.21875 44.703125 73.484375 
Q 48.484375 72.75 52.59375 71.296875 
z
" id="DejaVuSans-54"/>
      </defs>
      <g transform="translate(22.096875 158.190128)scale(0.1 -0.1)">
       <use xlink:href="#DejaVuSans-48"/>
       <use x="63.623047" xlink:href="#DejaVuSans-46"/>
       <use x="95.410156" xlink:href="#DejaVuSans-54"/>
      </g>
     </g>
    </g>
    <g id="ytick_5">
     <g id="line2d_13">
      <g>
       <use style="stroke:#000000;stroke-width:0.8;" x="45" xlink:href="#m7b60fcb004" y="104.972727"/>
      </g>
     </g>
     <g id="text_14">
      <!-- 0.8 -->
      <defs>
       <path d="M 31.78125 34.625 
Q 24.75 34.625 20.71875 30.859375 
Q 16.703125 27.09375 16.703125 20.515625 
Q 16.703125 13.921875 20.71875 10.15625 
Q 24.75 6.390625 31.78125 6.390625 
Q 38.8125 6.390625 42.859375 10.171875 
Q 46.921875 13.96875 46.921875 20.515625 
Q 46.921875 27.09375 42.890625 30.859375 
Q 38.875 34.625 31.78125 34.625 
z
M 21.921875 38.8125 
Q 15.578125 40.375 12.03125 44.71875 
Q 8.5 49.078125 8.5 55.328125 
Q 8.5 64.0625 14.71875 69.140625 
Q 20.953125 74.21875 31.78125 74.21875 
Q 42.671875 74.21875 48.875 69.140625 
Q 55.078125 64.0625 55.078125 55.328125 
Q 55.078125 49.078125 51.53125 44.71875 
Q 48 40.375 41.703125 38.8125 
Q 48.828125 37.15625 52.796875 32.3125 
Q 56.78125 27.484375 56.78125 20.515625 
Q 56.78125 9.90625 50.3125 4.234375 
Q 43.84375 -1.421875 31.78125 -1.421875 
Q 19.734375 -1.421875 13.25 4.234375 
Q 6.78125 9.90625 6.78125 20.515625 
Q 6.78125 27.484375 10.78125 32.3125 
Q 14.796875 37.15625 21.921875 38.8125 
z
M 18.3125 54.390625 
Q 18.3125 48.734375 21.84375 45.5625 
Q 25.390625 42.390625 31.78125 42.390625 
Q 38.140625 42.390625 41.71875 45.5625 
Q 45.3125 48.734375 45.3125 54.390625 
Q 45.3125 60.0625 41.71875 63.234375 
Q 38.140625 66.40625 31.78125 66.40625 
Q 25.390625 66.40625 21.84375 63.234375 
Q 18.3125 60.0625 18.3125 54.390625 
z
" id="DejaVuSans-56"/>
      </defs>
      <g transform="translate(22.096875 108.771946)scale(0.1 -0.1)">
       <use xlink:href="#DejaVuSans-48"/>
       <use x="63.623047" xlink:href="#DejaVuSans-46"/>
       <use x="95.410156" xlink:href="#DejaVuSans-56"/>
      </g>
     </g>
    </g>
    <g id="ytick_6">
     <g id="line2d_14">
      <g>
       <use style="stroke:#000000;stroke-width:0.8;" x="45" xlink:href="#m7b60fcb004" y="55.554545"/>
      </g>
     </g>
     <g id="text_15">
      <!-- 1.0 -->
      <g transform="translate(22.096875 59.353764)scale(0.1 -0.1)">
       <use xlink:href="#DejaVuSans-49"/>
       <use x="63.623047" xlink:href="#DejaVuSans-46"/>
       <use x="95.410156" xlink:href="#DejaVuSans-48"/>
      </g>
     </g>
    </g>
    <g id="text_16">
     <!-- all_metrics -->
     <defs>
      <path d="M 9.421875 75.984375 
L 18.40625 75.984375 
L 18.40625 0 
L 9.421875 0 
z
" id="DejaVuSans-108"/>
      <path d="M 50.984375 -16.609375 
L 50.984375 -23.578125 
L -0.984375 -23.578125 
L -0.984375 -16.609375 
z
" id="DejaVuSans-95"/>
      <path d="M 52 44.1875 
Q 55.375 50.25 60.0625 53.125 
Q 64.75 56 71.09375 56 
Q 79.640625 56 84.28125 50.015625 
Q 88.921875 44.046875 88.921875 33.015625 
L 88.921875 0 
L 79.890625 0 
L 79.890625 32.71875 
Q 79.890625 40.578125 77.09375 44.375 
Q 74.3125 48.1875 68.609375 48.1875 
Q 61.625 48.1875 57.5625 43.546875 
Q 53.515625 38.921875 53.515625 30.90625 
L 53.515625 0 
L 44.484375 0 
L 44.484375 32.71875 
Q 44.484375 40.625 41.703125 44.40625 
Q 38.921875 48.1875 33.109375 48.1875 
Q 26.21875 48.1875 22.15625 43.53125 
Q 18.109375 38.875 18.109375 30.90625 
L 18.109375 0 
L 9.078125 0 
L 9.078125 54.6875 
L 18.109375 54.6875 
L 18.109375 46.1875 
Q 21.1875 51.21875 25.484375 53.609375 
Q 29.78125 56 35.6875 56 
Q 41.65625 56 45.828125 52.96875 
Q 50 49.953125 52 44.1875 
z
" id="DejaVuSans-109"/>
      <path d="M 56.203125 29.59375 
L 56.203125 25.203125 
L 14.890625 25.203125 
Q 15.484375 15.921875 20.484375 11.0625 
Q 25.484375 6.203125 34.421875 6.203125 
Q 39.59375 6.203125 44.453125 7.46875 
Q 49.3125 8.734375 54.109375 11.28125 
L 54.109375 2.78125 
Q 49.265625 0.734375 44.1875 -0.34375 
Q 39.109375 -1.421875 33.890625 -1.421875 
Q 20.796875 -1.421875 13.15625 6.1875 
Q 5.515625 13.8125 5.515625 26.8125 
Q 5.515625 40.234375 12.765625 48.109375 
Q 20.015625 56 32.328125 56 
Q 43.359375 56 49.78125 48.890625 
Q 56.203125 41.796875 56.203125 29.59375 
z
M 47.21875 32.234375 
Q 47.125 39.59375 43.09375 43.984375 
Q 39.0625 48.390625 32.421875 48.390625 
Q 24.90625 48.390625 20.390625 44.140625 
Q 15.875 39.890625 15.1875 32.171875 
z
" id="DejaVuSans-101"/>
      <path d="M 18.3125 70.21875 
L 18.3125 54.6875 
L 36.8125 54.6875 
L 36.8125 47.703125 
L 18.3125 47.703125 
L 18.3125 18.015625 
Q 18.3125 11.328125 20.140625 9.421875 
Q 21.96875 7.515625 27.59375 7.515625 
L 36.8125 7.515625 
L 36.8125 0 
L 27.59375 0 
Q 17.1875 0 13.234375 3.875 
Q 9.28125 7.765625 9.28125 18.015625 
L 9.28125 47.703125 
L 2.6875 47.703125 
L 2.6875 54.6875 
L 9.28125 54.6875 
L 9.28125 70.21875 
z
" id="DejaVuSans-116"/>
      <path d="M 41.109375 46.296875 
Q 39.59375 47.171875 37.8125 47.578125 
Q 36.03125 48 33.890625 48 
Q 26.265625 48 22.1875 43.046875 
Q 18.109375 38.09375 18.109375 28.8125 
L 18.109375 0 
L 9.078125 0 
L 9.078125 54.6875 
L 18.109375 54.6875 
L 18.109375 46.1875 
Q 20.953125 51.171875 25.484375 53.578125 
Q 30.03125 56 36.53125 56 
Q 37.453125 56 38.578125 55.875 
Q 39.703125 55.765625 41.0625 55.515625 
z
" id="DejaVuSans-114"/>
      <path d="M 9.421875 54.6875 
L 18.40625 54.6875 
L 18.40625 0 
L 9.421875 0 
z
M 9.421875 75.984375 
L 18.40625 75.984375 
L 18.40625 64.59375 
L 9.421875 64.59375 
z
" id="DejaVuSans-105"/>
      <path d="M 48.78125 52.59375 
L 48.78125 44.1875 
Q 44.96875 46.296875 41.140625 47.34375 
Q 37.3125 48.390625 33.40625 48.390625 
Q 24.65625 48.390625 19.8125 42.84375 
Q 14.984375 37.3125 14.984375 27.296875 
Q 14.984375 17.28125 19.8125 11.734375 
Q 24.65625 6.203125 33.40625 6.203125 
Q 37.3125 6.203125 41.140625 7.25 
Q 44.96875 8.296875 48.78125 10.40625 
L 48.78125 2.09375 
Q 45.015625 0.34375 40.984375 -0.53125 
Q 36.96875 -1.421875 32.421875 -1.421875 
Q 20.0625 -1.421875 12.78125 6.34375 
Q 5.515625 14.109375 5.515625 27.296875 
Q 5.515625 40.671875 12.859375 48.328125 
Q 20.21875 56 33.015625 56 
Q 37.15625 56 41.109375 55.140625 
Q 45.0625 54.296875 48.78125 52.59375 
z
" id="DejaVuSans-99"/>
      <path d="M 44.28125 53.078125 
L 44.28125 44.578125 
Q 40.484375 46.53125 36.375 47.5 
Q 32.28125 48.484375 27.875 48.484375 
Q 21.1875 48.484375 17.84375 46.4375 
Q 14.5 44.390625 14.5 40.28125 
Q 14.5 37.15625 16.890625 35.375 
Q 19.28125 33.59375 26.515625 31.984375 
L 29.59375 31.296875 
Q 39.15625 29.25 43.1875 25.515625 
Q 47.21875 21.78125 47.21875 15.09375 
Q 47.21875 7.46875 41.1875 3.015625 
Q 35.15625 -1.421875 24.609375 -1.421875 
Q 20.21875 -1.421875 15.453125 -0.5625 
Q 10.6875 0.296875 5.421875 2 
L 5.421875 11.28125 
Q 10.40625 8.6875 15.234375 7.390625 
Q 20.0625 6.109375 24.8125 6.109375 
Q 31.15625 6.109375 34.5625 8.28125 
Q 37.984375 10.453125 37.984375 14.40625 
Q 37.984375 18.0625 35.515625 20.015625 
Q 33.0625 21.96875 24.703125 23.78125 
L 21.578125 24.515625 
Q 13.234375 26.265625 9.515625 29.90625 
Q 5.8125 33.546875 5.8125 39.890625 
Q 5.8125 47.609375 11.28125 51.796875 
Q 16.75 56 26.8125 56 
Q 31.78125 56 36.171875 55.265625 
Q 40.578125 54.546875 44.28125 53.078125 
z
" id="DejaVuSans-115"/>
     </defs>
     <g transform="translate(15.739062 206.147656)rotate(-90)scale(0.1 -0.1)">
      <use xlink:href="#DejaVuSans-97"/>
      <use x="61.279297" xlink:href="#DejaVuSans-108"/>
      <use x="89.0625" xlink:href="#DejaVuSans-108"/>
      <use x="116.845703" xlink:href="#DejaVuSans-95"/>
      <use x="166.845703" xlink:href="#DejaVuSans-109"/>
      <use x="264.257812" xlink:href="#DejaVuSans-101"/>
      <use x="325.78125" xlink:href="#DejaVuSans-116"/>
      <use x="364.990234" xlink:href="#DejaVuSans-114"/>
      <use x="406.103516" xlink:href="#DejaVuSans-105"/>
      <use x="433.886719" xlink:href="#DejaVuSans-99"/>
      <use x="488.867188" xlink:href="#DejaVuSans-115"/>
     </g>
    </g>
   </g>
   <g id="line2d_15">
    <path clip-path="url(#p7c8f89a5f4)" d="M 57.681818 119.144118 
L 65.367769 119.144118 
L 73.053719 119.144118 
L 80.739669 110.059893 
L 88.42562 110.059893 
L 96.11157 110.059893 
L 103.797521 110.059893 
L 111.483471 110.059893 
L 119.169421 110.059893 
L 126.855372 110.059893 
L 134.541322 104.427674 
L 142.227273 104.427674 
L 149.913223 113.330214 
L 157.599174 113.330214 
L 165.285124 113.330214 
L 172.971074 116.782219 
L 180.657025 113.875267 
L 188.342975 122.777807 
L 196.028926 116.782219 
L 203.714876 116.600535 
L 211.400826 107.697995 
L 219.086777 101.702406 
L 226.772727 104.609358 
L 234.458678 95.343449 
L 242.144628 107.51631 
L 249.830579 107.51631 
L 257.516529 116.600535 
L 265.202479 122.596123 
L 272.88843 122.596123 
L 280.57438 122.596123 
L 288.260331 125.684759 
L 295.946281 128.410027 
L 303.632231 125.503075 
L 311.318182 119.144118 
" style="fill:none;stroke:#1f77b4;stroke-linecap:square;stroke-width:1.5;"/>
   </g>
   <g id="line2d_16">
    <path clip-path="url(#p7c8f89a5f4)" d="M 57.681818 261.463636 
L 65.367769 261.463636 
L 73.053719 261.463636 
L 80.739669 217.34026 
L 88.42562 217.34026 
L 96.11157 217.34026 
L 103.797521 217.34026 
L 111.483471 217.34026 
L 119.169421 217.34026 
L 126.855372 217.34026 
L 134.541322 203.573766 
L 142.227273 203.573766 
L 149.913223 219.340519 
L 157.599174 219.340519 
L 165.285124 219.340519 
L 172.971074 208.515584 
L 180.657025 188.512987 
L 188.342975 198.22013 
L 196.028926 173.511039 
L 203.714876 182.924026 
L 211.400826 143.114935 
L 219.086777 121.504286 
L 226.772727 115.963459 
L 234.458678 114.038076 
L 242.144628 112.27314 
L 249.830579 112.27314 
L 257.516529 119.44876 
L 265.202479 115.879669 
L 272.88843 115.879669 
L 280.57438 115.879669 
L 288.260331 120.193955 
L 295.946281 117.024203 
L 303.632231 106.940897 
L 311.318182 82.734545 
" style="fill:none;stroke:#ff7f0e;stroke-linecap:square;stroke-width:1.5;"/>
   </g>
   <g id="line2d_17">
    <path clip-path="url(#p7c8f89a5f4)" d="M 57.681818 220.281818 
L 65.367769 220.281818 
L 73.053719 220.281818 
L 80.739669 142.036364 
L 88.42562 142.036364 
L 96.11157 142.036364 
L 103.797521 142.036364 
L 111.483471 142.036364 
L 119.169421 142.036364 
L 126.855372 142.036364 
L 134.541322 142.036364 
L 142.227273 142.036364 
L 149.913223 146.154545 
L 157.599174 146.154545 
L 165.285124 146.154545 
L 172.971074 166.745455 
L 180.657025 160.156364 
L 188.342975 164.274545 
L 196.028926 142.036364 
L 203.714876 92.618182 
L 211.400826 89.441299 
L 219.086777 91.441558 
L 226.772727 90.559091 
L 234.458678 78.204545 
L 242.144628 101.540909 
L 249.830579 101.540909 
L 257.516529 112.620779 
L 265.202479 115.738831 
L 272.88843 115.738831 
L 280.57438 115.738831 
L 288.260331 115.080992 
L 295.946281 110.96281 
L 303.632231 118.525289 
L 311.318182 114.096084 
" style="fill:none;stroke:#2ca02c;stroke-linecap:square;stroke-width:1.5;"/>
   </g>
   <g id="line2d_18">
    <path clip-path="url(#p7c8f89a5f4)" d="M 57.681818 155.482851 
L 65.367769 155.482851 
L 73.053719 155.482851 
L 80.739669 114.687893 
L 88.42562 114.687893 
L 96.11157 114.687893 
L 103.797521 114.687893 
L 111.483471 114.687893 
L 119.169421 114.687893 
L 126.855372 114.687893 
L 134.541322 125.210649 
L 142.227273 125.210649 
L 149.913223 106.065204 
L 157.599174 106.065204 
L 165.285124 106.065204 
L 172.971074 116.093686 
L 180.657025 108.972493 
L 188.342975 108.765205 
L 196.028926 101.568978 
L 203.714876 106.734836 
L 211.400826 90.303028 
L 219.086777 83.592575 
L 226.772727 81.427622 
L 234.458678 78.181013 
L 242.144628 82.123275 
L 249.830579 82.123275 
L 257.516529 81.220881 
L 265.202479 82.660266 
L 272.88843 82.660266 
L 280.57438 82.660266 
L 288.260331 79.803906 
L 295.946281 80.003924 
L 303.632231 80.680506 
L 311.318182 76.203545 
" style="fill:none;stroke:#d62728;stroke-linecap:square;stroke-width:1.5;"/>
   </g>
   <g id="line2d_19">
    <path clip-path="url(#p7c8f89a5f4)" d="M 57.681818 122.430877 
L 65.367769 122.430877 
L 73.053719 122.430877 
L 80.739669 106.119935 
L 88.42562 106.119935 
L 96.11157 106.119935 
L 103.797521 106.119935 
L 111.483471 106.119935 
L 119.169421 106.119935 
L 126.855372 106.119935 
L 134.541322 105.800375 
L 142.227273 105.800375 
L 149.913223 93.420425 
L 157.599174 93.420425 
L 165.285124 93.420425 
L 172.971074 102.373459 
L 180.657025 101.933117 
L 188.342975 99.836031 
L 196.028926 96.194627 
L 203.714876 100.734715 
L 211.400826 92.985877 
L 219.086777 84.003093 
L 226.772727 85.765019 
L 234.458678 84.770349 
L 242.144628 88.87204 
L 249.830579 88.87204 
L 257.516529 87.77085 
L 265.202479 90.413239 
L 272.88843 90.413239 
L 280.57438 90.413239 
L 288.260331 91.549527 
L 295.946281 100.385679 
L 303.632231 101.706706 
L 311.318182 93.608506 
" style="fill:none;stroke:#9467bd;stroke-linecap:square;stroke-width:1.5;"/>
   </g>
   <g id="line2d_20">
    <path clip-path="url(#p7c8f89a5f4)" d="M 57.681818 249.697403 
L 65.367769 249.697403 
L 73.053719 249.697403 
L 80.739669 203.809091 
L 88.42562 203.809091 
L 96.11157 203.809091 
L 103.797521 203.809091 
L 111.483471 203.809091 
L 119.169421 203.809091 
L 126.855372 203.809091 
L 134.541322 184.341322 
L 142.227273 184.341322 
L 149.913223 198.318182 
L 157.599174 198.318182 
L 165.285124 198.318182 
L 172.971074 195.32314 
L 180.657025 178.800496 
L 188.342975 188.983636 
L 196.028926 169.515868 
L 203.714876 158.548312 
L 211.400826 125.750826 
L 219.086777 112.975993 
L 226.772727 112.506578 
L 234.458678 101.904174 
L 242.144628 111.721429 
L 249.830579 111.721429 
L 257.516529 117.321682 
L 265.202479 118.628115 
L 272.88843 118.628115 
L 280.57438 118.628115 
L 288.260331 119.594185 
L 295.946281 118.566188 
L 303.632231 113.381362 
L 311.318182 102.137932 
" style="fill:none;stroke:#8c564b;stroke-linecap:square;stroke-width:1.5;"/>
   </g>
   <g id="line2d_21"/>
   <g id="line2d_22"/>
   <g id="line2d_23"/>
   <g id="line2d_24"/>
   <g id="line2d_25"/>
   <g id="line2d_26"/>
   <g id="line2d_27"/>
   <g id="patch_3">
    <path d="M 45 315 
L 45 43.2 
" style="fill:none;stroke:#000000;stroke-linecap:square;stroke-linejoin:miter;stroke-width:0.8;"/>
   </g>
   <g id="patch_4">
    <path d="M 324 315 
L 324 43.2 
" style="fill:none;stroke:#000000;stroke-linecap:square;stroke-linejoin:miter;stroke-width:0.8;"/>
   </g>
   <g id="patch_5">
    <path d="M 45 315 
L 324 315 
" style="fill:none;stroke:#000000;stroke-linecap:square;stroke-linejoin:miter;stroke-width:0.8;"/>
   </g>
   <g id="patch_6">
    <path d="M 45 43.2 
L 324 43.2 
" style="fill:none;stroke:#000000;stroke-linecap:square;stroke-linejoin:miter;stroke-width:0.8;"/>
   </g>
   <g id="text_17">
    <!-- proteomics, 5-fold CV -->
    <defs>
     <path d="M 18.109375 8.203125 
L 18.109375 -20.796875 
L 9.078125 -20.796875 
L 9.078125 54.6875 
L 18.109375 54.6875 
L 18.109375 46.390625 
Q 20.953125 51.265625 25.265625 53.625 
Q 29.59375 56 35.59375 56 
Q 45.5625 56 51.78125 48.09375 
Q 58.015625 40.1875 58.015625 27.296875 
Q 58.015625 14.40625 51.78125 6.484375 
Q 45.5625 -1.421875 35.59375 -1.421875 
Q 29.59375 -1.421875 25.265625 0.953125 
Q 20.953125 3.328125 18.109375 8.203125 
z
M 48.6875 27.296875 
Q 48.6875 37.203125 44.609375 42.84375 
Q 40.53125 48.484375 33.40625 48.484375 
Q 26.265625 48.484375 22.1875 42.84375 
Q 18.109375 37.203125 18.109375 27.296875 
Q 18.109375 17.390625 22.1875 11.75 
Q 26.265625 6.109375 33.40625 6.109375 
Q 40.53125 6.109375 44.609375 11.75 
Q 48.6875 17.390625 48.6875 27.296875 
z
" id="DejaVuSans-112"/>
     <path d="M 30.609375 48.390625 
Q 23.390625 48.390625 19.1875 42.75 
Q 14.984375 37.109375 14.984375 27.296875 
Q 14.984375 17.484375 19.15625 11.84375 
Q 23.34375 6.203125 30.609375 6.203125 
Q 37.796875 6.203125 41.984375 11.859375 
Q 46.1875 17.53125 46.1875 27.296875 
Q 46.1875 37.015625 41.984375 42.703125 
Q 37.796875 48.390625 30.609375 48.390625 
z
M 30.609375 56 
Q 42.328125 56 49.015625 48.375 
Q 55.71875 40.765625 55.71875 27.296875 
Q 55.71875 13.875 49.015625 6.21875 
Q 42.328125 -1.421875 30.609375 -1.421875 
Q 18.84375 -1.421875 12.171875 6.21875 
Q 5.515625 13.875 5.515625 27.296875 
Q 5.515625 40.765625 12.171875 48.375 
Q 18.84375 56 30.609375 56 
z
" id="DejaVuSans-111"/>
     <path d="M 11.71875 12.40625 
L 22.015625 12.40625 
L 22.015625 4 
L 14.015625 -11.625 
L 7.71875 -11.625 
L 11.71875 4 
z
" id="DejaVuSans-44"/>
     <path id="DejaVuSans-32"/>
     <path d="M 4.890625 31.390625 
L 31.203125 31.390625 
L 31.203125 23.390625 
L 4.890625 23.390625 
z
" id="DejaVuSans-45"/>
     <path d="M 37.109375 75.984375 
L 37.109375 68.5 
L 28.515625 68.5 
Q 23.6875 68.5 21.796875 66.546875 
Q 19.921875 64.59375 19.921875 59.515625 
L 19.921875 54.6875 
L 34.71875 54.6875 
L 34.71875 47.703125 
L 19.921875 47.703125 
L 19.921875 0 
L 10.890625 0 
L 10.890625 47.703125 
L 2.296875 47.703125 
L 2.296875 54.6875 
L 10.890625 54.6875 
L 10.890625 58.5 
Q 10.890625 67.625 15.140625 71.796875 
Q 19.390625 75.984375 28.609375 75.984375 
z
" id="DejaVuSans-102"/>
     <path d="M 64.40625 67.28125 
L 64.40625 56.890625 
Q 59.421875 61.53125 53.78125 63.8125 
Q 48.140625 66.109375 41.796875 66.109375 
Q 29.296875 66.109375 22.65625 58.46875 
Q 16.015625 50.828125 16.015625 36.375 
Q 16.015625 21.96875 22.65625 14.328125 
Q 29.296875 6.6875 41.796875 6.6875 
Q 48.140625 6.6875 53.78125 8.984375 
Q 59.421875 11.28125 64.40625 15.921875 
L 64.40625 5.609375 
Q 59.234375 2.09375 53.4375 0.328125 
Q 47.65625 -1.421875 41.21875 -1.421875 
Q 24.65625 -1.421875 15.125 8.703125 
Q 5.609375 18.84375 5.609375 36.375 
Q 5.609375 53.953125 15.125 64.078125 
Q 24.65625 74.21875 41.21875 74.21875 
Q 47.75 74.21875 53.53125 72.484375 
Q 59.328125 70.75 64.40625 67.28125 
z
" id="DejaVuSans-67"/>
     <path d="M 28.609375 0 
L 0.78125 72.90625 
L 11.078125 72.90625 
L 34.1875 11.53125 
L 57.328125 72.90625 
L 67.578125 72.90625 
L 39.796875 0 
z
" id="DejaVuSans-86"/>
    </defs>
    <g transform="translate(119.6475 37.2)scale(0.12 -0.12)">
     <use xlink:href="#DejaVuSans-112"/>
     <use x="63.476562" xlink:href="#DejaVuSans-114"/>
     <use x="104.558594" xlink:href="#DejaVuSans-111"/>
     <use x="165.740234" xlink:href="#DejaVuSans-116"/>
     <use x="204.949219" xlink:href="#DejaVuSans-101"/>
     <use x="266.472656" xlink:href="#DejaVuSans-111"/>
     <use x="327.654297" xlink:href="#DejaVuSans-109"/>
     <use x="425.066406" xlink:href="#DejaVuSans-105"/>
     <use x="452.849609" xlink:href="#DejaVuSans-99"/>
     <use x="507.830078" xlink:href="#DejaVuSans-115"/>
     <use x="559.929688" xlink:href="#DejaVuSans-44"/>
     <use x="591.716797" xlink:href="#DejaVuSans-32"/>
     <use x="623.503906" xlink:href="#DejaVuSans-53"/>
     <use x="687.126953" xlink:href="#DejaVuSans-45"/>
     <use x="723.210938" xlink:href="#DejaVuSans-102"/>
     <use x="758.416016" xlink:href="#DejaVuSans-111"/>
     <use x="819.597656" xlink:href="#DejaVuSans-108"/>
     <use x="847.380859" xlink:href="#DejaVuSans-100"/>
     <use x="910.857422" xlink:href="#DejaVuSans-32"/>
     <use x="942.644531" xlink:href="#DejaVuSans-67"/>
     <use x="1012.46875" xlink:href="#DejaVuSans-86"/>
    </g>
   </g>
   <g id="legend_1">
    <g id="patch_7">
     <path d="M 193.729688 310 
L 317 310 
Q 319 310 319 308 
L 319 205.41875 
Q 319 203.41875 317 203.41875 
L 193.729688 203.41875 
Q 191.729688 203.41875 191.729688 205.41875 
L 191.729688 308 
Q 191.729688 310 193.729688 310 
z
" style="fill:#ffffff;opacity:0.8;stroke:#cccccc;stroke-linejoin:miter;"/>
    </g>
    <g id="line2d_28">
     <path d="M 195.729688 211.517187 
L 215.729688 211.517187 
" style="fill:none;"/>
    </g>
    <g id="line2d_29"/>
    <g id="text_18">
     <!-- metric_type -->
     <g transform="translate(223.729688 215.017187)scale(0.1 -0.1)">
      <use xlink:href="#DejaVuSans-109"/>
      <use x="97.412109" xlink:href="#DejaVuSans-101"/>
      <use x="158.935547" xlink:href="#DejaVuSans-116"/>
      <use x="198.144531" xlink:href="#DejaVuSans-114"/>
      <use x="239.257812" xlink:href="#DejaVuSans-105"/>
      <use x="267.041016" xlink:href="#DejaVuSans-99"/>
      <use x="322.021484" xlink:href="#DejaVuSans-95"/>
      <use x="372.021484" xlink:href="#DejaVuSans-116"/>
      <use x="411.230469" xlink:href="#DejaVuSans-121"/>
      <use x="470.410156" xlink:href="#DejaVuSans-112"/>
      <use x="533.886719" xlink:href="#DejaVuSans-101"/>
     </g>
    </g>
    <g id="line2d_30">
     <path d="M 195.729688 226.473437 
L 215.729688 226.473437 
" style="fill:none;stroke:#1f77b4;stroke-linecap:square;stroke-width:1.5;"/>
    </g>
    <g id="line2d_31"/>
    <g id="text_19">
     <!-- accuracy -->
     <defs>
      <path d="M 8.5 21.578125 
L 8.5 54.6875 
L 17.484375 54.6875 
L 17.484375 21.921875 
Q 17.484375 14.15625 20.5 10.265625 
Q 23.53125 6.390625 29.59375 6.390625 
Q 36.859375 6.390625 41.078125 11.03125 
Q 45.3125 15.671875 45.3125 23.6875 
L 45.3125 54.6875 
L 54.296875 54.6875 
L 54.296875 0 
L 45.3125 0 
L 45.3125 8.40625 
Q 42.046875 3.421875 37.71875 1 
Q 33.40625 -1.421875 27.6875 -1.421875 
Q 18.265625 -1.421875 13.375 4.4375 
Q 8.5 10.296875 8.5 21.578125 
z
M 31.109375 56 
z
" id="DejaVuSans-117"/>
     </defs>
     <g transform="translate(223.729688 229.973437)scale(0.1 -0.1)">
      <use xlink:href="#DejaVuSans-97"/>
      <use x="61.279297" xlink:href="#DejaVuSans-99"/>
      <use x="116.259766" xlink:href="#DejaVuSans-99"/>
      <use x="171.240234" xlink:href="#DejaVuSans-117"/>
      <use x="234.619141" xlink:href="#DejaVuSans-114"/>
      <use x="275.732422" xlink:href="#DejaVuSans-97"/>
      <use x="337.011719" xlink:href="#DejaVuSans-99"/>
      <use x="391.992188" xlink:href="#DejaVuSans-121"/>
     </g>
    </g>
    <g id="line2d_32">
     <path d="M 195.729688 241.151562 
L 215.729688 241.151562 
" style="fill:none;stroke:#ff7f0e;stroke-linecap:square;stroke-width:1.5;"/>
    </g>
    <g id="line2d_33"/>
    <g id="text_20">
     <!-- recall -->
     <g transform="translate(223.729688 244.651562)scale(0.1 -0.1)">
      <use xlink:href="#DejaVuSans-114"/>
      <use x="41.082031" xlink:href="#DejaVuSans-101"/>
      <use x="102.605469" xlink:href="#DejaVuSans-99"/>
      <use x="157.585938" xlink:href="#DejaVuSans-97"/>
      <use x="218.865234" xlink:href="#DejaVuSans-108"/>
      <use x="246.648438" xlink:href="#DejaVuSans-108"/>
     </g>
    </g>
    <g id="line2d_34">
     <path d="M 195.729688 255.829687 
L 215.729688 255.829687 
" style="fill:none;stroke:#2ca02c;stroke-linecap:square;stroke-width:1.5;"/>
    </g>
    <g id="line2d_35"/>
    <g id="text_21">
     <!-- precision -->
     <defs>
      <path d="M 54.890625 33.015625 
L 54.890625 0 
L 45.90625 0 
L 45.90625 32.71875 
Q 45.90625 40.484375 42.875 44.328125 
Q 39.84375 48.1875 33.796875 48.1875 
Q 26.515625 48.1875 22.3125 43.546875 
Q 18.109375 38.921875 18.109375 30.90625 
L 18.109375 0 
L 9.078125 0 
L 9.078125 54.6875 
L 18.109375 54.6875 
L 18.109375 46.1875 
Q 21.34375 51.125 25.703125 53.5625 
Q 30.078125 56 35.796875 56 
Q 45.21875 56 50.046875 50.171875 
Q 54.890625 44.34375 54.890625 33.015625 
z
" id="DejaVuSans-110"/>
     </defs>
     <g transform="translate(223.729688 259.329687)scale(0.1 -0.1)">
      <use xlink:href="#DejaVuSans-112"/>
      <use x="63.476562" xlink:href="#DejaVuSans-114"/>
      <use x="104.558594" xlink:href="#DejaVuSans-101"/>
      <use x="166.082031" xlink:href="#DejaVuSans-99"/>
      <use x="221.0625" xlink:href="#DejaVuSans-105"/>
      <use x="248.845703" xlink:href="#DejaVuSans-115"/>
      <use x="300.945312" xlink:href="#DejaVuSans-105"/>
      <use x="328.728516" xlink:href="#DejaVuSans-111"/>
      <use x="389.910156" xlink:href="#DejaVuSans-110"/>
     </g>
    </g>
    <g id="line2d_36">
     <path d="M 195.729688 270.507812 
L 215.729688 270.507812 
" style="fill:none;stroke:#d62728;stroke-linecap:square;stroke-width:1.5;"/>
    </g>
    <g id="line2d_37"/>
    <g id="text_22">
     <!-- average_precision -->
     <defs>
      <path d="M 2.984375 54.6875 
L 12.5 54.6875 
L 29.59375 8.796875 
L 46.6875 54.6875 
L 56.203125 54.6875 
L 35.6875 0 
L 23.484375 0 
z
" id="DejaVuSans-118"/>
      <path d="M 45.40625 27.984375 
Q 45.40625 37.75 41.375 43.109375 
Q 37.359375 48.484375 30.078125 48.484375 
Q 22.859375 48.484375 18.828125 43.109375 
Q 14.796875 37.75 14.796875 27.984375 
Q 14.796875 18.265625 18.828125 12.890625 
Q 22.859375 7.515625 30.078125 7.515625 
Q 37.359375 7.515625 41.375 12.890625 
Q 45.40625 18.265625 45.40625 27.984375 
z
M 54.390625 6.78125 
Q 54.390625 -7.171875 48.1875 -13.984375 
Q 42 -20.796875 29.203125 -20.796875 
Q 24.46875 -20.796875 20.265625 -20.09375 
Q 16.0625 -19.390625 12.109375 -17.921875 
L 12.109375 -9.1875 
Q 16.0625 -11.328125 19.921875 -12.34375 
Q 23.78125 -13.375 27.78125 -13.375 
Q 36.625 -13.375 41.015625 -8.765625 
Q 45.40625 -4.15625 45.40625 5.171875 
L 45.40625 9.625 
Q 42.625 4.78125 38.28125 2.390625 
Q 33.9375 0 27.875 0 
Q 17.828125 0 11.671875 7.65625 
Q 5.515625 15.328125 5.515625 27.984375 
Q 5.515625 40.671875 11.671875 48.328125 
Q 17.828125 56 27.875 56 
Q 33.9375 56 38.28125 53.609375 
Q 42.625 51.21875 45.40625 46.390625 
L 45.40625 54.6875 
L 54.390625 54.6875 
z
" id="DejaVuSans-103"/>
     </defs>
     <g transform="translate(223.729688 274.007812)scale(0.1 -0.1)">
      <use xlink:href="#DejaVuSans-97"/>
      <use x="61.279297" xlink:href="#DejaVuSans-118"/>
      <use x="120.458984" xlink:href="#DejaVuSans-101"/>
      <use x="181.982422" xlink:href="#DejaVuSans-114"/>
      <use x="223.095703" xlink:href="#DejaVuSans-97"/>
      <use x="284.375" xlink:href="#DejaVuSans-103"/>
      <use x="347.851562" xlink:href="#DejaVuSans-101"/>
      <use x="409.375" xlink:href="#DejaVuSans-95"/>
      <use x="459.375" xlink:href="#DejaVuSans-112"/>
      <use x="522.851562" xlink:href="#DejaVuSans-114"/>
      <use x="563.933594" xlink:href="#DejaVuSans-101"/>
      <use x="625.457031" xlink:href="#DejaVuSans-99"/>
      <use x="680.4375" xlink:href="#DejaVuSans-105"/>
      <use x="708.220703" xlink:href="#DejaVuSans-115"/>
      <use x="760.320312" xlink:href="#DejaVuSans-105"/>
      <use x="788.103516" xlink:href="#DejaVuSans-111"/>
      <use x="849.285156" xlink:href="#DejaVuSans-110"/>
     </g>
    </g>
    <g id="line2d_38">
     <path d="M 195.729688 285.464062 
L 215.729688 285.464062 
" style="fill:none;stroke:#9467bd;stroke-linecap:square;stroke-width:1.5;"/>
    </g>
    <g id="line2d_39"/>
    <g id="text_23">
     <!-- roc_auc -->
     <g transform="translate(223.729688 288.964062)scale(0.1 -0.1)">
      <use xlink:href="#DejaVuSans-114"/>
      <use x="41.082031" xlink:href="#DejaVuSans-111"/>
      <use x="102.263672" xlink:href="#DejaVuSans-99"/>
      <use x="157.244141" xlink:href="#DejaVuSans-95"/>
      <use x="207.244141" xlink:href="#DejaVuSans-97"/>
      <use x="268.523438" xlink:href="#DejaVuSans-117"/>
      <use x="331.902344" xlink:href="#DejaVuSans-99"/>
     </g>
    </g>
    <g id="line2d_40">
     <path d="M 195.729688 300.420312 
L 215.729688 300.420312 
" style="fill:none;stroke:#8c564b;stroke-linecap:square;stroke-width:1.5;"/>
    </g>
    <g id="line2d_41"/>
    <g id="text_24">
     <!-- f1 -->
     <g transform="translate(223.729688 303.920312)scale(0.1 -0.1)">
      <use xlink:href="#DejaVuSans-102"/>
      <use x="35.205078" xlink:href="#DejaVuSans-49"/>
     </g>
    </g>
   </g>
  </g>
 </g>
 <defs>
  <clipPath id="p7c8f89a5f4">
   <rect height="271.8" width="279" x="45" y="43.2"/>
  </clipPath>
 </defs>
</svg>
